<svg xmlns="http://www.w3.org/2000/svg" xmlns:xlink="http://www.w3.org/1999/xlink" viewBox="0 0 133.13 46.62"><defs><style>.cls-1{fill:#010101;}.cls-2{fill:url(#radial-gradient);}.cls-3{fill:#231f20;}</style><radialGradient id="radial-gradient" cx="37.3" cy="667.02" r="3.45" gradientTransform="matrix(1, 0, 0, -1, 0, 670.47)" gradientUnits="userSpaceOnUse"><stop offset="0" stop-color="#d5b599"/><stop offset="0.5" stop-color="#d49569"/><stop offset="1" stop-color="#a45f4d"/></radialGradient></defs><title>guch_logo_black</title><g id="Layer_2" data-name="Layer 2"><g id="Layer_1-2" data-name="Layer 1"><path class="cls-1" d="M56,14.1h6.76V37.45H56.37V34.67A8.83,8.83,0,0,1,53.15,37a10,10,0,0,1-4,.81,10,10,0,0,1-7.3-2.65c-1.79-1.77-2.69-4.39-2.68-7.86V14.1h6.77V26.29c0,3.77,1.57,5.65,4.73,5.65a5.06,5.06,0,0,0,3.9-1.59A6.64,6.64,0,0,0,56,25.64Z"/><path class="cls-1" d="M81.87,19.31a5.73,5.73,0,0,1,5.25,3.21l5.25-2.82a9.1,9.1,0,0,0-4-4.41,13.09,13.09,0,0,0-6.45-1.53,14.44,14.44,0,0,0-6.7,1.53,11.45,11.45,0,0,0-6.32,10.48,11.47,11.47,0,0,0,6.32,10.49,14.27,14.27,0,0,0,6.7,1.54,12.79,12.79,0,0,0,6.45-1.57,9.28,9.28,0,0,0,4-4.34L87.12,29a5.69,5.69,0,0,1-5.25,3.21,5.94,5.94,0,0,1-4.38-1.73,6.4,6.4,0,0,1-1.74-4.74A6.4,6.4,0,0,1,77.49,21,5.92,5.92,0,0,1,81.87,19.31Z"/><path class="cls-1" d="M119.13,16.35a9.59,9.59,0,0,0-7-2.6,11.56,11.56,0,0,0-4.16.71,9.13,9.13,0,0,0-3.26,2.06V5.24H97.93V37.45h6.77V25.9a6.54,6.54,0,0,1,1.53-4.71,5.39,5.39,0,0,1,4.07-1.58A4.44,4.44,0,0,1,113.81,21,6,6,0,0,1,115,25.12V37.45h6.77V24.08Q121.8,19,119.13,16.35Z"/><circle class="cls-2" cx="37.3" cy="3.45" r="3.45"/><path class="cls-1" d="M20.05,14.1a11.68,11.68,0,0,0-.7,23.35H23c-.57.84-2.76,3.37-8.33,3.37H5.78L0,46.62H14.62a17.12,17.12,0,0,0,17.12-17.1h0V14.1Zm0,17.11a5.43,5.43,0,1,1,5.43-5.43,5.43,5.43,0,0,1-5.43,5.43Z"/><path class="cls-3" d="M127.94,33.64h-1.37v3.81H126V33.64h-1.38v-.47h3.31Z"/><polygon class="cls-3" points="132.4 33.17 131 35.64 129.61 33.17 128.88 33.17 128.88 37.45 129.44 37.45 129.44 34.13 130.79 36.43 131.22 36.43 132.57 34.12 132.57 37.45 133.13 37.45 133.13 33.17 132.4 33.17"/></g></g></svg>