<svg xmlns="http://www.w3.org/2000/svg" xmlns:xlink="http://www.w3.org/1999/xlink" width="1437.31" height="536.61" viewBox="0 0 1437.31 536.61">
  <defs>
    <linearGradient id="linear-gradient" x1="0.25" y1="0.067" x2="0.75" y2="0.933" gradientUnits="objectBoundingBox">
      <stop offset="0" stop-color="#ab287e"/>
      <stop offset="1" stop-color="#e31d61"/>
    </linearGradient>
    <linearGradient id="linear-gradient-2" x1="0" y1="0.5" x2="1" y2="0.5" xlink:href="#linear-gradient"/>
    <linearGradient id="linear-gradient-3" x1="0" y1="0.5" x2="1" y2="0.5" xlink:href="#linear-gradient"/>
  </defs>
  <g id="logo-inspyr" transform="translate(-282 -733.23)">
    <g id="text">
      <path id="Path_3" data-name="Path 3" d="M990.43,920.94a65.3,65.3,0,0,0-9.58-7.13A118.574,118.574,0,0,0,964,905a147.268,147.268,0,0,0-21.59-7.32,94.453,94.453,0,0,0-23.66-3q-21.41,0-31.92,7.88T876.27,924.7q0,8.26,3.94,13.71A34,34,0,0,0,891.66,948a95.82,95.82,0,0,0,19,7.51q11.45,3.39,26.47,7.14,19.53,5.26,35.49,11.26a96.321,96.321,0,0,1,27,15,62.121,62.121,0,0,1,17.09,21.59q6,12.59,6,31,0,21.4-8.08,36.62a67.861,67.861,0,0,1-21.78,24.59,94.728,94.728,0,0,1-31.55,13.71,158.233,158.233,0,0,1-37.36,4.32,201,201,0,0,1-59.34-9,183,183,0,0,1-52.57-25.54L835,1041.49q3.38,3.38,12.2,8.83a186.336,186.336,0,0,0,20.8,10.89,161.683,161.683,0,0,0,26.67,9.2,120.559,120.559,0,0,0,30,3.75q42.81,0,42.81-27.41a22.52,22.52,0,0,0-4.88-14.65q-4.89-6-13.89-10.51a132.767,132.767,0,0,0-21.79-8.26q-12.76-3.75-28.54-8.27a242.012,242.012,0,0,1-33.23-11.45A87.24,87.24,0,0,1,841.72,979a54.892,54.892,0,0,1-14.09-19.53q-4.7-11.09-4.69-26.48,0-20.28,7.51-36.05a72.809,72.809,0,0,1,20.84-26.29,94.543,94.543,0,0,1,31-16,128.259,128.259,0,0,1,37.92-5.44q28.17,0,51.83,8.82a192.731,192.731,0,0,1,41.3,20.85Z" fill="#fff"/>
      <path id="Path_4" data-name="Path 4" d="M1049.76,1117.72V851.09h113a75.85,75.85,0,0,1,34,7.7,88.257,88.257,0,0,1,26.85,20.28,96,96,0,0,1,17.65,28.54,86,86,0,0,1,6.38,32.11,92.42,92.42,0,0,1-6,32.86,91,91,0,0,1-16.9,28.35,83.13,83.13,0,0,1-26.28,19.91,76.05,76.05,0,0,1-33.8,7.51h-63.09v89.37Zm51.82-134.81h60.09q14.26,0,23.84-11.64t9.58-31.55a52.25,52.25,0,0,0-3-18.21,44.589,44.589,0,0,0-7.89-13.71,31.43,31.43,0,0,0-11.46-8.45,33.5,33.5,0,0,0-13.33-2.82h-57.83Z" fill="#fff"/>
      <path id="Path_5" data-name="Path 5" d="M1298,851.09l65.72,128.44,66.85-128.44h56l-96.88,173.5v93.13h-51.45v-93.88l-96.52-172.75Z" fill="#fff"/>
      <path id="Path_6" data-name="Path 6" d="M1503.77,1117.72V851.09h117.92a75.839,75.839,0,0,1,34,7.7,88.141,88.141,0,0,1,26.85,20.28,96,96,0,0,1,17.66,28.54,86,86,0,0,1,6.38,32.11,88.639,88.639,0,0,1-13,47.13,74.371,74.371,0,0,1-35.11,30.61l60.84,100.26H1661.1l-54.45-89.37H1555.6v89.37Zm51.83-134.81h65a27.431,27.431,0,0,0,13.33-3.38,34.291,34.291,0,0,0,10.71-9.2,45.881,45.881,0,0,0,7.13-13.71,53.2,53.2,0,0,0,2.63-16.9,48.41,48.41,0,0,0-3-17.27,45.209,45.209,0,0,0-8.08-13.71,36.549,36.549,0,0,0-11.64-9,30.22,30.22,0,0,0-13.33-3.2H1555.6Z" fill="#fff"/>
    </g>
    <g id="icon">
      <path id="Path_1" data-name="Path 1" d="M534.07,733.23C394.79,733.23,282,846.05,282,985.14s112.83,251.92,252.11,251.92c139.09,0,251.91-112.83,251.91-251.92S673.16,733.23,534.07,733.23Zm-88,385.75h-50v-56.42h50Zm0-99.6h-50V851.31h50Zm222.08,98.24L532,947.79v169.83H480.44V852.67h40.08l138.11,173.91V853.06H710v264.56Z" fill="url(#linear-gradient)"/>
      <circle id="Ellipse_1" data-name="Ellipse 1" cx="47.16" cy="47.16" r="47.16" transform="translate(743.93 1149.09)" fill="url(#linear-gradient-2)"/>
      <path id="Path_2" data-name="Path 2" d="M911.08,1243.91A25.92,25.92,0,1,1,885.163,1218a25.92,25.92,0,0,1,25.917,25.91Z" fill="url(#linear-gradient-3)"/>
      <path id="Path_9" data-name="Path 9" d="M480.433,1116.785l.327-264.64H521l137.391,173.7v-173.7H710.4v264.64H667.546L531.791,947.99v168.794Z" fill="#fff"/>
      <g id="Component_1_1" data-name="Component 1 – 1" transform="translate(396.036 851.49)">
        <path id="Path_7" data-name="Path 7" d="M396.036,851.49h49.722v167.486H396.036Z" transform="translate(-396.036 -851.49)" fill="#fff"/>
        <path id="Path_8" data-name="Path 8" d="M396.036,1062.483h49.722v56.592H396.036Z" transform="translate(-396.036 -851.49)" fill="#fff"/>
      </g>
    </g>
  </g>
</svg>
