<svg width="28" height="28" viewBox="0 0 28 28" fill="none" xmlns="http://www.w3.org/2000/svg">
<path d="M13.987 0.666504C6.62966 0.666504 0.666992 6.6305 0.666992 13.9865C0.666992 19.6292 4.17766 24.4532 9.13366 26.3945C9.01633 25.3412 8.91233 23.7198 9.17899 22.5705C9.42166 21.5305 10.7417 15.9492 10.7417 15.9492C10.7417 15.9492 10.343 15.1505 10.343 13.9705C10.343 12.1198 11.4163 10.7372 12.7537 10.7372C13.891 10.7372 14.439 11.5905 14.439 12.6132C14.439 13.7572 13.711 15.4652 13.3363 17.0492C13.023 18.3745 14.0017 19.4558 15.3083 19.4558C17.675 19.4558 19.4963 16.9598 19.4963 13.3558C19.4963 10.1665 17.2043 7.93717 13.9323 7.93717C10.1417 7.93717 7.91633 10.7798 7.91633 13.7172C7.91633 14.8612 8.35766 16.0892 8.90833 16.7572C8.95512 16.8075 8.98817 16.869 9.00428 16.9358C9.02039 17.0026 9.01903 17.0724 9.00033 17.1385C8.89899 17.5585 8.67366 18.4638 8.63099 18.6492C8.57233 18.8932 8.43766 18.9452 8.18433 18.8278C6.52166 18.0532 5.48166 15.6212 5.48166 13.6665C5.48166 9.46517 8.53366 5.6065 14.283 5.6065C18.9043 5.6065 22.495 8.8985 22.495 13.2998C22.495 17.8918 19.6003 21.5838 15.583 21.5838C14.2323 21.5838 12.9643 20.8838 12.5297 20.0558L11.699 23.2212C11.399 24.3785 10.587 25.8292 10.0443 26.7145C11.3218 27.1089 12.6513 27.3089 13.9883 27.3078C21.3443 27.3078 27.3083 21.3438 27.3083 13.9878C27.3083 6.63184 21.343 0.666504 13.987 0.666504Z" fill="white"/>
</svg>
