<svg width="54" height="38" viewBox="0 0 54 38" fill="none" xmlns="http://www.w3.org/2000/svg">
<path d="M11.8665 13.625C14.2028 13.625 16.4866 14.3178 18.4292 15.6158C20.3717 16.9137 21.8858 18.7586 22.7798 20.9171C23.6739 23.0755 23.9078 25.4506 23.452 27.742C22.9962 30.0334 21.8712 32.1382 20.2192 33.7902C18.5672 35.4422 16.4624 36.5672 14.171 37.023C11.8796 37.4788 9.5045 37.2449 7.34605 36.3508C5.1876 35.4568 3.34274 33.9427 2.04477 32.0002C0.746791 30.0576 0.054 27.7738 0.054 25.4375L0 23.75C0 17.4843 2.48906 11.4751 6.9196 7.0446C11.3501 2.61406 17.3593 0.125 23.625 0.125V6.875C21.408 6.86904 19.2118 7.30265 17.1633 8.15074C15.1149 8.99884 13.255 10.2446 11.691 11.816C11.0831 12.4227 10.5224 13.0748 10.0136 13.7667C10.6178 13.6722 11.2354 13.6216 11.8631 13.6216L11.8665 13.625ZM42.2415 13.625C44.5778 13.625 46.8616 14.3178 48.8042 15.6158C50.7467 16.9137 52.2608 18.7586 53.1548 20.9171C54.0489 23.0755 54.2828 25.4506 53.827 27.742C53.3712 30.0334 52.2462 32.1382 50.5942 33.7902C48.9422 35.4422 46.8374 36.5672 44.546 37.023C42.2546 37.4788 39.8795 37.2449 37.7211 36.3508C35.5626 35.4568 33.7177 33.9427 32.4198 32.0002C31.1218 30.0576 30.429 27.7738 30.429 25.4375L30.375 23.75C30.375 17.4843 32.8641 11.4751 37.2946 7.0446C41.7252 2.61406 47.7343 0.125 54 0.125V6.875C51.783 6.86904 49.5868 7.30265 47.5383 8.15074C45.4899 8.99884 43.63 10.2446 42.066 11.816C41.4581 12.4227 40.8974 13.0748 40.3886 13.7667C40.9927 13.6722 41.6104 13.6216 42.2415 13.6216V13.625Z" fill="url(#paint0_linear)" fill-opacity="0.73"/>
<defs>
<linearGradient id="paint0_linear" x1="0.939091" y1="37.25" x2="49.2665" y2="2.90912" gradientUnits="userSpaceOnUse">
<stop stop-color="#533966"/>
<stop offset="1" stop-color="#2D3E96"/>
</linearGradient>
</defs>
</svg>
