<svg width="218" height="160" viewBox="0 0 218 160" fill="none" xmlns="http://www.w3.org/2000/svg">
<path d="M40.6787 160C29.9476 160 22.0409 157.295 16.9606 151.885C11.8802 146.477 9.18728 137.45 8.88184 124.801L31.3878 121.855C31.3878 125.433 31.585 128.443 31.9755 130.886C32.3699 133.328 32.9363 135.194 33.6767 136.479C34.419 137.767 35.2155 138.671 36.0661 139.193C36.9167 139.717 37.9084 139.98 39.0432 139.98C42.0087 139.98 43.4914 137.842 43.4914 133.568C43.4914 129.379 42.5422 125.783 40.6458 122.771C38.7474 119.763 35.7046 116.469 31.5174 112.892L24.6488 107.072C22.1627 104.934 20.1232 103.035 18.5322 101.378C16.9393 99.7218 15.327 97.6823 13.6896 95.2619C12.0542 92.8416 10.844 90.168 10.0592 87.247C9.27429 84.326 8.88184 81.0744 8.88184 77.498C8.88184 68.1221 11.7043 60.8901 17.3549 55.8098C23.0017 50.7294 30.7982 48.1679 40.7425 48.1215C58.5392 48.1215 67.5014 58.6786 67.6329 79.7888L44.6049 82.0777C44.6049 79.2417 44.5701 77.1172 44.5044 75.6982C44.4406 74.2812 44.255 72.8197 43.9496 71.3157C43.6441 69.8098 43.1531 68.762 42.4765 68.1743C41.7999 67.5847 40.8971 67.2928 39.7623 67.2928C38.1481 67.3353 36.9264 68.1878 36.099 69.8426C35.2696 71.5013 34.8559 73.1812 34.8559 74.8805C34.8559 75.7968 34.9313 76.69 35.0841 77.5637C35.2368 78.4375 35.3798 79.2108 35.5093 79.8855C35.6408 80.5621 35.9231 81.3025 36.36 82.1105C36.7949 82.9186 37.1216 83.5624 37.342 84.0399C37.5585 84.5212 37.9954 85.1534 38.6508 85.9382C39.3042 86.7231 39.7391 87.2683 39.9576 87.5737C40.176 87.8791 40.6999 88.4243 41.5293 89.2092C42.3566 89.994 42.8593 90.4638 43.0333 90.6165C43.2073 90.7692 43.7737 91.2719 44.7345 92.1205C45.6933 92.9711 46.2172 93.4409 46.3042 93.5279L52.5851 99.0877C55.2451 101.487 57.5031 103.733 59.357 105.829C61.2109 107.92 62.9875 110.331 64.6887 113.057C66.3899 115.783 67.6658 118.748 68.5164 121.955C69.367 125.16 69.7922 128.617 69.7922 132.325C69.7922 140.133 67.1206 146.696 61.7773 152.018C56.434 157.34 49.4011 160 40.6787 160" fill="#C7C8D7"/>
<path d="M81.3721 158.299V49.8227H132.143V67.6195H107.936V91.8247H125.994V110.275H107.936V140.57H132.404V158.299H81.3721" fill="#C7C8D7"/>
<path d="M175.125 141.614C176.567 141.614 177.743 141.3 178.661 140.666C179.575 140.032 180.229 139.106 180.625 137.885C181.015 136.665 181.267 135.551 181.377 134.55C181.483 133.546 181.539 132.303 181.539 130.821V77.237C181.539 75.7543 181.483 74.5112 181.377 73.5079C181.267 72.5046 181.015 71.4046 180.625 70.2041C180.229 69.0056 179.575 68.0873 178.661 67.4552C177.743 66.823 176.567 66.506 175.125 66.506C173.948 66.506 172.946 66.7457 172.117 67.2271C171.288 67.7065 170.667 68.2632 170.251 68.8954C169.84 69.5275 169.521 70.3994 169.304 71.5129C169.088 72.6245 168.964 73.5389 168.943 74.2599C168.921 74.981 168.912 75.9727 168.912 77.237V130.821C168.912 132.042 168.921 133.023 168.943 133.763C168.964 134.507 169.088 135.433 169.304 136.545C169.521 137.656 169.84 138.528 170.251 139.162C170.667 139.793 171.288 140.361 172.117 140.862C172.946 141.364 173.948 141.614 175.125 141.614V141.614ZM190.994 157.613C186.608 159.204 181.321 160 175.125 160C168.935 160 163.655 159.204 159.294 157.613C154.933 156.02 151.467 153.642 148.894 150.479C146.317 147.316 144.465 143.587 143.33 139.292C142.195 134.998 141.631 129.926 141.631 124.08V84.0399C141.631 78.1978 142.195 73.1252 143.33 68.8297C144.465 64.5342 146.317 60.8051 148.894 57.6424C151.467 54.4797 154.933 52.1019 159.294 50.5109C163.655 48.9199 168.935 48.1215 175.125 48.1215C181.321 48.1215 186.608 48.9199 190.994 50.5109C195.375 52.1019 198.864 54.4797 201.461 57.6424C204.057 60.8051 205.932 64.5342 207.086 68.8297C208.242 73.1252 208.82 78.1978 208.82 84.0399V124.08C208.82 129.926 208.242 134.998 207.086 139.292C205.932 143.587 204.057 147.316 201.461 150.479C198.864 153.642 195.375 156.02 190.994 157.613Z" fill="#C7C8D7"/>
<path d="M113.068 18.4494C113.068 18.4494 116.122 29.4646 117.624 31.2682C119.126 33.07 124.033 35.7242 124.033 35.7242L122.732 38.0286C122.732 38.0286 113.814 33.4837 112.265 29.7662C111.365 27.601 110.765 25.7317 110.464 24.0575C110.218 22.6946 109.209 19.3019 109.712 17.9487C110.04 17.0672 112.366 16.5974 113.068 18.4494Z" fill="#49C3D0"/>
<path d="M122.731 38.0286C122.731 38.0286 117.515 35.3704 114.37 32.4571C114.821 31.1097 115.542 29.4897 116.095 28.0205C116.657 29.5303 117.202 30.7618 117.624 31.2682C119.126 33.07 124.032 35.7242 124.032 35.7242L122.731 38.0286Z" fill="#3A90B9"/>
<path d="M143.671 71.0318L145.921 68.9285C145.921 68.9285 154.924 68.2674 155.45 69.0561C155.976 69.8468 146.913 74.121 145.749 74.0437C144.587 73.9664 143.824 71.8998 143.671 71.0318Z" fill="#14162E"/>
<path d="M127.169 40.5785C127.169 40.5785 135.683 38.4114 136.383 39.8129C137.085 41.2164 145.921 68.9284 145.921 68.9284L143.671 71.0317C143.671 71.0317 134.195 47.6403 131.449 45.1968C128.706 42.7514 125.901 41.5431 127.169 40.5785" fill="#F46F5C"/>
<path d="M127.169 40.5785C127.169 40.5785 135.683 38.4114 136.383 39.8129C137.085 41.2164 145.921 68.9284 145.921 68.9284L143.671 71.0317C143.671 71.0317 134.195 47.6403 131.449 45.1968C128.706 42.7514 125.901 41.5431 127.169 40.5785" fill="#E84A3F"/>
<path d="M122.782 35.4749C123.428 35.3009 123.961 35.0882 124.551 34.7635C125.025 34.5044 125.483 34.257 126.053 34.3382C126.457 34.3961 129.73 35.7591 128.858 36.3661C128.576 36.5652 127.87 36.2191 127.588 36.1167C127.186 35.9736 126.782 35.7764 126.397 35.6063C126.749 35.5889 128.518 36.3371 128.332 36.7508C128.006 37.4776 126.216 36.5072 125.798 36.2733C126.117 36.3235 127.225 36.7392 127.223 37.1432C127.221 37.7773 125.904 37.2476 125.618 37.1007C125.407 36.9943 125.249 36.8416 125.019 36.8088C124.744 36.772 124.478 36.8957 124.217 36.9518C123.766 37.0465 123.283 37.0214 122.823 36.9789C122.55 36.9518 121.914 37.0098 121.779 36.7759C121.636 36.5285 121.744 35.9659 121.955 35.7842C122.181 35.5889 122.49 35.5522 122.782 35.4749Z" fill="#F46F5C"/>
<path d="M122.782 35.4749C123.428 35.3009 123.961 35.0882 124.551 34.7635C125.025 34.5044 125.483 34.257 126.053 34.3382C126.457 34.3961 129.73 35.7591 128.858 36.3661C128.576 36.5652 127.87 36.2191 127.588 36.1167C127.186 35.9736 126.782 35.7764 126.397 35.6063C126.749 35.5889 128.518 36.3371 128.332 36.7508C128.006 37.4776 126.216 36.5072 125.798 36.2733C126.117 36.3235 127.225 36.7392 127.223 37.1432C127.221 37.7773 125.904 37.2476 125.618 37.1007C125.407 36.9943 125.249 36.8416 125.019 36.8088C124.744 36.772 124.478 36.8957 124.217 36.9518C123.766 37.0465 123.283 37.0214 122.823 36.9789C122.55 36.9518 121.914 37.0098 121.779 36.7759C121.636 36.5285 121.744 35.9659 121.955 35.7842C122.181 35.5889 122.49 35.5522 122.782 35.4749Z" fill="#E84A3F"/>
<path d="M137.528 20.7614L139.529 21.583L132.653 38.1793L130.627 37.0852L137.528 20.7614" fill="#14162E"/>
<path d="M118.266 38.8306H131.361V36.7969H118.266V38.8306Z" fill="#14162E"/>
<path d="M95.1096 27.3362C96.8611 26.3348 97.1549 25.229 96.1845 21.5637C95.214 17.9004 97.7523 14.0998 100.194 13.0945C101.988 12.3561 103.563 12.0293 104.656 10.1174C105.746 8.20553 103.677 4.12848 107.134 1.10886C109.651 -1.09302 113.264 0.664224 113.264 0.664224C114.041 0.23506 114.36 4.76641 114.416 8.17459C110.041 14.8711 111.288 23.6226 112.883 31.1175C112.922 31.3031 112.984 31.4616 113.044 31.622C112.7 37.4235 112.423 42.2274 112.423 42.2274C112.423 42.2274 101.905 48.1816 94.752 43.0838C87.5992 37.9861 91.6009 29.3448 95.1096 27.3362" fill="#14162E"/>
<path d="M126.035 69.6573L128.707 71.1922C128.707 71.1922 131.978 79.6054 131.377 80.34C130.775 81.0746 124.032 73.6628 123.766 72.5281C123.499 71.3933 125.25 70.0575 126.035 69.6573Z" fill="#14162E"/>
<path d="M122.631 40.0817C122.631 40.0817 139.79 41.2821 141.391 42.819C142.993 44.3539 128.427 71.0317 128.427 71.0317L126.035 69.6573C126.035 69.6573 129.641 56.9718 130.577 54.0353C131.51 51.0969 133.314 47.5592 132.979 47.0913C132.645 46.6235 115.353 49.2275 115.488 44.354C115.621 39.4804 122.631 40.0817 122.631 40.0817" fill="#F46F5C"/>
<path d="M114.17 11.1381C114.17 11.1381 112.366 16.0464 113.468 19.7001L107.46 18.2483C107.46 18.2483 109.919 10.0361 110.969 8.6346C112.02 7.23305 114.17 11.1381 114.17 11.1381Z" fill="#F46F5C"/>
<path d="M111.667 15.5458C109.699 15.5458 108.678 16.9996 108.585 18.521L107.46 18.2484C107.46 18.2484 109.919 10.0363 110.969 8.63475C112.02 7.2332 114.17 11.1382 114.17 11.1382C114.17 11.1382 113.362 13.3459 113.161 15.9015C112.741 15.6831 112.248 15.5458 111.667 15.5458" fill="#E84A3F"/>
<path d="M114.79 4.74337C114.79 4.74337 117.125 5.85881 117.682 6.79834C118.241 7.73979 117.751 9.04082 117.798 9.90109C117.844 10.7594 118.082 12.0372 117.953 12.246C117.821 12.4567 116.963 12.246 116.824 12.4316C116.684 12.6191 115.569 13.3151 115.219 14.1057C114.871 14.8945 114.407 14.9641 113.593 14.5697C112.781 14.1753 109.667 10.0635 109.632 8.13416C109.597 6.20679 112.478 3.9527 114.79 4.74337" fill="#F46F5C"/>
<path d="M112.813 2.12571C112.813 2.12571 113.903 4.30441 114.015 5.16854C114.127 6.03267 113.302 8.58638 112.813 8.92468C112.325 9.26299 112.739 6.0694 111.498 7.04758C110.259 8.02383 111.573 9.86422 111.498 10.2393C111.423 10.6143 110.86 11.8167 109.582 11.9288C108.306 12.0429 106.203 5.69435 107.593 4.11688C108.983 2.53942 111.349 2.12571 112.813 2.12571Z" fill="#14162E"/>
<path d="M112.6 0.849902C112.6 0.849902 114.653 -0.690819 116.795 1.03744C118.935 2.76569 118.859 5.35613 120.626 5.13188C120.626 5.13188 119.461 8.13603 116.907 7.42269C114.353 6.70935 111.711 2.65162 112.6 0.849902Z" fill="#14162E"/>
<path d="M105.606 34.8057L113.565 34.2045C113.565 34.2045 117.708 38.8305 121.796 38.8305C125.837 38.8305 135.785 38.8305 135.785 38.8305C135.785 38.8305 135.029 45.2139 131.661 49.8322C131.661 49.8322 118.373 50.2498 111.897 49.7143C105.421 49.1807 99.2654 42.0396 105.606 34.8057" fill="#EF3363"/>
<path d="M104.863 35.7397C105.091 35.4304 105.333 35.1192 105.606 34.806L113.564 34.2048C113.564 34.2048 117.597 38.6994 121.634 38.8193C116.758 39.3122 107.444 40.3909 104.863 35.7397Z" fill="#EC1E4B"/>
<path d="M132.09 39.7644C130.062 39.5673 128.094 39.082 126.097 38.8307H134.871C134.005 39.2754 133.578 39.9114 132.09 39.7644Z" fill="#EC1E4B"/>
<path d="M108.223 15.4781C108.223 15.4781 111.877 16.9145 113.114 17.0479C113.114 17.0479 115.687 22.7217 116.688 24.2586C117.69 25.7935 114.15 31.6684 113.951 34.2048C113.951 34.2048 111.823 36.2365 105.377 34.9877C105.377 34.9877 103.694 19.0487 108.223 15.4781" fill="#49C3D0"/>
<path d="M106.104 35.3936H112.47V34.9503H106.104V35.3936Z" fill="#431535"/>
<path d="M105.376 34.9836C105.376 34.9817 105.376 34.9817 105.376 34.9817C105.376 34.9817 105.376 34.9817 105.376 34.9836ZM105.372 34.9411C105.372 34.9392 105.372 34.9372 105.372 34.9353C105.372 34.9372 105.372 34.9392 105.372 34.9411ZM105.372 34.9295C105.372 34.9295 105.372 34.9295 105.37 34.9295C105.372 34.9295 105.372 34.9295 105.372 34.9295Z" fill="#101327"/>
<path d="M109.238 35.3936C108.345 35.3936 107.307 35.3143 106.104 35.1171C105.868 35.0784 105.625 35.0359 105.377 34.9876C105.375 34.9857 105.375 34.9857 105.375 34.9837C105.375 34.9818 105.375 34.9818 105.375 34.9818C105.375 34.9741 105.374 34.9605 105.372 34.9412C105.372 34.9392 105.372 34.9373 105.372 34.9354C105.372 34.9335 105.372 34.9315 105.372 34.9296C105.372 34.9296 105.372 34.9296 105.37 34.9296C105.29 34.1177 104.428 24.9989 106.058 19.3076C106.522 19.1491 106.953 19.0003 107.245 18.8669C107.537 18.7335 107.887 18.6697 108.252 18.6697C109.284 18.6697 110.45 19.1723 110.85 19.9997C111.525 21.3877 110.833 23.8506 110.914 25.3507C110.999 26.9282 111.1 29.0257 111.498 30.5626C111.809 31.7611 112.592 33.2439 113.597 34.454C113.359 34.599 112.992 34.7827 112.47 34.9509C111.728 35.1906 110.672 35.3936 109.238 35.3936" fill="#3A90B9"/>
<path d="M121.529 35.4749C122.175 35.3009 122.709 35.0882 123.298 34.7635C123.774 34.5044 124.23 34.257 124.8 34.3382C125.206 34.3961 128.477 35.7591 127.605 36.3661C127.323 36.5652 126.617 36.2191 126.335 36.1167C125.935 35.9736 125.531 35.7764 125.144 35.6063C125.496 35.5889 127.267 36.3371 127.079 36.7508C126.755 37.4776 124.963 36.5072 124.545 36.2733C124.864 36.3235 125.972 36.7392 125.97 37.1432C125.968 37.7773 124.651 37.2476 124.367 37.1007C124.155 36.9943 123.998 36.8416 123.766 36.8088C123.491 36.772 123.225 36.8957 122.966 36.9518C122.513 37.0465 122.03 37.0214 121.57 36.9789C121.297 36.9518 120.663 37.0098 120.528 36.7759C120.385 36.5285 120.493 35.9659 120.704 35.7842C120.93 35.5889 121.239 35.5522 121.529 35.4749" fill="#F46F5C"/>
<path d="M122.081 35.3936L121.381 38.0286C121.381 38.0286 104.155 36.0258 103.754 32.9714C103.354 29.917 104.456 15.6966 108.612 17.1735C112.767 18.6504 108.661 28.9639 109.312 29.7662C109.964 30.5665 122.081 35.3936 122.081 35.3936Z" fill="#49C3D0"/>
<path d="M207.817 102.013H180.219C175.065 102.013 171.38 97.6552 173.014 93.4293L173.097 93.2186C175.695 87.508 183.366 89.012 185.398 91.6643C185.398 91.6643 180.215 82.273 191.286 82.273C200.573 82.273 197.698 91.4014 197.698 91.4014C197.698 91.4014 199.446 84.3608 204.899 84.8963C213.732 85.7624 208.48 94.5564 208.48 94.5564C208.48 94.5564 217.33 92.5671 217.243 97.3285C217.154 102.092 207.817 102.013 207.817 102.013Z" fill="#52C6DA"/>
<path d="M36.2804 104.996H17.3469C13.8111 104.996 11.2825 102.007 12.4018 99.1072L12.4598 98.9622C14.2422 95.0436 19.5062 96.076 20.9 97.897C20.9 97.897 17.343 91.4538 24.9384 91.4538C31.3121 91.4538 29.3383 97.7172 29.3383 97.7172C29.3383 97.7172 30.5369 92.8843 34.2795 93.2516C40.34 93.847 36.7366 99.8804 36.7366 99.8804C36.7366 99.8804 42.8087 98.5156 42.7487 101.783C42.6869 105.05 36.2804 104.996 36.2804 104.996Z" fill="#52C6DA"/>
<path d="M107.346 137.863H68.9489C61.7788 137.863 56.6539 131.799 58.9235 125.92L59.0395 125.626C62.6564 117.681 73.3275 119.775 76.1558 123.465C76.1558 123.465 68.9431 110.399 84.3466 110.399C97.2699 110.399 93.2702 123.1 93.2702 123.1C93.2702 123.1 95.7002 113.302 103.288 114.047C115.577 115.253 108.27 127.488 108.27 127.488C108.27 127.488 120.584 124.72 120.462 131.345C120.338 137.973 107.346 137.863 107.346 137.863Z" fill="#52C6DA"/>
<path d="M33.8137 57.981C29.553 57.981 26.0984 54.5264 26.0984 50.2657C26.0984 46.005 29.553 42.5504 33.8137 42.5504C38.0744 42.5504 41.529 46.005 41.529 50.2657C41.529 54.5264 38.0744 57.981 33.8137 57.981ZM48.413 52.1969C48.4961 51.5629 48.5541 50.9211 48.5541 50.2657C48.5541 49.6104 48.4961 48.9686 48.413 48.3345L45.4359 47.8686C45.3431 47.4124 45.2155 46.9716 45.0706 46.5366L47.4329 44.6305C46.9341 43.4281 46.273 42.3127 45.49 41.2939L42.6657 42.3842C42.3602 42.042 42.0374 41.7192 41.6952 41.4157L42.7855 38.5894C41.7687 37.8064 40.6532 37.1453 39.4489 36.6485L37.5428 39.0088C37.1097 38.8658 36.667 38.7382 36.2127 38.6435L35.7449 35.6683C35.1128 35.5852 34.471 35.5272 33.8137 35.5272C33.1584 35.5272 32.5165 35.5852 31.8825 35.6683L31.4166 38.6435C30.9623 38.7382 30.5196 38.8658 30.0846 39.0088L28.1804 36.6485C26.9761 37.1453 25.8606 37.8064 24.8438 38.5894L25.9341 41.4157C25.5919 41.7192 25.2691 42.042 24.9636 42.3842L22.1393 41.2939C21.3563 42.3127 20.6952 43.4281 20.1964 44.6305L22.5568 46.5366C22.4138 46.9716 22.2862 47.4124 22.1934 47.8686L19.2163 48.3345C19.1332 48.9686 19.0752 49.6104 19.0752 50.2657C19.0752 50.9211 19.1332 51.5629 19.2163 52.1969L22.1934 52.6628C22.2862 53.1191 22.4138 53.5598 22.5568 53.9948L20.1964 55.9009C20.6952 57.1033 21.3563 58.2188 22.1393 59.2376L24.9636 58.1473C25.2691 58.4894 25.5919 58.8123 25.9341 59.1158L24.8438 61.9421C25.8606 62.725 26.9761 63.3862 28.1804 63.8849L30.0846 61.5226C30.5196 61.6656 30.9623 61.7932 31.4166 61.886L31.8825 64.8631C32.5165 64.9462 33.1584 65.0042 33.8137 65.0042C34.471 65.0042 35.1128 64.9462 35.7449 64.8631L36.2127 61.886C36.667 61.7932 37.1097 61.6656 37.5428 61.5226L39.4489 63.8849C40.6532 63.3862 41.7687 62.725 42.7855 61.9421L41.6952 59.1158C42.0374 58.8123 42.3602 58.4894 42.6657 58.1473L45.49 59.2376C46.273 58.2188 46.9341 57.1033 47.4329 55.9009L45.0706 53.9948C45.2155 53.5598 45.3431 53.1191 45.4359 52.6628L48.413 52.1969Z" fill="#EF3363"/>
<path d="M33.8138 55.6592C30.8348 55.6592 28.4202 53.2447 28.4202 50.2656C28.4202 47.2866 30.8348 44.8721 33.8138 44.8721C36.7928 44.8721 39.2092 47.2866 39.2092 50.2656C39.2092 53.2447 36.7928 55.6592 33.8138 55.6592ZM33.8138 41.5896C29.0234 41.5896 25.1377 45.4733 25.1377 50.2656C25.1377 55.058 29.0234 58.9417 33.8138 58.9417C38.6061 58.9417 42.4899 55.058 42.4899 50.2656C42.4899 45.4733 38.6061 41.5896 33.8138 41.5896Z" fill="#14162E"/>
<path d="M159.451 128.6C154.974 126.997 152.643 122.067 154.247 117.588C155.85 113.111 160.779 110.78 165.257 112.384C169.734 113.987 172.065 118.916 170.463 123.393C168.86 127.871 163.93 130.202 159.451 128.6V128.6ZM176.968 128.012C177.294 127.378 177.596 126.724 177.843 126.036C178.091 125.346 178.271 124.65 178.421 123.952L175.469 122.344C175.541 121.83 175.574 121.317 175.587 120.807L178.785 119.691C178.713 118.24 178.439 116.819 177.998 115.456L174.619 115.537C174.427 115.065 174.211 114.603 173.965 114.155L176.173 111.595C175.4 110.391 174.476 109.276 173.399 108.299L170.507 110.064C170.105 109.749 169.689 109.45 169.245 109.181L169.875 105.877C169.241 105.55 168.587 105.249 167.899 105.001C167.209 104.756 166.513 104.574 165.815 104.423L164.207 107.377C163.693 107.304 163.18 107.271 162.67 107.259L161.555 104.06C160.103 104.131 158.682 104.406 157.319 104.847L157.402 108.226C156.928 108.417 156.466 108.636 156.018 108.879L153.458 106.672C152.254 107.447 151.139 108.369 150.162 109.448L151.927 112.338C151.612 112.74 151.313 113.157 151.044 113.6L147.74 112.97C147.413 113.604 147.112 114.257 146.864 114.947C146.619 115.636 146.437 116.332 146.286 117.029L149.24 118.64C149.167 119.152 149.134 119.664 149.122 120.175L145.923 121.29C145.994 122.742 146.269 124.163 146.71 125.526L150.089 125.445C150.28 125.918 150.499 126.378 150.742 126.827L148.535 129.386C149.31 130.593 150.232 131.706 151.311 132.682L154.201 130.917C154.603 131.233 155.02 131.532 155.463 131.801L154.833 135.107C155.467 135.431 156.12 135.733 156.81 135.98C157.499 136.228 158.195 136.408 158.893 136.558L160.503 133.606C161.015 133.678 161.527 133.711 162.038 133.724L163.153 136.922C164.605 136.85 166.026 136.576 167.391 136.135L167.308 132.756C167.781 132.564 168.241 132.348 168.69 132.102L171.249 134.31C172.456 133.537 173.569 132.613 174.545 131.536L172.78 128.644C173.096 128.242 173.395 127.826 173.664 127.382L176.968 128.012" fill="#52C6DA"/>
<path d="M160.324 126.16C157.192 125.039 155.564 121.592 156.683 118.462C157.805 115.33 161.252 113.703 164.381 114.822C167.513 115.943 169.143 119.39 168.022 122.52C166.9 125.652 163.453 127.281 160.324 126.16ZM165.617 111.373C160.581 109.571 155.038 112.191 153.235 117.227C151.433 122.263 154.054 127.805 159.088 129.609C164.124 131.41 169.669 128.791 171.47 123.755C173.272 118.719 170.653 113.177 165.617 111.373Z" fill="#14162E"/>
<path d="M17.6079 49.1539H15.4775V47.9109H17.6079V49.1539Z" fill="#14162E"/>
<path d="M5.50381 49.1539H3.50879V47.9109H5.50381V49.1539ZM9.49388 49.1539H7.49692V47.9109H9.49388V49.1539ZM13.482 49.1539H11.487V47.9109H13.482V49.1539Z" fill="#14162E"/>
<path d="M1.24689 49.4226H0V47.9109H1.51367V49.1539H1.24689V49.4226" fill="#14162E"/>
<path d="M1.24689 52.9237H0V51.1722H1.24689V52.9237ZM1.24689 56.4246H0V54.6732H1.24689V56.4246ZM1.24689 59.9256H0V58.1742H1.24689V59.9256ZM1.24689 63.4266H0V61.6771H1.24689V63.4266ZM1.24689 66.9276H0V65.1781H1.24689V66.9276ZM1.24689 70.4286H0V68.679H1.24689V70.4286ZM1.24689 73.9315H0V72.18H1.24689V73.9315ZM1.24689 77.4324H0V75.681H1.24689V77.4324ZM1.24689 80.9334H0V79.182H1.24689V80.9334Z" fill="#14162E"/>
<path d="M1.51367 84.1967H0V82.6831H1.24689V82.9518H1.51367V84.1967" fill="#14162E"/>
<path d="M5.02484 84.1967H3.26953V82.9518H5.02484V84.1967ZM8.53743 84.1967H6.78209V82.9518H8.53743V84.1967ZM12.0481 84.1967H10.2927V82.9518H12.0481V84.1967ZM15.5587 84.1967H13.8034V82.9518H15.5587V84.1967ZM19.0713 84.1967H17.3159V82.9518H19.0713V84.1967ZM22.5819 84.1967H20.8266V82.9518H22.5819V84.1967ZM26.0926 84.1967H24.3372V82.9518H26.0926V84.1967ZM29.6051 84.1967H27.8479V82.9518H29.6051V84.1967Z" fill="#14162E"/>
<path d="M32.8721 84.4634H31.6271V84.1967H31.3604V82.9517H32.8721V84.4634" fill="#14162E"/>
<path d="M32.8719 87.8443H31.627V86.1547H32.8719V87.8443ZM32.8719 91.2254H31.627V89.5339H32.8719V91.2254ZM32.8719 94.6046H31.627V92.915H32.8719V94.6046ZM32.8719 97.9838H31.627V96.2942H32.8719V97.9838Z" fill="#14162E"/>
<path d="M33.1387 101.185H31.627V99.6734H32.8719V99.9402H33.1387V101.185" fill="#14162E"/>
<path d="M36.7674 101.185H34.9541V99.9402H36.7674V101.185ZM40.3941 101.185H38.5807V99.9402H40.3941V101.185ZM44.0207 101.185H42.2074V99.9402H44.0207V101.185ZM47.6473 101.185H45.834V99.9402H47.6473V101.185ZM51.274 101.185H49.4606V99.9402H51.274V101.185ZM54.9025 101.185H53.0873V99.9402H54.9025V101.185ZM58.5292 101.185H56.7139V99.9402H58.5292V101.185ZM62.1558 101.185H60.3405V99.9402H62.1558V101.185ZM65.7824 101.185H63.9691V99.9402H65.7824V101.185Z" fill="#14162E"/>
<path d="M69.1065 101.452H67.8615V101.185H67.5947V99.9403H69.1065V101.452" fill="#14162E"/>
<path d="M69.1073 105.176H67.8623V103.314H69.1073V105.176ZM69.1073 108.901H67.8623V107.039H69.1073V108.901ZM69.1073 112.624H67.8623V110.762H69.1073V112.624ZM69.1073 116.349H67.8623V114.488H69.1073V116.349ZM69.1073 120.073H67.8623V118.211H69.1073V120.073ZM69.1073 123.798H67.8623V121.936H69.1073V123.798ZM69.1073 127.521H67.8623V125.659H69.1073V127.521Z" fill="#14162E"/>
<path d="M69.374 130.896H67.8623V129.384H69.1073V129.653H69.374V130.896" fill="#14162E"/>
<path d="M72.8396 130.896H71.1074V129.653H72.8396V130.896ZM76.3077 130.896H74.5736V129.653H76.3077V130.896ZM79.7738 130.896H78.0398V129.653H79.7738V130.896ZM83.24 130.896H81.5079V129.653H83.24V130.896ZM86.7062 130.896H84.9741V129.653H86.7062V130.896ZM90.1743 130.896H88.4403V129.653H90.1743V130.896ZM93.6405 130.896H91.9064V129.653H93.6405V130.896ZM97.1067 130.896H95.3745V129.653H97.1067V130.896ZM100.573 130.896H98.8407V129.653H100.573V130.896ZM104.041 130.896H102.307V129.653H104.041V130.896ZM107.507 130.896H105.773V129.653H107.507V130.896ZM110.973 130.896H109.241V129.653H110.973V130.896Z" fill="#14162E"/>
<path d="M114.222 130.896H112.708V129.653H112.975V129.384H114.222V130.896" fill="#14162E"/>
<path d="M114.221 92.1438H112.975V90.3691H114.221V92.1438ZM114.221 95.6911H112.975V93.9184H114.221V95.6911ZM114.221 99.2366H112.975V97.4639H114.221V99.2366ZM114.221 102.784H112.975V101.011H114.221V102.784ZM114.221 106.331H112.975V104.557H114.221V106.331ZM114.221 109.879H112.975V108.106H114.221V109.879ZM114.221 113.424H112.975V111.651H114.221V113.424ZM114.221 116.972H112.975V115.197H114.221V116.972ZM114.221 120.519H112.975V118.744H114.221V120.519ZM114.221 124.066H112.975V122.292H114.221V124.066ZM114.221 127.612H112.975V125.839H114.221V127.612Z" fill="#14162E"/>
<path d="M114.221 88.5966H112.975V87.0849H114.488V88.3298H114.221V88.5966" fill="#14162E"/>
<path d="M118.019 88.3297H116.254V87.0848H118.019V88.3297ZM121.551 88.3297H119.784V87.0848H121.551V88.3297ZM125.081 88.3297H123.316V87.0848H125.081V88.3297ZM128.613 88.3297H126.846V87.0848H128.613V88.3297ZM132.143 88.3297H130.378V87.0848H132.143V88.3297ZM135.673 88.3297H133.91V87.0848H135.673V88.3297ZM139.205 88.3297H137.44V87.0848H139.205V88.3297ZM142.736 88.3297H140.97V87.0848H142.736V88.3297ZM146.266 88.3297H144.5V87.0848H146.266V88.3297ZM149.796 88.3297H148.031V87.0848H149.796V88.3297ZM153.328 88.3297H151.563V87.0848H153.328V88.3297ZM156.858 88.3297H155.093V87.0848H156.858V88.3297ZM160.39 88.3297H158.625V87.0848H160.39V88.3297Z" fill="#14162E"/>
<path d="M163.666 88.5966H162.423V88.3298H162.154V87.0849H163.666V88.5966" fill="#14162E"/>
<path d="M163.666 92.0489H162.423V90.3226H163.666V92.0489ZM163.666 95.5035H162.423V93.7772H163.666V95.5035ZM163.666 98.9561H162.423V97.2298H163.666V98.9561Z" fill="#14162E"/>
<path d="M163.666 102.38H162.423V100.682H163.666V102.38Z" fill="#14162E"/>
</svg>
