<svg width="216" height="167" viewBox="0 0 216 167" fill="none" xmlns="http://www.w3.org/2000/svg">
<path d="M86.9729 127.397C79.1165 118.479 55.9112 106.354 62.0092 92.4466C67.1935 80.6176 92.0825 82.0754 89.0871 67.8126C87.3145 59.377 85.0164 52.1776 90.4292 42.585C96.327 32.1365 113.954 37.8253 120.064 28.123C125.315 19.789 118.489 6.91091 129.333 1.34407C138.962 -3.59857 150.594 6.05698 152.33 14.6146C154.499 25.3132 143.966 30.3432 142.614 39.6552C141.753 45.5839 147.122 47.6496 150.198 51.8014C153.143 55.7762 155.788 61.4936 155.985 66.4159C156.569 81.2113 140.452 83.1245 132.81 92.532C125.733 101.242 138.784 106.858 136.828 116.33C134.718 126.553 120.25 132.134 110.067 131.984C103.007 131.878 91.8399 132.925 86.9729 127.397Z" fill="#52C6DA"/>
<path d="M97.5328 132.988L97.3456 132.929C97.0121 132.771 96.9002 132.407 97.0975 132.116C97.2399 131.903 111.722 109.988 112.558 82.4509C113.114 64.0912 120.694 52.3447 126.915 42.7064C130.671 36.8874 133.946 31.8094 134.449 26.7231C134.491 26.3076 134.87 25.9842 135.297 26.0006C135.74 26.017 136.035 26.3751 135.997 26.7886C135.447 32.2371 132.073 37.4523 128.206 43.4289C122.078 52.8994 114.6 64.4515 114.029 82.4345C113.138 110.31 98.446 132.47 98.3016 132.685C98.1409 132.925 97.8236 133.039 97.5328 132.988Z" fill="white"/>
<path d="M113.549 81.9578C113.2 81.8899 112.964 81.6023 113.005 81.2748C113.047 80.9154 113.411 80.6418 113.819 80.6657C119.969 81.0252 128.188 77.5065 130.673 71.6353C130.973 70.9304 131.27 70.1476 131.585 69.3268C133.088 65.3867 134.977 60.4402 138.928 58.6589C140.862 57.7902 143.102 57.7862 145.552 58.613C145.934 58.7428 146.103 59.1342 145.936 59.4896C145.766 59.8451 145.348 60.0089 144.948 59.901C142.843 59.1901 141.081 59.1801 139.522 59.8791C136.172 61.3888 134.402 66.0118 132.988 69.6983C132.668 70.533 132.36 71.3298 132.058 72.0467C129.226 78.7047 120.326 82.3612 113.657 81.9718L113.549 81.9578Z" fill="white"/>
<path d="M109.491 81.5365C106.557 80.9058 104.328 79.6765 102.851 77.8606C100.505 74.9816 100.136 70.641 101.815 65.2794C101.983 64.7488 102.194 64.1321 102.427 63.4594C103.744 59.6294 105.756 53.7812 103.775 50.5338C103.117 49.4547 102.069 48.7559 100.572 48.3976C100.155 48.2955 99.9096 47.907 100.031 47.5286C100.153 47.1522 100.587 46.926 101.004 47.0221L101.012 47.0241C102.911 47.4826 104.308 48.4276 105.165 49.8351C107.45 53.593 105.312 59.7776 103.911 63.8258C103.685 64.4845 103.475 65.0871 103.312 65.6097C101.75 70.5649 102.035 74.5211 104.11 77.0758C105.882 79.2541 108.986 80.4634 113.315 80.6856C113.751 80.7036 114.036 81.0199 113.996 81.3783C113.952 81.7407 113.583 82.019 113.166 81.999C111.837 81.9309 110.613 81.7767 109.491 81.5365Z" fill="white"/>
<path d="M105.625 123.849C104.78 123.701 103.989 123.433 103.284 123.022C102.974 122.841 102.907 122.477 103.137 122.211C103.367 121.944 103.795 121.867 104.116 122.055C107.758 124.181 115.166 121.418 118.318 119.266C119.632 118.367 120.813 116.808 122.064 115.148C124.306 112.186 126.637 109.1 130.317 109.002C130.723 108.975 131.014 109.248 131 109.578C130.985 109.913 130.662 110.19 130.275 110.198C127.373 110.28 125.262 113.067 123.232 115.744C121.91 117.49 120.667 119.131 119.16 120.159C116.333 122.09 110.158 124.65 105.625 123.849Z" fill="white"/>
<path d="M99.7752 122.868C98.9173 122.71 98.0774 122.412 97.2598 121.974C92.68 119.524 89.9652 113.249 89.2563 109.594C88.8797 107.63 89.4637 105.036 90.084 102.276C91.0769 97.8652 92.1121 93.2604 89.2604 91.1627C88.9522 90.9377 88.912 90.5242 89.1697 90.2405C89.4275 89.9587 89.8887 89.9223 90.1988 90.1432C93.7071 92.7314 92.5249 97.9463 91.4918 102.501C90.8916 105.141 90.3318 107.622 90.6641 109.355C91.3005 112.665 93.8582 118.695 98.0251 120.93C99.6423 121.796 101.36 122.002 103.126 121.542C103.495 121.449 103.88 121.627 103.978 121.95C104.073 122.274 103.849 122.61 103.477 122.708C102.21 123.034 100.973 123.087 99.7752 122.868Z" fill="white"/>
<path d="M143.545 157.981C130.014 154.636 119.297 151.612 119.005 137.265C118.853 129.841 122.164 124.717 129.988 120.599C136.316 117.268 139.565 116.123 141.021 109.549C143.349 99.0322 138.276 88.6633 144.897 78.4913C152.28 67.1435 168.944 72.3178 176.636 62.0281C183.536 52.7984 187.32 40.8312 201.904 41.0018C214.178 41.144 219.183 53.9742 213.928 62.8749C210.972 67.8847 205.796 71.4142 203.696 76.7774C201.693 81.8969 203.893 86.0781 205.861 90.7529C210.211 101.079 211.27 111.722 199.429 118.546C192.354 122.623 186.898 126.203 189.449 133.851C192.129 141.891 193.33 146.474 183.579 152.526C176.291 157.048 169.644 156.681 161.274 157.028C153.428 157.355 142.945 159.508 135.537 156.106L143.545 157.981Z" fill="#DFE1E9"/>
<path d="M147.602 149.887C146.446 148.597 145.671 147.245 145.287 145.851C143.636 139.835 149.415 133.81 154.654 128.35C157.295 125.603 159.814 122.973 160.997 120.731C164.226 114.627 165.19 109.177 164.505 100.636C163.687 90.5107 166.435 86.3672 174.789 79.671C181.829 74.0158 188.791 67.7925 190.751 61.6259C190.901 61.145 191.52 60.8873 192.133 61.0476C192.742 61.2038 193.119 61.7233 192.966 62.2022C190.868 68.7603 183.662 75.1785 176.395 80.9757C168.305 87.4203 165.801 91.1599 166.562 100.794C167.136 108.073 166.714 114.375 162.871 121.595C161.604 123.983 159.01 126.668 156.299 129.476C151.238 134.717 145.646 140.507 147.122 145.892C147.69 147.97 149.267 149.873 151.947 151.713C152.382 152.026 152.532 152.503 152.253 152.793C151.976 153.081 151.392 153.067 150.945 152.76C149.608 151.837 148.492 150.879 147.602 149.887Z" fill="white"/>
<path d="M165.241 110.517C165.1 110.36 165.011 110.176 165.001 109.983C164.982 109.526 165.42 109.201 165.979 109.261C170.889 109.807 174.514 105.912 178.421 101.712C181.881 97.9958 185.517 94.0939 190.49 93.0278C191.055 92.9057 191.704 93.1975 191.922 93.6695C192.146 94.1477 191.871 94.63 191.304 94.748C186.944 95.6733 183.479 99.3703 180.183 102.889C176.128 107.214 172.02 111.604 166.059 110.931C165.731 110.892 165.434 110.733 165.241 110.517Z" fill="white"/>
<path d="M161.292 122.581L161.116 122.295C160.647 121.085 160.456 120.051 160.268 119.046C159.965 117.425 159.7 116.022 158.31 114.245C157.575 113.303 156.751 112.485 155.954 111.693C154.285 110.013 152.557 108.301 151.78 105.55C150.671 101.614 150.743 96.7183 152.006 90.9511C152.182 90.1469 152.589 89.0219 153.02 87.8238C153.639 86.0957 154.805 82.8648 154.418 82.1459C154.184 81.7134 154.347 81.22 154.813 81.0595C155.274 80.8971 155.849 81.0758 156.106 81.49C156.903 82.7186 156.173 84.9788 154.884 88.5224C154.465 89.6778 154.07 90.7703 153.91 91.4912C153.062 95.3212 152.336 100.814 153.639 105.444C154.283 107.759 155.689 109.156 157.326 110.783C158.166 111.62 159.038 112.495 159.864 113.543C161.545 115.681 161.865 117.425 162.179 119.107C162.351 120.045 162.531 121.016 162.948 122.094C163.12 122.535 162.848 122.939 162.34 122.994C161.954 123.036 161.541 122.862 161.292 122.581Z" fill="white"/>
<path d="M62.3313 155.785C47.3294 153.055 33.2823 154.213 27.2116 137.757C22.4046 124.733 33.6073 112.461 22.3335 103.511C15.5497 98.1262 4.84474 94.8952 2.47783 85.6889C0.013395 76.0957 12.2604 70.0186 10.0581 60.8163C8.2397 53.2102 -2.29256 52.7053 0.454279 42.8007C2.8923 34.0158 10.6066 31.8027 16.7362 33.5556C24.9341 35.901 25.6127 43.4175 31.0535 48.6355C34.6841 52.1169 39.8284 48.6172 45.1554 47.9759C50.4622 47.3366 57.2561 47.809 61.7502 50.1543C76.3459 57.7726 64.6495 73.9092 67.2988 87.0428C69.8628 99.7407 87.7051 92.0653 96.9228 101.604C107.689 112.744 99.566 132.008 88.9566 141.098C81.8883 147.155 72.4694 157.631 62.3313 155.785Z" fill="#C7C8D7"/>
<path d="M76.5787 152.883L76.3375 152.974C75.8532 153.09 75.3527 152.802 75.2189 152.336C75.1196 151.998 65.3825 119.34 41.6751 97.8333C28.3269 85.7298 25.1535 73.2256 22.6751 63.4545C21.2282 57.7525 19.9962 52.8985 17.1551 50.2732C16.9281 50.0597 16.9524 49.6326 17.2139 49.3134C17.4813 48.9819 17.8724 48.9087 18.1014 49.1161C21.1634 51.9305 22.4421 56.933 23.9457 62.8099C26.4099 72.4509 29.561 84.7903 42.7288 96.6417C66.9125 118.406 76.8644 151.581 76.9657 151.927C77.0771 152.309 76.909 152.696 76.5787 152.883Z" fill="white"/>
<path d="M42.1469 96.8336C41.8336 97.0652 41.4192 97.057 41.176 96.7969C40.91 96.5146 40.9492 96.0351 41.2687 95.7263C46.1482 90.9865 49.3188 81.8483 46.14 76.0907C45.7648 75.4121 45.3277 74.6909 44.8722 73.9351C42.7076 70.3696 40.0669 66.0098 41.4419 61.7617C42.116 59.6833 43.7095 57.802 46.1544 56.1584C46.5378 55.9024 46.9872 55.9634 47.1604 56.2925C47.3336 56.6237 47.1666 57.0686 46.7831 57.353C44.6722 58.763 43.3941 60.244 42.8478 61.9262C41.6769 65.5466 44.1754 69.6403 46.2142 72.9864C46.6842 73.7543 47.1315 74.4938 47.5191 75.1846C51.1658 81.7467 47.5706 91.6021 42.2397 96.7543L42.1469 96.8336Z" fill="white"/>
<path d="M38.7773 99.5269C36.2375 101.311 33.7549 102.13 31.3703 101.983C27.6729 101.754 24.3043 99.1544 21.6114 94.5296C21.348 94.0806 21.0581 93.5471 20.7417 92.9652C18.9594 89.7015 16.3134 84.8512 13.0734 84.4062C12.0179 84.2593 10.9828 84.5975 9.9089 85.4311C9.60878 85.6626 9.23316 85.6143 9.07391 85.3183C8.91466 85.0284 9.02081 84.6036 9.31481 84.37L9.32094 84.364C10.6786 83.3069 12.0628 82.8579 13.4388 83.0391C17.1974 83.5425 20.0149 88.6706 21.9115 92.1256C22.2259 92.6954 22.5138 93.2189 22.7731 93.6639C25.2802 97.9403 28.3344 100.33 31.6173 100.519C34.4837 100.683 37.5666 99.1745 40.7699 96.0195C41.0945 95.6974 41.5538 95.6913 41.8213 95.9672C42.0867 96.247 42.054 96.7222 41.7396 97.0303C40.7454 98.0068 39.7572 98.8383 38.7773 99.5269Z" fill="white"/>
<path d="M75.2244 136.826C74.2486 137.397 73.1955 137.801 72.0672 137.987C71.5699 138.067 71.0998 137.764 71.0141 137.304C70.9285 136.844 71.2398 136.41 71.7496 136.323C77.6565 135.327 81.5597 126.135 82.057 121.285C82.2617 119.269 81.5492 116.775 80.7949 114.151C79.4702 109.516 78.1121 104.773 81.4803 101.334C81.8355 100.939 82.4372 100.9 82.8112 101.188C83.1915 101.478 83.2083 102.009 82.8468 102.372C80.1681 105.099 81.4155 109.416 82.6295 113.63C83.4318 116.41 84.1924 119.05 83.9563 121.374C83.5133 125.746 80.5379 133.713 75.2244 136.826Z" fill="white"/>
<path d="M67.7612 140.468C66.844 141.03 65.8068 141.439 64.6553 141.695C58.3573 143.085 50.351 139.424 46.5842 136.713C44.6137 135.289 42.8775 132.605 41.0612 129.8C38.2316 125.427 35.366 120.997 31.7534 121.557C31.3709 121.616 31.0344 121.331 31.0024 120.92C30.9704 120.511 31.2627 120.132 31.6432 120.067C36.0949 119.361 39.357 124.373 42.3008 128.893C44.049 131.581 45.7232 134.149 47.4754 135.401C50.8918 137.843 58.5535 141.349 64.2808 140.061C66.5557 139.548 68.2799 138.309 69.3713 136.382C69.6056 135.981 70.1303 135.826 70.5528 136.048C70.9713 136.276 71.1235 136.789 70.8912 137.2C70.0962 138.584 69.0469 139.678 67.7612 140.468Z" fill="white"/>
<path d="M175.75 167H42.2499C40.4554 167 39 165.543 39 163.746V76.2543C39 74.4554 40.4554 73 42.2499 73H175.75C177.545 73 179 74.4554 179 76.2543V163.744C179 165.543 177.545 167 175.75 167Z" fill="#14162E"/>
<path d="M166 160H45V79H166V160Z" fill="white"/>
<path d="M175 120C175 121.655 173.658 123 172 123C170.342 123 169 121.655 169 120C169 118.342 170.342 117 172 117C173.658 117 175 118.342 175 120Z" fill="white"/>
<path d="M138.68 145H72.3178C70.4856 145 69 143.496 69 141.641V98.3593C69 96.5042 70.4856 95 72.3178 95H138.68C140.514 95 142 96.5042 142 98.3593V141.641C142 143.496 140.514 145 138.68 145Z" fill="#DFE1E9"/>
<path d="M139 141H72V99H139V141Z" fill="#52C6DA"/>
<path d="M93 107V134L120 120.501L93 107Z" fill="#EF3363"/>
<path d="M106.399 72.6167C106.399 72.6167 89.5435 72.5234 83.623 68.574C77.7046 64.6247 76.6716 48.9207 85.2677 42.502C93.8638 36.0833 95.6462 34.1087 96.025 29.8775C96.4017 25.6444 96.3125 16.0427 107.445 16.0001C118.366 15.9596 117.424 24.9125 118.254 30.6134C118.834 34.579 124.286 40.4361 129.06 44.0894C135.189 48.7787 142.048 76.568 106.399 72.6167Z" fill="#14162E"/>
<path d="M104.462 27L108.275 27.115L112.085 27.2301C112.085 27.2301 112.856 37.2101 114.806 38.4531C114.806 38.4531 116.872 50.2775 107.523 49.995C96.2103 49.656 101.012 38.0375 101.012 38.0375C103.039 36.9135 104.462 27 104.462 27Z" fill="#E84A3F"/>
<path d="M92.5253 73H121.998L124.475 63.4382C124.863 53.7471 125 43.8519 125 43.8519C120.782 40.4471 114.016 38 114.016 38C110.465 40.6895 105.06 40.936 101.666 38C101.666 38 94.9664 40.7522 90.5688 43.8519C90.5688 43.8519 89.6825 47.9518 90.1226 54.4139C90.5466 60.6618 91.3663 66.8713 92.5253 73Z" fill="#EF3363"/>
<path d="M136 73C133.742 61.6981 131.642 54.5335 129.789 50.2837C127.369 44.7313 125.494 44.0015 125.494 44.0015C123.337 43.8086 121.702 61.7886 118 73H136Z" fill="#EF3363"/>
<path d="M121.684 56.3787C121.106 57.9915 120.071 59.3055 119.065 60.7546C118.151 62.0686 115.647 69.3446 105.832 68.6548C101.774 68.3703 98.019 64.3056 96.3437 60.1897C95.6545 58.4991 95.3393 56.8556 94.9735 55.0689C94.7128 53.7897 94.6279 52.1277 93.9772 51C92.7505 51.3131 92.6151 53.1716 92.1826 54.2481C91.9158 54.9092 90.1415 57.4021 90 55.5314C90.4426 61.4034 91.2166 67.2365 92.2937 73H124C123.396 66.2582 121.629 58.4357 121.684 56.3787Z" fill="#E71D48"/>
<path d="M116.742 28.2218C115.644 27.0939 114.433 28.8973 114.433 28.8973C114.433 28.8973 114.895 26.8848 115.005 24.6089C112.475 23.2739 109.919 21.7178 107.523 21.0161V21L107.5 21.006L107.477 21V21.0161C105.081 21.7178 102.526 23.2739 99.995 24.6089C100.103 26.8848 100.567 28.8973 100.567 28.8973C100.567 28.8973 99.3555 27.0939 98.258 28.2218C97.1627 29.3497 99.8705 32.3575 100.493 32.7294C100.493 32.7294 102.726 37.9085 105.537 39.6316C106.265 40.0799 108.496 40.1985 109.579 39.533C112.39 37.8019 114.507 32.7294 114.507 32.7294C115.13 32.3575 117.837 29.3497 116.742 28.2218Z" fill="#F46F5C"/>
<path d="M115 23.1184C115 23.1184 111.158 29.5069 101.645 28.8966C101.645 28.8966 102.11 29.6535 101.543 31.0267C101.543 31.0267 100.858 28.5082 99.3873 29.2948C98.6139 29.705 98.5991 30.7493 99.3999 31.853C99.7624 32.3484 97.0669 31.4329 97.0669 31.4329C97.0669 31.4329 95.9541 21.7115 102.804 19.5001C109.655 17.2907 115 23.1184 115 23.1184Z" fill="#14162E"/>
<path d="M111.69 20.003C111.605 20.4569 111.538 20.907 111.544 21.3531C111.559 22.3167 110.04 22.9994 110 23.9571C110.209 24.1648 110.419 24.3918 110.624 24.6283C111.898 26.0919 112.459 26.9266 112.912 28.7498C113.038 29.2556 112.728 29.6191 113.594 31C113.594 31 114.256 28.544 115.899 28.9094C116.222 28.9806 116.864 29.4249 116.298 30.65C116.093 31.0942 118 28.8229 118 28.8229C118 28.8229 117.935 19.8107 111.69 20.003Z" fill="#14162E"/>
<path d="M98.7193 116.673C99.0686 117.441 100.884 118.614 100.24 119.656C99.9187 120.178 98.2792 119.075 97.9158 118.624C97.407 117.987 93.8818 112.703 93.3265 111.178C92.8924 109.985 92.4866 108.821 92 107.728C93.2801 106.995 94.4531 106.045 95.5252 105C97.3262 105.799 99.2403 106.913 101.013 107.663C101.962 108.065 103.006 108.348 103.971 108.693C104.583 108.911 105.881 109.231 105.937 110.02C105.998 110.886 104.692 110.631 104.175 110.529C103.43 110.385 102.063 109.699 101.536 110.523C100.769 111.72 103.089 113.111 103.868 113.928C104.591 114.686 107.244 117.022 105.303 117.209C104.896 117.248 102.144 114.963 101.712 114.659L103.654 116.532C104.108 117.127 105.433 118.363 105.037 118.973C104.191 120.281 101.286 116.834 100.841 116.372L101.946 117.731C102.889 118.763 103.48 119.636 102.685 119.96C101.683 120.369 99.5936 117.54 98.7193 116.673Z" fill="#F46F5C"/>
<path d="M99 105.975L92.7401 110C92.7401 110 73.0184 85.3588 75.163 76.0546C77.698 65.0438 84.3146 52.7394 87.966 47.0143C89.3783 44.7976 90.5892 44 90.5892 44C94.3518 47.4901 96.5028 52.3608 96.018 56.7376C95.8019 58.6932 94.8198 59.9645 93.7327 61.9566C90.4045 68.048 86.3355 78.6094 86.4677 79.6823C86.6818 81.4071 99 105.975 99 105.975Z" fill="#EF3363"/>
</svg>
