<svg width="189" height="166" viewBox="0 0 189 166" fill="none" xmlns="http://www.w3.org/2000/svg">
<path d="M160.459 137.666H27.9424V118.207H160.459V137.666Z" fill="#14162E"/>
<path d="M164.907 131.516H23.4955C19.0056 131.516 15.3682 127.879 15.3682 123.389V33.9539C15.3682 29.466 19.0056 25.8265 23.4955 25.8265H164.907C169.395 25.8265 173.034 29.466 173.034 33.9539V123.389C173.034 127.879 169.395 131.516 164.907 131.516Z" fill="#14162E"/>
<path d="M165.773 123.419H22.626V32.8288H165.773V123.419Z" fill="white"/>
<path d="M0 159.735V162.624C0 164.223 1.73941 165.519 3.88567 165.519H184.514C186.66 165.519 188.401 164.223 188.401 162.624V159.735H0Z" fill="#14162E"/>
<path d="M94.1996 137.444H16.8731C16.6106 137.721 4.4532 148.603 0.740465 156.688C-0.846347 160.144 0.191198 161.961 3.14511 161.961H94.1996H185.254C188.21 161.961 189.248 160.144 187.661 156.688C183.946 148.603 171.791 137.721 171.528 137.444H94.1996Z" fill="#14162E"/>
<path d="M178.617 157.827H13.8486L25.2656 140.923H167.198L178.617 157.827Z" fill="#9092B3"/>
<path d="M151.564 154.332L149.934 150.23H162.189L164.203 154.332H151.564ZM137.87 154.332L136.656 150.23H148.911L150.51 154.332H137.87ZM124.177 154.332L123.379 150.23H135.632L136.816 154.332H124.177ZM122.478 145.602H134.298L135.482 149.704H123.276L122.478 145.602ZM110.484 154.332L110.101 150.23H122.356L123.121 154.332H110.484ZM109.672 145.602H121.492L122.256 149.704H110.052L109.672 145.602ZM147.106 145.602L148.705 149.704H136.499L135.287 145.602H147.106ZM159.913 145.602L161.929 149.704H149.723L148.093 145.602H159.913ZM97.4656 154.332V150.23H109.078L109.428 154.332H97.4656ZM97.4656 145.602H108.685L109.033 149.704H97.4656V145.602ZM96.4199 149.704H84.4456L84.7955 145.602H96.4199V149.704ZM96.4199 154.332H84.0529L84.4008 150.23H96.4199V154.332ZM83.4264 149.704H71.2221L71.987 145.602H83.8088L83.4264 149.704ZM82.9971 154.332H70.3575L71.1224 150.23H83.3775L82.9971 154.332ZM70.203 149.704H57.9987L59.1807 145.602H71.0004L70.203 149.704ZM69.3037 154.332H56.6642L57.8461 150.23H70.1013L69.3037 154.332ZM55.6083 154.332H42.9708L44.5678 150.23H56.8229L55.6083 154.332ZM41.915 154.332H29.2754L31.2915 150.23H43.5465L41.915 154.332ZM33.5659 145.602H45.3856L43.7561 149.704H31.5499L33.5659 145.602ZM46.3723 145.602H58.194L56.9795 149.704H44.7753L46.3723 145.602ZM176.611 154.861L176.253 154.332H165.259L163.21 150.23H173.484L173.126 149.704H162.948L160.899 145.602H170.357L169.999 145.073H160.637L158.564 140.923H157.614L159.652 145.073H147.881L146.232 140.923H145.281L146.899 145.073H135.128L133.899 140.923H132.949L134.145 145.073H122.374L121.569 140.923H120.619L121.394 145.073H109.623L109.236 140.923H108.286L108.64 145.073H97.4656V140.923H96.4199V145.073H84.8402L85.1922 140.923H84.2421L83.8576 145.073H72.0868L72.8619 140.923H71.9118L71.1041 145.073H59.3333L60.5295 140.923H59.5794L58.3507 145.073H46.5798L48.1971 140.923H47.247L45.5972 145.073H33.8263L35.8648 140.923H34.9146L32.8437 145.073H22.4603L22.1042 145.602H32.5792L30.5327 149.704H19.3354L18.9774 150.23H30.2682L28.2196 154.332H16.2066L15.8506 154.861H27.9571L26.4761 157.827H27.5584L29.015 154.861H41.7055L40.5235 157.827H41.6057L42.7633 154.861H55.4517L54.5729 157.827H55.6551L56.5116 154.861H69.2L68.6223 157.827H69.7045L70.2599 154.861H82.9483L82.6716 157.827H83.7539L84.0061 154.861H96.4199V157.827H97.4656V154.861H109.472L109.725 157.827H110.807L110.532 154.861H123.221L123.774 157.827H124.856L124.279 154.861H136.967L137.823 157.827H138.906L138.027 154.861H150.715L151.873 157.827H152.955L151.775 154.861H164.464L165.922 157.827H167.004L165.523 154.861H176.611Z" fill="#C7C8D7"/>
<path d="M94.1985 161.961H86.1973C86.2013 161.981 86.1769 162.667 86.596 163.069C86.7526 163.22 86.9744 163.295 87.2022 163.295H94.1985H101.197C101.425 163.295 101.646 163.22 101.803 163.069C102.22 162.667 102.198 161.981 102.202 161.961H94.1985Z" fill="#14162E"/>
<path d="M165.762 123.419H22.626V32.837H165.762V123.419Z" fill="white"/>
<path d="M96.8521 79.0457L83.9359 84.7887L67.5998 68.4527L22.626 102.724V123.419H165.762V16.977L105.96 89.3478L96.8521 79.0457Z" fill="#52C6DA"/>
<path d="M55.4196 99.2328H50.8525V95.7703H55.4196V99.2328Z" fill="white"/>
<path d="M61.8632 99.2328H57.2939V95.7703H61.8632V99.2328Z" fill="white"/>
<path d="M68.3044 99.2328H63.7373V95.7703H68.3044V99.2328Z" fill="#EF3363"/>
<path d="M74.746 99.2328H70.1768V95.7703H74.746V99.2328Z" fill="white"/>
<path d="M81.1894 99.2328H76.6201V95.7703H81.1894V99.2328Z" fill="white"/>
<path d="M87.6307 99.2328H83.0615V95.7703H87.6307V99.2328Z" fill="#EF3363"/>
<path d="M55.4196 105.147H50.8525V101.684H55.4196V105.147Z" fill="white"/>
<path d="M61.8632 105.147H57.2939V101.684H61.8632V105.147Z" fill="white"/>
<path d="M68.3044 105.147H63.7373V101.684H68.3044V105.147Z" fill="white"/>
<path d="M74.746 105.147H70.1768V101.684H74.746V105.147Z" fill="white"/>
<path d="M81.1894 105.147H76.6201V101.684H81.1894V105.147Z" fill="#EF3363"/>
<path d="M87.6307 105.147H83.0615V101.684H87.6307V105.147Z" fill="white"/>
<path d="M55.4196 111.061H50.8525V107.598H55.4196V111.061Z" fill="white"/>
<path d="M61.8632 111.061H57.2939V107.598H61.8632V111.061Z" fill="#EF3363"/>
<path d="M68.3044 111.061H63.7373V107.598H68.3044V111.061Z" fill="white"/>
<path d="M74.746 111.061H70.1768V107.598H74.746V111.061Z" fill="white"/>
<path d="M81.1894 111.061H76.6201V107.598H81.1894V111.061Z" fill="white"/>
<path d="M87.6307 111.061H83.0615V107.598H87.6307V111.061Z" fill="white"/>
<path d="M55.4196 116.974H50.8525V113.512H55.4196V116.974Z" fill="white"/>
<path d="M61.8632 116.974H57.2939V113.512H61.8632V116.974Z" fill="white"/>
<path d="M68.3044 116.974H63.7373V113.512H68.3044V116.974Z" fill="#EF3363"/>
<path d="M74.746 116.974H70.1768V113.512H74.746V116.974Z" fill="white"/>
<path d="M98.3989 85.9728L97.9412 85.5191L97.3594 85.7612L96.9932 84.8661L98.1324 84.386L99.0378 85.2811L98.3989 85.9728Z" fill="white"/>
<path d="M94.244 87.0713L93.8758 86.1742L95.434 85.5191L95.8023 86.4162L94.244 87.0713ZM91.1212 88.3855L90.753 87.4863L92.3174 86.8292L92.6837 87.7284L91.1212 88.3855ZM87.9903 89.7018L87.6221 88.8026L89.1906 88.1434L89.5568 89.0446L87.9903 89.7018Z" fill="white"/>
<path d="M85.2868 90.839L84.3408 90.011L84.9451 89.2746L85.4475 89.714L86.0537 89.4617L86.422 90.363L85.2868 90.839Z" fill="white"/>
<path d="M71.8679 79.123L70.4805 77.9125L71.0908 77.1801L72.4762 78.3906L71.8679 79.123ZM74.6387 81.5439L73.2533 80.3334L73.8616 79.599L75.2469 80.8094L74.6387 81.5439ZM77.4115 83.9627L76.0241 82.7543L76.6324 82.0199L78.0178 83.2283L77.4115 83.9627ZM80.1844 86.3816L78.799 85.1732L79.4053 84.4367L80.7906 85.6472L80.1844 86.3816ZM82.9552 88.8025L81.5698 87.592L82.174 86.8556L83.5595 88.0661L82.9552 88.8025Z" fill="white"/>
<path d="M69.096 76.7021L68.6484 76.3115L68.1683 76.6472L67.623 75.8456L68.7013 75.0909L69.7063 75.9697L69.096 76.7021Z" fill="white"/>
<path d="M64.9835 78.885L64.4342 78.0835L66.0292 76.9646L66.5785 77.7641L64.9835 78.885ZM61.7835 81.131L61.2382 80.3274L62.8393 79.2044L63.3845 80.008L61.7835 81.131ZM58.5772 83.3851L58.028 82.5794L59.6331 81.4524L60.1824 82.256L58.5772 83.3851ZM55.3589 85.6452L54.8076 84.8396L56.4188 83.7085L56.9701 84.5141L55.3589 85.6452ZM52.1263 87.9156L51.5749 87.108L53.1902 85.9728L53.7415 86.7804L52.1263 87.9156ZM48.8835 90.1941L48.3302 89.3844L49.9536 88.2451L50.5049 89.0548L48.8835 90.1941ZM45.6265 92.4807L45.0752 91.669L46.7027 90.5257L47.256 91.3374L45.6265 92.4807ZM42.3613 94.7755L41.808 93.9618L43.4436 92.8143L43.9969 93.6281L42.3613 94.7755ZM39.0818 97.0784L38.5285 96.2626L40.1702 95.1112L40.7236 95.9249L39.0818 97.0784ZM35.7923 99.3895L35.239 98.5716L36.8847 97.4161L37.4381 98.2319L35.7923 99.3895ZM32.4905 101.709L31.9331 100.889L33.589 99.7292L34.1445 100.547L32.4905 101.709ZM29.1765 104.036L28.6191 103.216L30.2792 102.052L30.8346 102.872L29.1765 104.036ZM25.8503 106.373L25.2949 105.55L26.959 104.382L27.5144 105.204L25.8503 106.373Z" fill="white"/>
<path d="M163.511 29.2849L162.833 28.6543L163.975 27.3279L164.652 27.9565L163.511 29.2849ZM161.381 31.8116L160.703 31.181L161.845 29.8525L162.52 30.4811L161.381 31.8116ZM159.249 34.3363L158.573 33.7056L159.715 32.3772L160.39 33.0078L159.249 34.3363ZM156.962 37.0013L156.285 36.3686L157.43 35.0361L158.108 35.6668L156.962 37.0013ZM154.667 39.6765L153.988 39.0418L155.137 37.7052L155.815 38.3379L154.667 39.6765ZM152.362 42.3598L151.683 41.7251L152.836 40.3824L153.516 41.0172L152.362 42.3598ZM150.051 45.0513L149.37 44.4166L150.527 43.0698L151.209 43.7046L150.051 45.0513ZM147.732 47.755L147.051 47.1183L148.212 45.7674L148.894 46.4021L147.732 47.755ZM145.407 50.4648L144.721 49.8281L145.887 48.4731L146.571 49.1099L145.407 50.4648ZM143.071 53.1868L142.386 52.548L143.556 51.187L144.239 51.8258L143.071 53.1868ZM140.726 55.9149L140.04 55.2781L141.212 53.911L141.9 54.5478L140.726 55.9149ZM138.374 58.6552L137.687 58.0164L138.864 56.6452L139.552 57.284L138.374 58.6552ZM136.016 61.4036L135.327 60.7648L136.509 59.3876L137.196 60.0284L136.016 61.4036ZM133.648 64.1622L132.959 63.5214L134.143 62.1421L134.832 62.7809L133.648 64.1622ZM131.272 66.931L130.58 66.2882L131.771 64.9027L132.46 65.5456L131.272 66.931ZM128.888 69.7079L128.196 69.0651L129.388 67.6756L130.08 68.3185L128.888 69.7079ZM126.495 72.495L125.802 71.8522L127 70.4566L127.694 71.0994L126.495 72.495ZM124.095 75.2923L123.399 74.6454L124.601 73.2477L125.295 73.8926L124.095 75.2923ZM121.686 78.0997L120.988 77.4507L122.195 76.047L122.891 76.696L121.686 78.0997ZM119.267 80.9173L118.569 80.2684L119.78 78.8586L120.478 79.5075L119.267 80.9173ZM116.842 83.7431L116.142 83.0921L117.357 81.6802L118.057 82.3292L116.842 83.7431ZM114.407 86.579L113.707 85.928L114.926 84.5101L115.626 85.161L114.407 86.579ZM111.964 89.4271L111.262 88.7741L112.487 87.35L113.187 88.0031L111.964 89.4271ZM109.512 92.2834L108.811 91.6304L110.037 90.2002L110.739 90.8532L109.512 92.2834Z" fill="white"/>
<path d="M107.352 94.7978L106.314 93.7765L106.951 93.0808L107.283 93.4083L107.578 93.0625L108.282 93.7155L107.352 94.7978Z" fill="white"/>
<path d="M101.563 89.0935L99.9805 87.5331L100.619 86.8414L102.202 88.3998L101.563 89.0935ZM104.731 92.2162L103.148 90.6539L103.785 89.9601L105.367 91.5205L104.731 92.2162Z" fill="white"/>
<path d="M161.958 6.40434L106.161 77.1334L97.1328 66.2353L83.9175 72.5052L67.1299 54.5926L22.626 90.7759V95.1254L66.9651 59.0763L83.5046 76.7245L96.6426 70.4912L106.198 82.0241L164.102 8.62183C163.346 7.91794 162.609 7.1896 161.958 6.40434Z" fill="#EF3363"/>
<path d="M170.605 4.76837e-06L157.438 4.45735L166.148 13.1644L170.605 4.76837e-06Z" fill="#EF3363"/>
<path d="M39.8519 44.3699C42.8262 44.5937 45.54 45.8631 45.5583 48.8374L40.6006 48.8658C40.5681 47.7408 39.4125 47.5069 38.6903 47.5109C38.2346 47.515 36.7617 47.5231 36.7658 48.4325C36.778 50.4689 45.9022 48.3003 45.9368 54.0596C45.9571 57.516 43.2595 58.82 39.9374 59.0784L40.1734 62.7504L37.1463 62.7687L37.311 59.0682C34.2289 58.7651 31.3523 57.3349 31.334 54.2264L36.2918 54.1979V54.3037C36.3264 55.6708 37.8542 55.9292 38.6313 55.9251C39.384 55.9211 40.8569 55.86 40.8508 54.8672C40.8386 52.7494 31.7124 54.735 31.6778 49.1608C31.6615 45.9445 34.1455 44.6974 37.2255 44.4126L37.016 40.7141L40.0431 40.6958L39.8519 44.3699Z" fill="#EF3363"/>
<path d="M115.471 144.036C115.471 144.036 115.678 148.066 115.093 148.664C114.507 149.264 106.526 150.135 105.779 149.455C105.033 148.776 105.34 147.508 107.018 146.896C108.821 146.241 109.76 146.67 110.877 146.099C111.992 145.527 111.545 143.733 111.545 143.733L115.471 144.036Z" fill="#14162E"/>
<path d="M141.635 144.036C141.635 144.036 141.429 148.066 142.015 148.664C142.601 149.264 150.582 150.135 151.328 149.455C152.075 148.776 151.768 147.508 150.087 146.896C148.287 146.241 147.345 146.67 146.23 146.099C145.113 145.527 145.563 143.733 145.563 143.733L141.635 144.036Z" fill="#14162E"/>
<path d="M142.072 120.726C141.202 116.336 136.527 104.353 134.793 100.197C134.096 99.9632 133.333 99.7313 132.56 99.5055C132.763 98.5696 132.899 97.7661 133.05 97.0622C131.691 97.4202 130.251 97.5931 128.792 98.057C128.595 98.12 128.373 98.1851 128.143 98.2543C127.911 98.1851 127.689 98.12 127.492 98.057C126.033 97.5931 124.593 97.4202 123.234 97.0622C123.385 97.7661 123.521 98.5696 123.724 99.5055C122.951 99.7313 122.188 99.9632 121.491 100.197C119.757 104.353 115.082 116.336 114.212 120.726C113.005 126.801 110.991 144.807 110.991 144.807L116.126 145.482C116.126 145.482 121.283 121.292 122.022 119.951C123.342 117.546 124.729 115.42 125.964 113.537C126.996 111.968 129.288 111.968 130.32 113.537C131.555 115.42 132.942 117.546 134.262 119.951C135.001 121.292 140.158 145.482 140.158 145.482L145.293 144.807C145.293 144.807 143.279 126.801 142.072 120.726Z" fill="#EF3363"/>
<path d="M143.487 45.865C143.186 43.7798 142.874 43.4584 142.172 43.0494C141.845 42.8562 141.519 42.6894 141.294 42.3862C141.06 42.075 140.677 41.8004 140.356 41.5339C140.053 41.2836 139.656 41.0191 139.52 40.6021C139.357 40.1016 140.012 40.2379 140.437 40.3925C140.899 40.5594 141.762 41.8288 142.252 41.6538C142.74 41.4789 141.593 39.9999 141.359 39.709C140.809 39.0214 140.156 39.1149 139.424 38.7976C138.997 38.6124 138.858 38.3989 139.32 38.1222C139.664 37.9167 140.101 38.0876 140.449 38.2036C141.157 38.4416 141.91 38.8627 142.423 39.4303C142.077 38.94 141.239 38.3704 140.704 38.0957C140.333 37.9086 138.616 37.3817 138.861 36.7734C139.355 35.5528 142.693 37.8536 143.057 38.4985C142.628 37.8903 142.016 37.4753 141.412 37.046C141.058 36.7937 140.197 36.2323 140.919 35.9414C141.987 35.5121 143.277 37.4936 144.014 38.2768C143.708 37.6095 143.267 37.2047 142.771 36.6005C142.181 35.8844 142.913 35.7013 143.641 36.3299C143.949 36.5923 144.469 37.221 144.581 37.3613C145.745 38.8302 145.79 39.8148 145.995 41.605C146.068 42.2479 146.087 43.2976 146.298 45.1713C146.418 46.2475 144.39 45.6921 143.487 45.865Z" fill="#F46F5C"/>
<path d="M93.5182 74.9994C91.5449 74.2589 91.3029 73.4675 91.0526 72.6945C90.9347 72.3323 90.841 71.9784 90.5928 71.6936C90.3385 71.3986 90.1514 70.9652 89.9602 70.595C89.7811 70.2471 89.6082 69.8016 89.2278 69.5778C88.7741 69.3133 88.768 69.9826 88.829 70.4302C88.8941 70.9164 89.948 72.0333 89.6713 72.4727C89.3967 72.9142 88.1984 71.4738 87.9644 71.185C87.4111 70.5014 87.6409 69.883 87.4863 69.0997C87.3989 68.644 87.2178 68.4609 86.8496 68.8535C86.575 69.1465 86.6481 69.6103 86.6868 69.9745C86.7682 70.717 87.0185 71.543 87.464 72.1655C87.0591 71.722 86.6807 70.7801 86.5282 70.2003C86.4244 69.7975 86.2759 68.0073 85.629 68.1171C84.331 68.3389 85.8649 72.0923 86.4183 72.5846C85.9158 72.0353 85.6412 71.3477 85.3502 70.6682C85.1794 70.2675 84.8173 69.3072 84.3779 69.9501C83.7309 70.9022 85.3889 72.5866 85.9972 73.4716C85.4113 73.0322 85.1102 72.5134 84.624 71.899C84.0503 71.1707 83.7167 71.8461 84.1744 72.6924C84.3656 73.0484 84.8681 73.6934 84.98 73.8297C86.1661 75.2822 87.1181 75.5365 88.825 76.1204C89.4373 76.3299 90.0863 76.3807 92.1064 77.3593C93.0829 77.8333 93.1561 75.8437 93.5182 74.9994Z" fill="#F46F5C"/>
<path d="M130.674 71.0934C129.555 71.3151 128.381 71.3477 127.311 71.2582C126.918 71.2256 126.518 71.1361 126.133 71.0039C126.182 72.4056 126.182 75.6504 125.197 76.9829C125.197 76.9829 125.547 78.5494 128.405 78.5901C131.268 78.6328 131.618 76.9829 131.618 76.9829C131.618 76.9829 130.568 74.6474 130.674 71.0934Z" fill="#F46F5C"/>
<path d="M141.674 79.0029C140.894 78.0102 137.198 75.8191 134.694 75.4224C130.633 74.7796 126.475 74.7796 122.414 75.4224C119.91 75.8191 117.42 76.4538 116.641 77.4487C115.664 78.6957 118.586 85.6858 119.072 92.0982C119.475 97.416 120.199 101.525 120.199 101.525C121.802 104.473 134.346 104.553 135.949 101.607C135.949 101.607 136.25 97.0621 137.121 92.0982C138.254 85.637 142.662 80.2663 141.674 79.0029Z" fill="#DFE1E9"/>
<path d="M121.527 90.6212C121.608 88.8961 122.18 85.8038 121.543 84.2211C120.633 81.9589 118.581 81.1106 116.681 80.0791C117.248 82.972 118.733 87.6551 119.071 92.0982C119.474 97.416 120.198 101.525 120.198 101.525C120.495 102.071 121.189 102.504 122.098 102.85C120.314 99.4382 121.368 93.9861 121.527 90.6212Z" fill="#9FA2BE"/>
<path d="M134.524 63.3078C134.524 63.3078 128.598 59.8209 127.698 60.6794C126.801 61.5358 125.396 64.4511 124.714 64.8966C124.033 65.3401 122.969 65.7633 123.062 66.2861C123.158 66.811 123.502 66.8456 123.475 67.3745C123.447 67.9035 122.246 70.4301 122.901 71.1768C123.556 71.9234 127.863 73.5651 130.449 71.8461C133.037 70.125 137.441 64.8682 134.524 63.3078Z" fill="#F46F5C"/>
<path d="M135.831 64.5894L130.84 64.6668C130.84 64.6668 129.898 67.1344 127.771 68.7212C127.771 68.7212 127.888 69.4557 128.424 69.3072C128.957 69.1566 129.286 69.0936 129.644 68.5341C130.002 67.9746 131.078 66.52 131.811 67.7976C132.543 69.0752 130.977 69.5126 130.32 69.5004C130.32 69.5004 128.047 72.2549 129.815 72.7717C129.815 72.7717 131.788 72.4787 134.791 69.2929C137.792 66.1051 137.175 64.3392 135.831 64.5894Z" fill="#14162E"/>
<path d="M126.388 58.7549C126.388 58.7549 123.963 60.2258 126.773 63.1777C129.58 66.1295 136.194 64.5753 136.194 64.5753C136.194 64.5753 136.896 62.6507 134.507 60.6327C132.721 59.1252 130.76 58.3562 129.188 59.0804C126.512 60.3092 126.388 58.7549 126.388 58.7549Z" fill="#14162E"/>
<path d="M92.8649 74.0533L90.7451 77.4325C90.7451 77.4325 96.2054 82.673 102.479 86.8333C106.133 89.2562 118.644 85.3808 120.579 84.801C123.34 83.973 125.417 78.1282 120.809 75.9575C118.11 74.684 107.281 82.913 104.63 81.5175C101.306 79.772 92.8649 74.0533 92.8649 74.0533Z" fill="#DFE1E9"/>
<path d="M142.569 44.9903L146.782 44.2844C146.782 44.2844 149.563 56.4478 149.396 60.8278C149.231 65.2078 142.267 81.1269 140.679 82.3719C138.768 83.8672 133.473 79.5461 137.312 74.8874C141.151 70.2287 143.637 60.6326 143.738 60.242C143.84 59.8493 142.569 44.9903 142.569 44.9903Z" fill="#DFE1E9"/>
<path d="M89.4487 41.1066H55.4746V38.051H89.4487V41.1066Z" fill="#C7C8D7"/>
<path d="M89.4487 45.9343H55.4746V42.8786H89.4487V45.9343Z" fill="#C7C8D7"/>
<path d="M81.1892 50.7638H55.4746V47.7082H81.1892V50.7638Z" fill="#C7C8D7"/>
</svg>
