<svg width="255" height="176" viewBox="0 0 255 176" fill="none" xmlns="http://www.w3.org/2000/svg">
<path d="M230.992 157.743H46.157C41.0527 157.743 36.915 154.021 36.915 149.428V9.11148C36.915 4.51631 41.0527 0.793808 46.157 0.793808H230.992C236.097 0.793808 240.235 4.51631 240.235 9.11148V149.428C240.235 154.021 236.097 157.743 230.992 157.743Z" fill="#C7C8D7"/>
<path d="M230.994 147.885H46.1582V10.6544H230.994V147.885Z" fill="white"/>
<path d="M174.41 129.411C202.272 110.771 209.748 73.0781 191.109 45.2162C172.471 17.3542 134.777 9.87743 106.915 28.5172C79.0536 47.1547 71.5772 84.8501 90.2161 112.71C108.854 140.572 146.549 148.049 174.41 129.411Z" fill="#14162E"/>
<path d="M131.916 18.9314C165.071 14.1521 195.836 37.1371 200.643 70.2942C205.451 103.454 182.481 134.229 149.333 139.063L131.916 18.9314Z" fill="#EF3363"/>
<path d="M136.413 139.599L136.114 139.572L140.35 79.1277L191.022 45.2275C198.302 56.0518 202.182 69.276 201.2 83.2956C198.857 116.735 169.851 141.942 136.413 139.599Z" fill="#52C6DA"/>
<path d="M132.648 139.115C136.168 139.586 139.658 139.742 143.091 139.611L140.675 78.9551L80.5138 70.9283C76.0805 104.154 99.4216 134.681 132.648 139.115Z" fill="#DFE1E9"/>
<path d="M116.111 94.1426L59.8119 64.6717C57.4184 69.2214 55.5444 74.137 54.2838 79.3617C50.8306 93.6858 52.5546 108.037 58.2272 120.477L116.111 94.1426Z" fill="#52C6DA"/>
<path d="M146.745 84.9569L207.858 73.8917C208.347 76.562 208.657 79.2254 208.795 81.8685C209.389 93.2246 206.819 104.19 201.782 113.787L146.745 84.9569Z" fill="#EF3363"/>
<path d="M61.1869 63.3085C60.547 63.038 58.246 63.9084 56.8876 64.7902C56.1145 65.2947 54.4189 65.8242 53.1006 66.1878C53.2524 66.9264 53.3447 67.6741 53.3794 68.4241C53.3776 68.3877 55.4904 68.0536 55.7116 67.9854C56.4261 67.7582 56.9801 67.2014 57.7994 67.4196C58.1607 67.515 58.5841 67.7946 58.9134 67.9718C59.3441 68.2036 60.3951 69.2536 60.9172 69.0513C61.7001 68.7468 60.4236 67.8468 60.2806 67.5946C60.0683 67.2196 60.152 66.5378 60.7272 66.6878C61.518 66.8969 62.8693 67.84 63.7197 67.4468C64.7894 66.9514 61.4587 65.9969 60.8915 65.6356C61.7932 66.0992 64.7619 67.0037 65.0033 66.4833C65.4667 65.4856 62.3214 64.9606 61.4542 64.5311C62.3687 64.9743 63.4631 65.2197 63.9336 65.0561C65.0494 64.672 61.828 63.5789 61.1869 63.3085Z" fill="#F46F5C"/>
<path d="M57.9573 121.248C57.2898 121.441 55.1052 120.312 53.8586 119.278C53.1485 118.689 51.5258 117.964 50.2598 117.451C50.4959 116.735 50.6743 116.003 50.7952 115.262C50.7888 115.296 52.8494 115.873 53.0605 115.969C53.7441 116.276 54.2298 116.894 55.0686 116.773C55.4388 116.721 55.8924 116.492 56.2396 116.353C56.6941 116.173 57.8607 115.251 58.355 115.512C59.0981 115.905 57.7248 116.653 57.5543 116.887C57.2996 117.235 57.3039 117.921 57.8916 117.837C58.7022 117.723 60.1535 116.944 60.9516 117.432C61.9575 118.048 58.5388 118.61 57.9334 118.903C58.8833 118.548 61.9361 117.994 62.1154 118.537C62.4608 119.585 59.2756 119.739 58.3638 120.066C59.3235 119.732 60.4394 119.614 60.8878 119.83C61.9513 120.341 58.6249 121.053 57.9573 121.248Z" fill="#F46F5C"/>
<path d="M21.3949 89.7749C23.631 91.6112 26.9201 91.3748 29.072 89.4431C32.6007 86.2706 39.1823 80.3959 41.3217 78.7506C44.2984 76.4621 57.6471 68.0967 57.6471 68.0967L55.6409 64.3265C55.6409 64.3265 39.0021 71.6874 36.6513 73.5373C34.2999 75.3872 20.6448 83.5935 20.0908 86.9069C19.8964 88.0659 20.4859 89.0295 21.3949 89.7749Z" fill="#EF3363"/>
<path d="M21.3949 89.7749C23.631 91.6112 26.9201 91.3748 29.072 89.4431C32.6007 86.2706 39.1823 80.3959 41.3217 78.7506C44.2984 76.4621 57.6471 68.0967 57.6471 68.0967L55.6409 64.3265C55.6409 64.3265 39.0021 71.6874 36.6513 73.5373C34.2999 75.3872 20.6448 83.5935 20.0908 86.9069C19.8964 88.0659 20.4859 89.0295 21.3949 89.7749Z" fill="#EC1E4B"/>
<path d="M23.8009 73.4418L24.0565 73.7236C24.884 74.5554 25.753 75.4053 26.735 76.0576C27.3325 76.453 28.2592 76.7098 28.7715 77.1257C28.9774 77.2939 29.1921 77.4439 29.4142 77.5802C29.1167 79.2506 28.3754 83.648 28.4917 85.3616C28.4917 85.3616 23.1468 84.9843 21.1973 82.8231C21.1973 82.8231 23.4148 76.8712 23.8009 73.4418Z" fill="#F46F5C"/>
<path d="M29.1319 79.2369C29.2392 78.5733 29.3403 77.9938 29.4142 77.5802C29.1921 77.4438 28.9774 77.2938 28.7715 77.1257C28.2592 76.7098 27.3325 76.4529 26.735 76.0575C25.753 75.4053 24.884 74.5553 24.0565 73.7236L23.8009 73.4418C23.4148 76.8711 21.1973 82.823 21.1973 82.823C21.8995 83.6025 23.0437 84.1479 24.2181 84.5275C24.624 82.0435 26.2644 79.8027 29.1319 79.2369Z" fill="#E84A3F"/>
<path d="M26.7617 168.836C26.7617 168.836 26.9081 174.165 27.7417 174.894C28.5752 175.622 39.1785 175.94 40.0909 174.967C41.0036 173.994 40.4673 172.358 38.1922 171.726C35.7516 171.049 34.556 171.713 33.0272 171.076C31.4987 170.44 31.9035 168.029 31.9035 168.029L26.7617 168.836Z" fill="#14162E"/>
<path d="M0.466303 168.656C0.466303 168.656 -0.350409 173.847 0.453875 174.606C1.25905 175.365 12.0592 176.215 13.0082 175.278C13.958 174.342 13.4849 172.685 11.2354 171.965C8.82339 171.195 7.65603 171.683 6.09983 171.117C4.87566 170.672 5.70036 168.199 5.70036 168.199L0.466303 168.656Z" fill="#14162E"/>
<path d="M8.30384 138.774C8.06947 124.027 9.7535 113.887 10.5178 109.139C12.2809 109.203 14.0492 109.36 15.8114 110.162C19.048 111.635 22.3033 113.048 25.5541 114.466C22.9132 119.927 17.1341 137.758 16.4381 141.49C15.5717 146.13 5.86967 169.808 5.86967 169.808L0 169.07C0.0949872 165.254 8.32425 140.053 8.30384 138.774Z" fill="#C7C8D7"/>
<path d="M20.3482 112.269C22.0527 113.101 23.8175 113.755 25.5867 114.401C22.9955 119.757 18.27 134.583 17.203 138.524C16.38 136.038 12.3977 130.029 10.869 123.45C9.84724 119.053 9.67059 114.501 10.3745 110.04L10.3825 109.987C13.676 110.212 16.8639 110.571 20.3482 112.269Z" fill="#ACADC6"/>
<path d="M15.9606 111.462C18.2474 112.235 22.4099 113.341 25.5542 114.466C27.7434 119.998 34.2105 133.056 34.5471 138.96C34.918 145.474 32.6633 170.154 32.6633 170.154H25.944C25.944 170.154 25.3217 142.335 24.3806 140.549C21.2781 134.654 17.8506 129.981 15.902 126.313C12.6333 120.164 11.5237 116.212 10.9484 113.33C10.6946 112.06 9.58312 107.796 11.7412 106.462C13.5264 106.969 14.0449 110.817 15.9606 111.462Z" fill="#C7C8D7"/>
<path d="M28.002 115.805C28.002 115.805 22.3596 118.085 16.8024 117.551C12.6886 117.155 10.559 117.091 8.15234 115.792C8.15234 115.792 10.725 95.7382 13.6936 89.4158C16.6612 83.0935 21.5349 81.8822 21.5349 81.8822C21.5349 81.8822 25.3761 84.1139 28.5143 84.0639C28.5143 84.0639 28.4379 96.3859 28.1982 101.306C27.9593 106.226 28.002 115.805 28.002 115.805Z" fill="#EF3363"/>
<path d="M28.2692 99.506C28.286 98.9651 28.3038 98.3924 28.3188 97.7834L28.3242 97.5629C28.3383 96.9834 28.3517 96.3835 28.3642 95.7699L28.3712 95.4631C28.3844 94.7813 28.3969 94.0859 28.4085 93.3928V93.3609C28.1538 93.3587 27.8981 93.3564 27.6504 93.3087C25.6875 92.9269 23.9822 91.8292 22.2841 90.827C21.9991 90.6588 21.6946 90.5202 21.3963 90.3725C21.0563 93.0064 22.2406 96.2221 22.7518 98.3175C24.167 104.11 24.933 111.442 23.7186 117.039C26.2264 116.505 28.002 115.805 28.002 115.805C28.002 115.805 27.9592 106.226 28.1981 101.306C28.2194 100.87 28.239 100.363 28.2585 99.8242L28.2692 99.506Z" fill="#EC1E4B"/>
<path d="M51.6658 119.584L54.0254 114.912C54.0254 114.912 42.3232 107.422 38.0453 103.106C33.7682 98.7903 29.1422 90.009 25.8817 89.4568C22.6201 88.9045 19.3346 90.7021 21.2246 95.2428C23.1155 99.7834 32.6817 105.801 34.6311 107.799C36.5806 109.796 49.7527 118.512 51.6658 119.584Z" fill="#EF3363"/>
<path d="M22.1978 64.3288C22.1978 64.3288 30.8319 63.3379 31.4302 64.7901C32.0286 66.2423 32.1572 70.3307 32.7174 71.1943C33.2767 72.0556 34.2878 73.0896 33.9105 73.6464C33.5333 74.2032 33.116 74.0668 32.8772 74.6941C32.6383 75.319 32.7299 78.8529 31.5891 79.3801C30.4491 79.9051 24.632 79.596 22.5254 76.2826C20.4188 72.9669 18.0264 64.6333 22.1978 64.3288Z" fill="#F46F5C"/>
<path d="M20.0306 65.1379L25.7564 67.79C25.7564 67.79 25.578 71.1216 27.2238 74.0464C27.2238 74.0464 26.7098 74.835 26.1691 74.3873C25.6294 73.9396 25.2815 73.701 25.1556 72.8692C25.0285 72.0374 24.5297 69.8058 23.0293 70.908C21.5282 72.0079 23.1127 73.3146 23.8779 73.6396C23.8779 73.6396 25.0906 77.9871 22.7834 77.678C22.7834 77.678 20.6538 76.3281 18.8197 71.1057C16.9857 65.8855 18.6031 64.1584 20.0306 65.1379Z" fill="#14162E"/>
<path d="M33.9309 63.238C33.9309 63.238 35.9781 66.1832 31.2188 68.1535C26.4607 70.1239 19.6162 64.9356 19.6162 64.9356C19.6162 64.9356 19.7911 62.3516 23.587 61.2472C26.4243 60.4199 29.083 60.5381 30.53 62.1789C32.9898 64.9719 33.9309 63.238 33.9309 63.238Z" fill="#14162E"/>
<path d="M237.468 75.3895L237.229 75.6667C236.456 76.4916 235.645 77.3325 234.72 77.987C234.157 78.3847 233.275 78.6574 232.793 79.0733C232.6 79.2392 232.395 79.3892 232.188 79.5256C232.52 81.1255 233.359 85.332 233.295 86.9819C233.295 86.9819 238.424 86.4683 240.236 84.3366C240.236 84.3366 237.936 78.6733 237.468 75.3895Z" fill="#F46F5C"/>
<path d="M237.579 76.1326L237.343 76.4098C236.57 77.2348 235.759 78.0756 234.834 78.7278C234.27 79.1278 233.386 79.4005 232.904 79.8164C232.711 79.9823 232.509 80.1323 232.3 80.2687C232.373 80.6141 232.47 81.0959 232.575 81.6322L232.643 81.6254C236.045 81.6254 238.081 83.7185 238.795 86.2388C239.408 85.9183 239.958 85.5388 240.349 85.0798C240.349 85.0798 238.047 79.4165 237.579 76.1326Z" fill="#E84A3F"/>
<path d="M229.652 168.063C229.652 168.063 229.913 173.183 229.17 173.944C228.425 174.706 218.281 175.813 217.333 174.949C216.384 174.085 216.775 172.476 218.909 171.697C221.199 170.863 222.395 171.411 223.813 170.683C225.231 169.958 224.661 167.679 224.661 167.679L229.652 168.063Z" fill="#14162E"/>
<path d="M253.8 167.968C253.8 167.968 255.221 172.817 254.548 173.642C253.873 174.467 243.676 176.61 242.656 175.833C241.633 175.058 241.881 173.42 243.937 172.456C246.142 171.422 247.382 171.861 248.73 171.011C250.078 170.163 249.31 167.943 249.31 167.943L253.8 167.968Z" fill="#14162E"/>
<path d="M253.013 138.36C253.608 124.186 252.24 114.394 251.626 109.808C249.929 109.828 248.224 109.933 246.509 110.66C243.361 111.996 240.195 113.273 237.034 114.555C239.436 119.873 244.547 137.163 245.125 140.767C245.84 145.253 248.97 169.804 248.97 169.804L254.756 169.606C254.76 165.936 252.96 139.59 253.013 138.36Z" fill="#EF3363"/>
<path d="M242.095 112.573C240.436 113.328 238.722 113.917 237.004 114.492C239.363 119.707 244.417 136.863 245.099 140.649C245.953 138.279 249.296 129.847 250.93 123.561C252.021 119.357 252.305 114.985 251.739 110.678L251.733 110.628C248.56 110.762 245.487 111.026 242.095 112.573Z" fill="#E71D48"/>
<path d="M246.58 109.628C244.367 110.333 240.344 111.323 237.301 112.348C235.099 117.632 229.156 132.861 228.05 138.438C226.518 146.158 223.959 169.043 223.959 169.043L230.484 169.902C230.484 169.902 237.038 139.156 237.974 137.454C241.06 131.84 244.44 127.407 246.378 123.914C251.062 115.469 251.355 111.339 251.991 108.365C250.266 108.821 248.435 109.039 246.58 109.628Z" fill="#EF3363"/>
<path d="M207.043 70.7602C207.664 70.8284 209.087 72.5192 209.764 73.8077C210.15 74.5418 211.247 75.7008 212.119 76.5644C211.677 77.0757 211.277 77.6212 210.922 78.1938L209.286 76.828C208.825 76.3371 208.634 75.6576 207.897 75.4667C207.571 75.3849 207.117 75.419 206.781 75.4122C206.342 75.4054 205.056 75.769 204.737 75.3804C204.256 74.7986 205.652 74.6531 205.874 74.5168C206.205 74.3168 206.439 73.7441 205.922 73.6123C205.21 73.4282 203.737 73.5737 203.244 72.8919C202.621 72.0351 205.651 72.7487 206.254 72.7146C205.344 72.6805 202.621 72.0874 202.66 71.5761C202.733 70.5898 205.429 71.5579 206.298 71.6011C205.387 71.5465 204.422 71.2602 204.123 70.9261C203.417 70.1352 206.422 70.692 207.043 70.7602Z" fill="#F46F5C"/>
<path d="M246.669 93.7702C247.103 91.0226 245.305 88.4091 242.653 87.566C238.303 86.1842 230.224 83.5889 227.818 82.6163C224.469 81.2618 211.027 74.2645 211.027 74.2645L208.879 77.7666C208.879 77.7666 223.088 87.9796 225.769 89.0295C228.449 90.0772 241.905 97.4063 244.926 96.2518C245.98 95.8473 246.494 94.8883 246.669 93.7702Z" fill="#52C6DA"/>
<path d="M246.669 93.7702C247.103 91.0226 245.305 88.4091 242.653 87.566C238.303 86.1842 230.224 83.5889 227.818 82.6163C224.469 81.2618 211.027 74.2645 211.027 74.2645L208.879 77.7666C208.879 77.7666 223.088 87.9796 225.769 89.0295C228.449 90.0772 241.905 97.4063 244.926 96.2518C245.98 95.8473 246.494 94.8883 246.669 93.7702Z" fill="#52C6DA"/>
<path d="M234.628 116.239C234.628 116.239 239.869 116.982 245.196 116.312C249.141 115.814 252.732 114.353 253.561 112.864C253.561 112.864 250.671 96.4563 247.637 90.4612C244.605 84.4661 239.885 83.4389 239.885 83.4389C239.885 83.4389 236.256 85.6934 233.235 85.7343C233.235 85.7343 233.658 97.579 234.028 102.304C234.397 107.028 234.628 116.239 234.628 116.239Z" fill="#52C6DA"/>
<path d="M239.181 99.2742C239.613 97.247 240.66 94.1222 240.258 91.5996C239.976 91.7496 239.688 91.8905 239.417 92.061C237.813 93.0723 236.206 94.1768 234.329 94.5972C234.092 94.6517 233.847 94.6631 233.602 94.6699C233.733 97.5493 233.883 100.465 234.029 102.304C234.397 107.028 234.629 116.239 234.629 116.239C234.629 116.239 236.097 116.446 238.263 116.544C236.933 111.194 237.983 104.89 239.181 99.2742Z" fill="#43AFCF"/>
<path d="M239.802 69.9807C239.802 69.9807 237.416 65.4923 234.505 65.7991C231.594 66.1059 228.762 66.9445 228.421 68.0876C228.08 69.2308 228.494 71.7329 227.794 72.9101C227.096 74.0896 225.696 75.7213 226.157 76.1826C226.526 76.5508 227.374 77.1621 227.476 77.3689C227.578 77.5757 228.637 81.3209 229.264 81.6891C229.892 82.0573 235.407 79.6324 236.205 77.9257C237.003 76.2212 240.18 72.9305 239.802 69.9807Z" fill="#F46F5C"/>
<path d="M235.383 65.9355C235.383 65.9355 233.049 72.4283 227.243 71.8829C227.243 71.8829 225.818 69.2376 227.22 67.165C228.311 65.5537 231.613 64.0561 235.383 65.9355Z" fill="#14162E"/>
<path d="M253.562 89.6748C253.267 86.45 251.66 84.5729 249.342 82.5003C246.549 80.005 244.743 77.4142 243.733 73.7781C242.804 70.4396 243.259 67.2262 240.054 64.9127C237.672 63.1924 233.873 64.1673 232.316 65.4036L232.271 65.7536C232.271 65.7536 230.116 67.8012 233.568 70.7101C234.795 71.7418 235.368 73.4326 235.482 73.7349C235.834 73.1304 236.023 73.0713 236.211 72.9122C236.541 72.6327 236.986 72.5327 237.443 73.0009C238.129 73.7031 237.104 74.9939 236.454 75.0916L236.011 75.4598C236.359 76.4165 237.034 78.9937 237.532 84.2343C237.668 85.666 238.345 86.7273 239.216 87.8227C240.186 89.0453 240.893 89.0931 241.463 90.5566C242.077 92.127 240.834 95.8404 243.799 97.5971C245.117 98.3766 248.26 98.2107 248.949 97.9721C252.997 96.5744 253.931 93.6723 253.562 89.6748Z" fill="#14162E"/>
<path d="M206.637 110.069C205.843 110.333 205.079 110.578 204.273 110.417C203.894 110.342 203.535 110.249 203.16 110.328C202.773 110.408 202.298 110.358 201.875 110.344C201.477 110.333 200.999 110.264 200.614 110.489C200.155 110.76 200.746 111.096 201.17 111.264C201.633 111.448 203.141 111.067 203.394 111.528C203.648 111.989 201.783 112.339 201.411 112.403C200.532 112.555 200.098 112.046 199.331 111.794C198.883 111.648 198.633 111.717 198.798 112.237C198.921 112.623 199.367 112.789 199.709 112.935C200.407 113.23 201.26 113.417 202.029 113.33C201.438 113.469 200.419 113.337 199.83 113.185C199.422 113.08 197.765 112.326 197.543 112.953C197.096 114.21 201.176 114.707 201.886 114.462C201.151 114.635 200.408 114.537 199.661 114.46C199.223 114.412 198.193 114.26 198.546 114.966C199.068 116.007 201.378 115.373 202.461 115.273C201.783 115.573 201.176 115.585 200.392 115.71C199.465 115.857 199.896 116.487 200.872 116.5C201.282 116.507 202.1 116.38 202.276 116.35C204.147 116.016 205.011 115.412 206.37 114.192C206.858 113.753 208.213 113.464 208.281 112.901C208.411 111.81 207.204 110.808 206.637 110.069Z" fill="#F46F5C"/>
<path d="M206.801 114.391L204.946 110.101C204.946 110.101 217.026 103.113 221.809 99.3856C226.592 95.6562 232.287 87.5522 235.585 87.4204C238.882 87.2886 241.907 89.4862 239.459 93.7382C237.01 97.9925 226.775 102.733 224.593 104.465C222.409 106.194 208.831 113.571 206.801 114.391Z" fill="#52C6DA"/>
</svg>
