<svg width="213" height="155" viewBox="0 0 213 155" fill="none" xmlns="http://www.w3.org/2000/svg">
<path d="M173.271 131.397C168.751 126.296 155.402 119.361 158.908 111.407C161.894 104.642 176.211 105.475 174.488 97.3186C173.469 92.4923 172.146 88.3743 175.26 82.8896C178.654 76.9125 188.796 80.1667 192.31 74.6177C195.331 69.8502 191.405 62.4857 197.644 59.3019C203.184 56.4757 209.876 61.9972 210.874 66.8901C212.122 73.0095 206.061 75.8871 205.285 81.2134C204.789 84.6048 207.878 85.7862 209.647 88.1606C211.342 90.4341 212.865 93.7037 212.977 96.5184C213.314 104.981 204.04 106.074 199.644 111.456C195.572 116.438 203.08 119.649 201.955 125.067C200.741 130.915 192.418 134.106 186.559 134.02C182.498 133.959 176.072 134.559 173.271 131.397Z" fill="#52C6DA"/>
<path d="M179.175 134.184L179.069 134.151C178.879 134.063 178.815 133.855 178.928 133.691C179.009 133.569 187.289 121.119 187.767 105.473C188.082 95.0429 192.418 88.3682 195.974 82.8933C198.121 79.5862 199.993 76.7025 200.281 73.8112C200.304 73.5762 200.522 73.3925 200.765 73.4015C201.018 73.41 201.188 73.6136 201.165 73.8488C200.851 76.9438 198.922 79.9079 196.711 83.303C193.208 88.6836 188.933 95.2466 188.606 105.463C188.098 121.3 179.699 133.89 179.614 134.014L179.175 134.184Z" fill="white"/>
<path d="M188.475 105.514C188.277 105.474 188.142 105.307 188.163 105.117C188.189 104.907 188.397 104.748 188.628 104.761C192.135 104.971 196.82 102.921 198.237 99.5041C198.406 99.0928 198.576 98.6381 198.756 98.1594C199.613 95.8638 200.689 92.9824 202.941 91.9472C204.045 91.4395 205.321 91.4395 206.719 91.9204C206.934 91.997 207.032 92.2236 206.936 92.4297C206.84 92.6357 206.601 92.7337 206.374 92.6692C205.174 92.2574 204.169 92.2513 203.281 92.657C201.371 93.5376 200.362 96.2291 199.556 98.3754C199.374 98.8615 199.197 99.3241 199.025 99.7415C197.412 103.619 192.337 105.749 188.536 105.523L188.475 105.514Z" fill="white"/>
<path d="M185.985 105.12C184.358 104.754 183.121 104.04 182.302 102.986C181 101.312 180.797 98.7903 181.728 95.6777C181.82 95.3683 181.937 95.0116 182.067 94.6209C182.798 92.3943 183.913 88.9976 182.816 87.1117C182.449 86.486 181.869 86.0802 181.038 85.8713C180.806 85.8123 180.671 85.5865 180.738 85.3673C180.806 85.1491 181.045 85.0182 181.277 85.0733L181.283 85.0748C182.335 85.3414 183.11 85.8889 183.586 86.7059C184.854 88.8896 183.666 92.4823 182.89 94.833C182.765 95.2152 182.649 95.5659 182.557 95.87C181.692 98.7474 181.849 101.045 183.002 102.528C183.984 103.793 185.705 104.497 188.106 104.624C188.349 104.636 188.508 104.82 188.484 105.028C188.461 105.238 188.255 105.401 188.024 105.388C187.287 105.349 186.609 105.259 185.985 105.12Z" fill="white"/>
<path d="M183.989 129.254C183.503 129.166 183.046 129.007 182.64 128.762C182.462 128.654 182.423 128.438 182.556 128.28C182.689 128.121 182.934 128.076 183.12 128.186C185.22 129.452 189.487 127.807 191.304 126.527C192.061 125.993 192.741 125.066 193.462 124.077C194.754 122.315 196.097 120.478 198.218 120.42C198.451 120.404 198.62 120.566 198.61 120.765C198.604 120.963 198.416 121.127 198.194 121.131C196.522 121.18 195.305 122.84 194.137 124.432C193.374 125.471 192.657 126.447 191.788 127.059C190.16 128.207 186.602 129.731 183.989 129.254Z" fill="white"/>
<path d="M180.554 128.488C180.058 128.398 179.574 128.225 179.101 127.976C176.457 126.571 174.889 122.97 174.481 120.873C174.262 119.745 174.599 118.258 174.957 116.673C175.53 114.143 176.13 111.5 174.481 110.297C174.305 110.168 174.281 109.931 174.43 109.768C174.579 109.608 174.846 109.585 175.024 109.713C177.049 111.197 176.367 114.19 175.771 116.803C175.424 118.318 175.101 119.742 175.293 120.736C175.659 122.635 177.137 126.095 179.542 127.377C180.475 127.874 181.469 127.992 182.489 127.73C182.702 127.675 182.924 127.776 182.981 127.962C183.035 128.147 182.906 128.341 182.691 128.396C181.959 128.584 181.244 128.613 180.554 128.488Z" fill="white"/>
<path d="M38.7593 131.207C32.0044 135.774 26.5491 139.148 19.2689 132.316C15.5935 128.87 14.2743 125.01 15.0054 119.641C15.5955 115.311 16.1678 113.345 13.5294 109.77C9.38156 104.149 2.93441 101.958 0.546866 94.8232C-2.07002 87.006 5.66892 81.7585 3.56953 74.3212C1.71712 67.7522 -2.29152 61.6402 2.44437 55.2856C6.46869 49.8828 13.9195 52.2788 16.2894 57.9558C17.64 61.1901 17.5498 64.8922 19.3748 67.9252C21.1331 70.8495 23.9068 71.5026 26.8706 72.4667C33.5491 74.6366 39.3768 78.5494 38.6143 87.0097C38.1556 92.0902 38.0282 96.2151 42.9875 98.428C48.3056 100.804 51.2675 102.339 50.8872 109.805C50.603 115.417 47.8704 118.385 44.8929 122.487C42.1191 126.314 39.3474 132.238 34.7997 133.971L38.7593 131.207Z" fill="#B8B9CE"/>
<path d="M39.6101 128.497C38.4085 128.386 37.3284 128.059 36.3835 127.513C32.3494 125.195 31.2497 119.291 30.2618 113.99C29.7698 111.336 29.2974 108.813 28.527 107.143C26.4531 102.625 23.8989 99.5704 19.1474 95.921C13.6411 91.6944 12.5375 88.5228 12.1768 81.5816C11.8691 75.7714 11.2496 69.8051 8.89934 66.3096C8.71704 66.0393 8.80917 65.6396 9.10321 65.4122C9.39528 65.1825 9.78341 65.2162 9.96571 65.4865C12.4748 69.2131 13.1079 75.3893 13.4118 81.3817C13.747 88.0978 14.7408 90.973 19.9902 95.0015C24.042 98.1065 27.2607 101.292 29.7169 106.645C30.5401 108.433 31.0165 111.024 31.5183 113.745C32.4611 118.859 33.5099 124.558 37.1323 126.634C38.5437 127.445 40.2667 127.668 42.4073 127.314C42.7641 127.261 43.1032 127.441 43.16 127.731C43.2149 128.024 42.9718 128.305 42.6131 128.364C41.5389 128.539 40.5372 128.584 39.6101 128.497Z" fill="white"/>
<path d="M24.3499 100.199L23.9814 100.069C23.7344 99.8669 23.7305 99.5041 23.9755 99.2575C26.1239 97.0989 25.4594 93.5338 24.7459 89.7151C24.1186 86.3551 23.4659 82.8483 24.7812 79.9293C24.9301 79.5963 25.3261 79.4042 25.6535 79.5022C25.9867 79.5987 26.1337 79.9433 25.9828 80.2763C24.8184 82.8367 25.4359 86.1783 26.0259 89.376C26.7551 93.3315 27.5039 97.3692 24.8772 99.9902C24.7322 100.133 24.5362 100.204 24.3499 100.199Z" fill="white"/>
<path d="M29.5795 108.111L29.3541 108.061C28.5072 107.708 27.8702 107.304 27.2507 106.912C26.2569 106.281 25.4003 105.738 23.9027 105.584C23.1147 105.503 22.36 105.524 21.6308 105.545C20.0999 105.579 18.5376 105.626 16.8087 104.708C14.3604 103.409 11.8964 101.096 9.46766 97.8279C9.1305 97.3753 8.72081 96.6655 8.28368 95.9112C7.65641 94.8293 6.49205 92.8101 5.99416 92.6784C5.69621 92.6004 5.51391 92.3024 5.60604 92.0023C5.69621 91.7067 5.9961 91.5046 6.29405 91.5613C7.19183 91.7183 8.04063 93.0865 9.32653 95.311C9.74798 96.0421 10.1479 96.7321 10.4478 97.1379C12.061 99.308 14.5819 102.212 17.4654 103.736C18.9179 104.509 20.192 104.471 21.6837 104.424C22.4521 104.403 23.2558 104.381 24.136 104.467C25.9413 104.646 27.0057 105.32 28.0407 105.975C28.619 106.342 29.2188 106.72 29.9754 107.033C30.2832 107.161 30.3969 107.496 30.2244 107.782C30.0931 107.998 29.8323 108.124 29.5795 108.111Z" fill="white"/>
<path d="M75.8771 19.1703C76.5886 20.2584 77.2904 22.3696 78.4744 23.0655C79.9837 23.9499 82.3144 23.8796 83.9688 23.8343C82.9711 21.6659 82.7143 16.6948 84.8862 14.7759C83.4572 13.9015 83.3925 16.7361 82.3164 15.5676C81.9224 15.1427 78.9076 10.4711 78.6194 9.94359C77.7863 10.9337 78.1254 14.3327 77.3159 17.0892C76.8944 18.524 75.8771 19.1703 75.8438 19.1197L75.8771 19.1703Z" fill="#E84A3F"/>
<path d="M82.9169 3.02219C82.9169 3.02219 90.5441 3.87527 90.9322 5.9725C91.3203 8.06974 90.007 10.6396 89.9658 12.0002C89.9227 13.3586 91.0871 15.2973 91.0694 15.8426C91.0538 16.3854 89.3699 16.7284 89.0347 17.0164C88.6995 17.3043 86.4002 20.8564 84.8653 21.2071C83.3305 21.5602 77.6851 16.5653 77.3753 12.9252C77.3165 12.2276 76.3639 10.8654 76.5403 10.0439C77.2793 6.57821 81.1115 3.19684 82.9169 3.02219Z" fill="#F46F5C"/>
<path d="M81.364 0.50312C78.2061 0.00914574 80.131 1.73825 76.6241 3.15549C74.0798 4.18461 74.613 6.88598 75.3833 8.10347C75.695 8.59353 75.546 9.07515 75.0756 9.91059C74.8109 11.6495 77.7964 15.5109 78.7275 14.3311C78.949 14.0484 78.1041 12.2529 78.161 11.4788C77.9747 10.2123 79.0979 8.92284 80.1859 10.0553C80.5465 10.432 80.9033 10.9421 80.8876 11.4551C80.8425 12.955 81.3228 13.351 81.9716 12.857C82.9498 12.1135 81.8324 9.10279 82.5793 8.4618C84.2749 7.00928 84.7689 5.259 84.7689 5.259C86.1469 3.73748 84.5199 0.997684 81.364 0.50312Z" fill="#14162E"/>
<path d="M176.061 145.83H35.4189V55.9225H176.061V145.83Z" fill="#DFE1E9"/>
<path d="M50.1786 129.082H43.4688V72.6705H50.1786V129.082Z" fill="#14162E"/>
<path d="M55.9836 129.082H52.6963V72.6705H55.9836V129.082Z" fill="#14162E"/>
<path d="M69.1028 129.082H62.291V72.6705H69.1028V129.082Z" fill="#14162E"/>
<path d="M75.4086 129.082H72.8604V72.6705H75.4086V129.082Z" fill="#14162E"/>
<path d="M86.0489 129.082H83.8594V72.6705H86.0489V129.082Z" fill="#14162E"/>
<path d="M60.2452 129.082H58.0557V72.6705H60.2452V129.082Z" fill="#14162E"/>
<path d="M81.5325 129.082H78.2275V72.6705H81.5325V129.082Z" fill="#14162E"/>
<path d="M95.4047 129.082H90.1709V72.6705H95.4047V129.082Z" fill="#14162E"/>
<path d="M101.11 129.082H97.8223V72.6705H101.11V129.082Z" fill="#14162E"/>
<path d="M105.739 129.082H104.095V72.6705H105.739V129.082Z" fill="#14162E"/>
<path d="M118.321 129.082H117.18V72.6705H118.321V129.082Z" fill="#14162E"/>
<path d="M111.477 129.082H108.691V72.6705H111.477V129.082Z" fill="#14162E"/>
<path d="M126.237 129.082H124.846V72.6705H126.237V129.082Z" fill="#14162E"/>
<path d="M143.03 129.082H141.102V72.6705H143.03V129.082Z" fill="#14162E"/>
<path d="M161.684 129.082H159.755V72.6705H161.684V129.082Z" fill="#14162E"/>
<path d="M128.586 129.082H127.514V72.6705H128.586V129.082Z" fill="#14162E"/>
<path d="M139.391 129.082H138.55V72.6705H139.391V129.082Z" fill="#14162E"/>
<path d="M157.952 129.082H156.691V72.6705H157.952V129.082Z" fill="#14162E"/>
<path d="M115.401 129.082H112.615V72.6705H115.401V129.082Z" fill="#14162E"/>
<path d="M123.453 129.082H120.433V72.6705H123.453V129.082Z" fill="#14162E"/>
<path d="M137.892 129.082H135.53V72.6705H137.892V129.082Z" fill="#14162E"/>
<path d="M134.124 129.082H130.433V72.6705H134.124V129.082Z" fill="#14162E"/>
<path d="M149.757 129.082H144.592V72.6705H149.757V129.082Z" fill="#14162E"/>
<path d="M155.259 129.082H152.174V72.6705H155.259V129.082Z" fill="#14162E"/>
<path d="M168.343 129.082H164.25V72.6705H168.343V129.082Z" fill="#14162E"/>
<path d="M90.8233 27.8129C90.8233 27.8129 91.384 28.3114 91.9446 30.7042C93.8401 38.8038 95.6945 49.928 96.5217 52.2789C97.5214 55.1213 104.584 69.7615 104.584 69.7615L98.8289 73.8021C98.8289 73.8021 90.4489 57.7238 89.3787 54.9995C88.3103 52.275 82.9727 38.5274 82.9727 38.5274L90.8233 27.8129Z" fill="#52C6DA"/>
<path d="M93.2207 55.1213C90.4352 50.05 88.2378 41.2978 87.2479 35.4211L82.9727 38.5298C82.9727 38.5298 88.3103 52.275 89.3806 54.9995C90.4489 57.7238 98.8289 73.8021 98.8289 73.8021L100.272 72.7946C97.8879 66.3802 96.5197 61.1236 93.2207 55.1213Z" fill="#43AFCF"/>
<path d="M63.8461 36.5579C61.8898 41.1936 58.6554 53.8921 57.5361 55.9503H85.2399C86.7904 50.1769 88.6526 43.1148 89.3309 39.8568C90.8912 32.3703 90.7952 27.7501 90.7952 27.7501C90.7952 27.7501 86.665 24.1574 83.4698 21.9935C83.4698 21.9935 80.0042 25.2669 76.0171 18.9565C76.0171 18.9565 66.8707 21.4405 64.885 22.1542C64.0852 22.4398 66.0258 31.3949 63.8461 36.5579Z" fill="#52C6DA"/>
<path d="M67.6165 29.3304C66.2228 31.8159 64.5154 34.5542 63.3413 36.8045C61.4516 41.5833 58.9132 53.9327 57.8154 55.9503H69.7688C69.7041 55.0055 69.2964 53.4487 69.2964 52.3906C69.2964 49.3989 69.4846 46.5252 70.6901 43.7266C71.78 41.1973 70.3922 32.7708 69.9021 32.1919C69.1004 31.2432 68.3457 30.2907 67.6165 29.3304Z" fill="#43AFCF"/>
<path d="M168.343 53.063C149.538 62.0387 153.996 60.5685 150.944 61.3816C147.892 62.1933 129.895 63.3289 129.895 63.3289L127.907 71.0518C127.907 71.0518 149.828 69.8519 152.818 69.1643C155.805 68.4782 168.382 63.7025 168.382 63.7025L168.343 53.063Z" fill="#EF3363"/>
<path d="M138.063 63.8127C138.614 64.7614 139.602 65.4538 141.013 65.4101C144.04 65.3158 147.008 65.2378 149.899 64.8067C151.577 64.6711 153.267 64.3557 154.943 63.848C157.871 62.9582 160.829 61.962 163.595 60.6465C165.069 59.9452 166.788 59.6411 168.364 59.1044L168.382 63.7025C168.382 63.7025 155.805 68.4782 152.818 69.1643C149.828 69.8519 127.907 71.0518 127.907 71.0518L129.873 63.4085C132.547 63.6635 135.303 63.799 138.063 63.8127Z" fill="#E71D48"/>
<path d="M170.919 144.064C170.919 144.064 171.717 146.391 171.725 148.19C171.733 149.99 171.603 151.901 171.051 152.352C169.949 153.255 155.996 153.373 154.861 152.085C153.726 150.795 154.483 148.709 157.437 147.988C160.607 147.216 161.048 147.545 163.041 146.789C165.037 146.03 164.554 143.79 164.554 143.79L170.919 144.064Z" fill="#14162E"/>
<path d="M201.523 141.445C201.523 141.445 203.097 143.332 203.746 145.011C204.393 146.688 204.953 148.522 204.599 149.141C203.891 150.378 190.897 155.459 189.376 154.659C187.856 153.861 187.819 151.642 190.324 149.915C193.008 148.064 193.539 148.214 195.133 146.796C196.726 145.377 195.476 143.456 195.476 143.456L201.523 141.445Z" fill="#14162E"/>
<path d="M171.009 84.7669L189.81 86.8565C189.81 86.8565 172.997 113.733 171.725 118.049C170.452 122.366 172.193 145.83 172.193 145.83H163.682C163.682 145.83 161.853 118.118 162.272 116.031C162.69 113.941 171.009 84.7669 171.009 84.7669Z" fill="#14162E"/>
<path d="M171.725 86.1607H193.187C193.187 86.1607 195.692 92.7398 194.543 97.7536C193.395 102.766 192.628 113.42 192.734 115.3C192.838 117.18 203.317 142.245 203.317 142.245L195.502 145.15C195.502 145.15 184.727 121.253 183.682 118.538C182.637 115.821 171.725 86.1607 171.725 86.1607Z" fill="#14162E"/>
<path d="M172.634 41.7618C174.384 41.8775 176.19 41.6991 177.815 41.3508C178.411 41.2228 179.01 41.0091 179.575 40.7327C179.759 42.8889 180.365 47.9212 182.151 49.8148C182.151 49.8148 181.906 52.357 177.45 52.9825C172.995 53.6098 172.073 50.3027 172.073 50.3027C172.073 50.3027 172.934 44.938 172.634 41.7618Z" fill="#F46F5C"/>
<path d="M182.137 49.8968L182.09 50.0814L182.083 50.1028L181.975 50.3815L181.971 50.3953L181.783 50.7399L181.749 50.7889C181.585 51.0415 181.351 51.3203 181.028 51.5929L180.973 51.6396C180.808 51.7729 180.62 51.9044 180.409 52.0301L180.322 52.0791C180.099 52.2063 179.854 52.3294 179.572 52.4435C179.291 51.3279 178.725 50.2751 177.864 49.4367C176.341 47.9489 174.479 47.2099 172.476 47.1388C172.648 45.4183 172.781 43.3247 172.634 41.7619C174.385 41.8775 176.19 41.6991 177.815 41.3508C178.411 41.2228 179.011 41.0091 179.575 40.7328C179.76 42.889 180.365 47.9213 182.151 49.8148L182.141 49.8701L182.137 49.8968Z" fill="#E84A3F"/>
<path d="M179.867 28.9347C179.867 28.9347 172.403 27.0954 171.311 28.9347C170.221 30.7708 170.564 33.6429 170.135 34.9347C169.704 36.2265 167.938 37.6477 167.765 38.1654C167.593 38.6829 169.057 39.5865 169.272 39.9746C169.488 40.363 170.421 44.4969 171.742 45.3568C173.064 46.2197 179.809 43.4632 181.361 40.1469C182.91 36.8299 181.892 29.9109 179.867 28.9347Z" fill="#F46F5C"/>
<path d="M172.072 49.5497C172.072 49.5497 177.314 52.1531 181.568 49.0267C181.568 49.0267 189.669 50.4418 190.663 50.8452C191.486 51.1806 189.32 62.713 190.261 68.5093C191.2 74.3051 194.96 88.3544 194.96 88.3544C194.96 88.3544 185.039 95.9776 168.015 91.1729C168.015 91.1729 167.46 71.4765 167.642 66.004C167.907 57.9963 167.962 53.2602 167.962 53.2602C167.962 53.2602 169.908 51.2633 172.072 49.5497Z" fill="#EF3363"/>
<path d="M184.469 81.4249C185.21 78.3812 185.73 75.4095 185.197 72.2608C184.618 68.8505 187.063 64.3557 187.522 60.8863C188.01 57.1733 188.392 54.6526 190.83 52.6005C190.666 56.0991 189.533 64.0166 190.262 68.5096C191.201 74.3054 194.961 88.3546 194.961 88.3546C194.961 88.3546 188.66 93.1632 177.515 92.7138C181.907 90.0582 183.238 86.4771 184.469 81.4249Z" fill="#E71D48"/>
<path d="M176.659 29.9868C176.659 29.9868 176.518 31.8045 177.608 33.7563C178.09 34.617 175.997 37.0612 176.659 38.0987C177.098 38.7885 177.686 38.5811 178.165 37.1553C178.327 36.6676 178.839 36.313 179.307 36.0834C181.076 35.2227 181.62 37.9494 180.041 38.8391C178.935 39.4625 179.741 42.2971 179.741 42.2971C180.997 43.1777 184.963 41.8661 184.388 38.9532C184.022 37.0986 183.865 36.3949 184.498 35.9088C185.645 35.0328 187.08 32.6768 185.043 30.8283C182.238 28.2816 184.647 27.3228 181.507 26.6942C178.368 26.0663 175.889 28.0801 176.659 29.9868Z" fill="#14162E"/>
<path d="M182.08 28.1659C181.874 27.4974 180.61 26.6804 179.982 26.257C179.016 25.6023 177.912 25.2118 176.74 24.9689C175.578 24.7278 174.347 24.7355 173.194 25.0119C172.196 25.2508 171.373 25.7354 170.348 25.9C169.401 26.0533 168.452 26.0533 167.756 25.5196C167.576 26.1604 167.639 27.4255 167.737 27.8565C167.947 28.7676 168.591 29.5617 169.18 30.3574C170.775 32.5173 174.896 33.5664 177.708 32.257C179.067 31.6239 180.286 31.0748 180.911 29.8397C181.27 29.1283 181.552 28.7816 182.08 28.1659Z" fill="#14162E"/>
<path d="M63.4286 98.5323C62.817 98.4043 62.2015 98.2082 61.5801 97.9066C61.3253 97.7833 61.0744 97.6692 60.8255 97.5575C59.7728 97.0795 58.7751 96.6287 57.9283 95.6837C56.3444 93.9173 56.021 92.1126 56.8129 89.4539C57.5147 87.1056 59.2455 85.1789 61.688 84.0304C62.8033 83.505 63.7579 83.3833 64.8635 83.2463L65.2007 83.2026C66.6591 83.0128 67.8391 82.0174 68.9819 81.0563L69.1721 80.898C69.6484 80.4959 70.0757 80.0886 70.5266 79.6552C70.8363 79.3572 71.146 79.0595 71.4753 78.7631C75.8682 74.8074 82.1546 75.5348 86.6552 76.8442L86.4004 77.7224C82.1252 76.4836 76.1681 75.7677 72.0889 79.4431C71.7674 79.7316 71.4616 80.0235 71.1597 80.3152C70.7167 80.7386 70.26 81.1781 69.7601 81.5978L69.57 81.7585C68.386 82.7539 67.0433 83.8849 65.3183 84.1108L64.9772 84.1513C63.9069 84.287 63.0621 84.3948 62.08 84.8574C59.8748 85.8942 58.3164 87.6193 57.6891 89.7166C56.9834 92.0865 57.2324 93.5374 58.6104 95.0719C59.3278 95.8736 60.1982 96.268 61.2038 96.7244C61.4586 96.8384 61.7174 96.9557 61.98 97.0835C63.7325 97.9319 65.4535 97.8591 67.2765 97.7833C68.339 97.7382 69.4387 97.6907 70.5736 97.8301C73.02 98.1302 75.2272 97.4457 77.5167 95.6776L77.6833 95.5506C80.6393 93.2648 82.9759 91.4616 86.6925 90.3974L87.2355 90.2441C89.968 89.47 91.7753 88.9578 93.3435 86.535C94.8627 84.1911 95.3057 81.2624 94.4197 79.4117C93.8218 78.165 92.6712 77.4499 91.0167 77.2768L91.1108 76.3679C93.5983 76.6268 94.7333 77.95 95.2449 79.0158C96.4308 81.4937 95.488 84.9088 94.1119 87.0334C92.3555 89.7442 90.2052 90.3537 87.4844 91.124L86.9454 91.2771C83.3954 92.2925 81.1215 94.0489 78.242 96.2733L78.0773 96.4011C75.5839 98.3278 73.1631 99.0713 70.4619 98.7373C69.4014 98.6079 68.3409 98.6532 67.3157 98.6967C66.0475 98.7512 64.7498 98.8063 63.4286 98.5323Z" fill="white"/>
<path d="M99.6556 82.5756C93.0987 85.0688 88.2295 77.6537 93.1242 72.6275C93.4672 72.2784 93.8887 72.0005 94.3474 71.8258C100.902 69.3328 105.771 76.7479 100.877 81.7725C100.536 82.1232 100.112 82.4012 99.6556 82.5756ZM172.487 72.9529L105.225 59.0064C103.257 58.5967 101.21 58.808 99.3675 59.6097L87.2396 64.887C84.3405 66.1488 82.2352 68.7385 81.5942 71.8335L80.7297 75.9975C80.0887 79.0947 80.9904 82.3069 83.1486 84.6186L92.1774 94.2803C93.5495 95.7505 95.3431 96.7582 97.3112 97.1655L164.574 111.114C169.837 112.205 174.989 108.824 176.079 103.562L180.04 84.4578C181.132 79.1943 177.751 74.045 172.487 72.9529Z" fill="#52C6DA"/>
<path d="M116.093 79.5687L116.889 79.7357C117.701 79.9041 118.312 79.8437 118.722 79.5589C119.132 79.2747 119.461 78.7356 119.712 77.9478L119.81 77.5695C119.924 77.0191 119.857 76.597 119.612 76.3069C119.31 75.95 118.74 75.6859 117.895 75.5113L117.424 75.4133L116.093 79.5687ZM113.833 86.6555L114.745 86.8431C115.57 87.0162 116.201 86.9433 116.64 86.6318C117.078 86.3201 117.432 85.7373 117.703 84.885C117.773 84.6677 117.83 84.4595 117.871 84.2595C117.997 83.6538 117.977 83.1714 117.811 82.817C117.593 82.3522 117.066 82.0329 116.229 81.8583L115.413 81.6899L113.833 86.6555ZM109.956 88.1823L114.921 72.6215L118.932 73.4546C119.52 73.5763 120.035 73.7218 120.478 73.8841C120.921 74.0511 121.323 74.2663 121.69 74.5372C122.055 74.8054 122.327 75.1169 122.511 75.4723C122.694 75.8269 122.79 76.2579 122.797 76.7678C122.801 77.0681 122.768 77.3888 122.697 77.7265C122.646 77.9715 122.58 78.2181 122.494 78.4753C121.87 80.3467 120.755 81.2426 119.146 81.1622C120.718 81.7763 121.314 83.0091 120.929 84.8652C120.882 85.0865 120.82 85.3184 120.745 85.5574C120.269 87.0781 119.514 88.137 118.479 88.7327C117.446 89.3285 116.178 89.4717 114.674 89.1601L109.956 88.1823Z" fill="white"/>
<path d="M127.189 82.231L127.975 82.3935C128.767 82.558 129.388 82.4953 129.833 82.2073C130.28 81.9209 130.635 81.3742 130.896 80.5688C130.956 80.3728 131.003 80.1883 131.039 80.0174C131.152 79.5007 131.143 79.0863 131.005 78.7785C130.825 78.3688 130.356 78.0811 129.604 77.9186L128.633 77.718L127.189 82.231ZM121.161 90.5045L126.126 74.9469L130.09 75.7678C130.76 75.9072 131.341 76.0679 131.829 76.254C132.317 76.4386 132.748 76.6713 133.124 76.9577C133.499 77.2417 133.779 77.5671 133.961 77.9317C134.151 78.3045 134.248 78.7456 134.249 79.2509C134.251 79.5589 134.214 79.888 134.134 80.2395C134.085 80.4745 134.022 80.7195 133.942 80.9708C133.634 81.9447 133.218 82.7166 132.693 83.2817C132.168 83.8461 131.499 84.2105 130.684 84.3775L130.609 92.4634L127.453 91.8102L127.736 84.3636L126.585 84.1262L124.335 91.1632L121.161 90.5045Z" fill="white"/>
<path d="M137.176 88.0528L139.114 88.4547L140.138 82.0251L137.176 88.0528ZM131.538 92.657L139.644 77.7493L143.096 78.4652L141.247 94.6699L138.301 94.0589L138.807 90.4617L136.247 89.9303L134.541 93.2803L131.538 92.657Z" fill="white"/>
<path d="M142.818 94.9954L147.786 79.4375L150.001 79.8962L150.985 88.8558L153.607 80.6452L156.246 81.1919L151.279 96.7504L149.167 96.313L148.311 86.8413L145.523 95.5558L142.818 94.9954Z" fill="white"/>
<path d="M157.515 95.7327L158.205 95.876C158.468 95.9303 158.703 95.9563 158.915 95.9579C159.124 95.9579 159.305 95.9426 159.46 95.9089L159.889 95.6937L160.222 95.3683C160.31 95.2642 160.4 95.1019 160.496 94.8835C160.591 94.6685 160.671 94.4738 160.732 94.3094C160.792 94.1408 160.873 93.8997 160.971 93.588L162.933 87.4508C163.045 87.1077 163.129 86.8015 163.184 86.5336C163.215 86.3513 163.237 86.1905 163.255 86.0472C163.292 85.6805 163.196 85.3925 162.97 85.1767C162.745 84.963 162.339 84.7968 161.757 84.6751L161.087 84.5357L157.515 95.7327ZM153.64 97.2405L158.607 81.682L162.443 82.4775C163.441 82.6835 164.244 82.9499 164.85 83.2716C165.458 83.5946 165.895 84.0027 166.163 84.4944C166.43 84.9868 166.556 85.5435 166.532 86.1668C166.518 86.4899 166.469 86.8466 166.389 87.2371C166.314 87.6017 166.209 87.9998 166.071 88.4324L164.278 94.0428C163.896 95.2442 163.437 96.1716 162.9 96.8284C162.363 97.4855 161.661 97.9203 160.792 98.1339C159.924 98.3452 158.85 98.3202 157.562 98.0536L153.64 97.2405Z" fill="white"/>
<path d="M95.7003 80.643C95.4317 80.8038 95.1455 80.9347 94.8417 81.029C95.0044 82.7326 94.4732 84.7948 93.3441 86.535C92.7266 87.4901 91.5113 88.5015 90.3057 89.1562C89.506 89.5894 88.6925 89.7794 88.124 90.0031C88.3122 90.2504 88.4965 90.5045 88.6827 90.7579C89.2002 90.5421 89.9333 90.3735 90.6684 89.9738C91.9954 89.2543 93.4068 88.1232 94.1125 87.0335C95.2063 85.3436 96.008 82.8443 95.7003 80.643Z" fill="white"/>
<path d="M124.457 62.3977C125.535 60.9955 127.807 61.0622 129.209 61.6542C130.34 62.1327 130.407 63.3639 130.567 65.1634C130.677 66.3785 130.728 67.5248 130.407 67.8955C128.96 68.9597 128.917 64.897 128.678 63.8694C128.678 63.8694 129.234 68.1603 128.48 68.5287C127.062 69.1757 127.115 65.21 126.957 64.2201C127.219 65.161 127.247 66.9015 127.057 67.1604C127.049 67.9269 126.463 67.7759 126.322 67.6895C125.598 67.2529 125.602 64.0064 125.602 64.0064C125.602 64.5829 126.047 66.7039 125.116 66.2728C124.51 65.9904 124.477 65.0706 124.359 64.5806C124.132 63.6342 124.214 62.7131 124.457 62.3977Z" fill="#F46F5C"/>
<path d="M186.237 81.2585C184.763 81.1974 182.971 81.4785 181.452 81.4785C180.76 81.4785 180.045 81.3758 179.357 81.3367C178.921 81.3115 178.039 81.1644 177.785 81.6484C177.506 82.182 178.378 82.3696 178.722 82.4447C179.217 82.5542 180.245 82.4852 180.339 83.1499C180.474 84.1148 178.669 84.3735 177.965 84.6813C177.312 84.9669 175.581 85.5765 176.714 86.2159C177.479 86.647 179.088 85.6629 179.739 85.4003C178.884 85.6377 178.139 85.947 177.373 86.388C176.928 86.6431 176.058 86.9937 176.058 87.4922C176.058 88.2228 177.673 87.7841 178.073 87.6118C179.023 87.1982 179.216 87.0902 179.872 86.6178C179.194 86.9761 176.701 88.0329 177.516 88.8957C178.016 89.425 179.962 87.9409 180.739 87.6255C180.311 88.0191 179.033 88.2251 179.137 89.0582C179.19 89.4754 179.913 89.1423 180.26 88.954C180.748 88.6876 181.186 88.2992 181.678 88.0666C182.062 87.8843 182.319 87.6569 182.734 87.3605C183.616 86.7334 184.416 86.5841 185.178 85.767C185.892 85.0022 186.558 84.2318 187.297 83.601C185.88 83.0772 187.325 82.0189 186.237 81.2585Z" fill="#F46F5C"/>
<path d="M184.082 80.8679L186.172 85.6965C186.172 85.6965 207.74 78.698 206.728 73.0355C205.84 68.0638 193.291 51.408 190.557 50.81C186.883 50.0069 185.411 58.7628 187.522 60.8861C191.972 65.3609 198.321 71.6573 197.8 72.6727C197.276 73.6865 184.082 80.8679 184.082 80.8679Z" fill="#EF3363"/>
<path d="M69.6443 79.8275C69.8266 80.4079 70.9988 81.3894 70.4715 82.0916C70.2069 82.4446 69.1523 81.5251 68.9347 81.1744C68.6309 80.6783 66.5883 76.6092 66.3198 75.4698C66.11 74.5763 65.9179 73.7095 65.6631 72.8848C66.6118 72.453 67.4998 71.8549 68.327 71.1849C69.5169 71.8947 70.7616 72.8395 71.9358 73.5119C72.565 73.8726 73.2687 74.1527 73.9137 74.4744C74.3214 74.678 75.1996 75.005 75.178 75.5778C75.1545 76.2048 74.2645 75.9232 73.9137 75.8128C73.406 75.6521 72.5082 75.0564 72.0789 75.6107C71.4536 76.4169 72.959 77.5909 73.4373 78.2378C73.8823 78.8374 75.5465 80.7173 74.1822 80.7057C73.896 80.7033 72.1573 78.8535 71.8809 78.6024L73.0865 80.0963C73.357 80.5587 74.1822 81.5488 73.8607 81.9585C73.1707 82.8367 71.4163 80.1368 71.1439 79.7722L71.8064 80.8329C72.3827 81.6468 72.7258 82.3192 72.1495 82.4936C71.4203 82.7126 70.1853 80.5197 69.6443 79.8275Z" fill="#F46F5C"/>
<path d="M70.0133 71.3649L65.0344 74.4446C65.0344 74.4446 54.0611 55.3936 53.867 49.9066C53.7102 45.4845 54.6217 39.9959 58.9244 30.2631C61.6687 24.057 64.6502 21.5622 65.889 22.0539C66.7692 22.4045 71.7579 24.6298 69.2998 32.2493C68.4432 34.9094 62.8468 46.2512 62.7566 47.3369C62.6664 48.4227 70.0133 71.3649 70.0133 71.3649Z" fill="#52C6DA"/>
<path d="M96.4828 73.7133C97.5589 75.1154 99.8328 75.0503 101.234 74.4583C102.365 73.9806 102.432 72.7508 102.595 70.9513C102.703 69.7346 102.755 68.5877 102.434 68.217C100.987 67.1528 100.942 71.2163 100.703 72.2431C100.703 72.2431 101.264 67.953 100.507 67.5839C99.0918 66.9352 99.1428 70.9023 98.982 71.8908C99.2447 70.9513 99.2741 69.211 99.0839 68.9521C99.0761 68.1841 98.49 68.335 98.3489 68.4207C97.6255 68.858 97.6275 72.1045 97.6275 72.1045C97.6275 71.528 98.0745 69.4071 97.1433 69.8381C96.5376 70.1182 96.5024 71.0403 96.3847 71.5304C96.1574 72.4744 96.2397 73.3979 96.4828 73.7133Z" fill="#F46F5C"/>
<path d="M94.1548 2.61117C94.1548 2.61117 96.2974 5.69381 91.3164 7.75831C86.3336 9.82026 79.165 4.3883 79.165 4.3883C79.165 4.3883 79.3493 1.68379 83.3246 0.525298C86.2944 -0.339158 89.0779 -0.218205 90.5931 1.50306C93.1708 4.42594 94.1548 2.61117 94.1548 2.61117Z" fill="#14162E"/>
</svg>
