<svg width="188" height="153" viewBox="0 0 188 153" fill="none" xmlns="http://www.w3.org/2000/svg">
<path d="M67.9494 81.9962L67.3308 146.211C67.299 149.546 66.3542 151.48 61.5889 152.095C55.6595 152.86 53.8637 151.816 52.9864 150.185C51.3348 147.122 35.1589 85.7529 32.4876 81.58C29.8163 77.4053 67.9494 81.9962 67.9494 81.9962Z" fill="#52C6DA"/>
<path d="M67.8163 95.8271L67.9494 81.9962C67.9494 81.9962 29.8163 77.4053 32.4876 81.5801C33.1175 82.5642 35.6069 90.4769 37.4703 96.5994L67.8163 95.8271Z" fill="#43AFCF"/>
<path d="M7.90015 59.8852C4.52587 59.8721 1.56401 62.1629 0.81229 65.4509C0.369884 67.3855 0.0286936 69.8563 0.00244921 72.9194C-0.029419 76.5805 0.244288 78.9574 1.14222 80.9576C2.23137 83.389 4.70959 84.8924 7.37152 84.988C20.4075 85.4604 67.355 87.3013 77.1423 89.6014C88.5381 92.2803 126.709 109.223 126.709 109.223L119.432 23.3717C119.432 23.3717 84.3689 51.7907 62.108 56.2091C44.7923 59.6471 18.6547 59.9302 7.90015 59.8852Z" fill="#C7C8D7"/>
<path d="M31.7841 86.0136C36.6356 86.2441 41.6914 86.5029 46.6554 86.7897C43.5398 76.7324 44.7714 65.2336 46.361 58.3726C41.3971 58.8412 36.3244 59.1636 31.4542 59.3923C29.1428 69.174 29.5496 78.3558 31.7841 86.0136Z" fill="#14162E"/>
<path d="M163.954 63.4338C164.2 94.4716 149.418 119.749 130.941 119.895C112.463 120.041 97.2858 94.9984 97.0421 63.9606C96.7965 32.9228 111.578 7.64382 130.056 7.49947C148.534 7.35326 163.71 32.3961 163.954 63.4338Z" fill="#DFE1E9"/>
<path d="M161.46 63.4545C161.668 89.8564 149.095 111.36 133.377 111.484C117.658 111.607 104.746 90.3044 104.54 63.9007C104.332 37.4988 116.905 15.9952 132.623 15.8715C148.342 15.7478 161.254 37.0508 161.46 63.4545Z" fill="#14162E"/>
<path d="M126.977 68.3117C127.651 58.9049 121.495 50.801 113.224 50.2086C110.398 50.0043 107.715 50.7617 105.347 52.147C104.809 55.9168 104.508 59.8403 104.539 63.9007C104.594 70.8799 105.557 77.4841 107.203 83.4491C108.345 83.8634 109.528 84.1746 110.782 84.2664C119.051 84.8588 126.302 77.7147 126.977 68.3117Z" fill="#EF3363"/>
<path d="M77.3096 33.967C77.2028 32.9735 77.1259 32.0474 77.6714 31.0933C77.1878 31.1739 76.4698 31.2489 76.5091 30.9639C76.5654 30.5815 76.6479 30.0323 76.3686 30.0829C76.0986 30.1316 75.8812 30.2909 75.645 30.4465C75.1463 30.7765 74.5746 30.8177 73.9784 30.8533C73.7816 31.5113 73.223 32.5236 73.581 33.2303C73.7666 33.5978 74.7452 33.4234 75.1801 33.5902C75.8962 33.8621 76.7079 33.9277 77.3096 33.967Z" fill="#F46F5C"/>
<path d="M63.5709 3.65281C63.5709 3.65281 59.4355 3.42033 53.8398 6.06727L56.4493 17.4218C56.4493 17.4218 59.1243 15.8002 62.8042 16.0233L63.5709 3.65281Z" fill="#EF3363"/>
<path d="M60.8386 9.61765C60.863 7.7243 60.9811 5.83099 61.0242 3.93951C62.6101 3.66207 63.5699 3.65269 63.5699 3.65269L62.8032 16.0232C61.7403 14.4017 61.2323 14.7616 61.0223 14.5629C61.0279 12.9282 60.8161 11.2392 60.8386 9.61765Z" fill="#EC1E4B"/>
<path d="M86.16 4.24701C86.16 4.24701 71.36 -1.57362 61.6608 0.413462L61.0234 14.563C61.0234 14.563 69.6241 12.6602 81.5335 17.8754L86.16 4.24701Z" fill="#EF3363"/>
<path d="M73.8662 37.5439L75.0697 37.9619L86.7129 4.43838L85.5094 4.02035L73.8662 37.5439Z" fill="#14162E"/>
<path d="M74.7293 34.0458V30.0398C74.7293 30.0398 62.7749 30.1335 57.7623 28.6957C52.7477 27.2578 46.0328 21.3622 43.3578 22.3164C40.6846 23.2706 38.9787 25.9962 42.2986 28.6019C45.6186 31.2076 53.4994 33.4628 56.9168 33.9839C59.2844 34.3457 72.8453 34.0439 74.7293 34.0458Z" fill="#52C6DA"/>
<path d="M54.7304 31.5452C50.5107 29.7906 46.5215 25.972 43.1229 22.4121C40.5884 23.4394 39.0793 26.0732 42.298 28.602C45.6179 31.2077 53.4988 33.4629 56.9162 33.984C58.0803 34.1621 61.9495 34.179 65.8055 34.1509C61.987 33.7722 58.2247 32.998 54.7304 31.5452Z" fill="#43AFCF"/>
<path d="M54.6238 80.4571C54.6238 80.4571 52.288 84.2269 52.6311 85.123C52.976 86.019 61.0949 90.7337 62.1878 90.3569C63.2807 89.982 63.4907 88.6904 62.036 87.3931C60.7294 86.2271 59.4547 85.8953 58.5792 84.7593C57.8106 83.7602 58.5755 81.2126 58.5755 81.2126L54.6238 80.4571Z" fill="#14162E"/>
<path d="M40.979 48.4671C40.979 48.4671 42.6061 49.8 44.3214 49.5769C46.0348 49.3519 62.76 51.0897 64.4734 52.5069C66.1886 53.9241 59.172 82.2156 59.172 82.2156L53.3551 81.2464C53.3551 81.2464 55.4415 60.5621 55.0928 60.414C54.7442 60.264 45.9635 60.2977 30.9892 60.2977C27.3356 60.2977 23.2602 52.6193 27.883 47.2505L40.979 48.4671Z" fill="#EF3363"/>
<path d="M43.5841 16.9548C43.0049 16.7093 42.5006 16.355 42.0188 15.9669C41.7901 17.6878 41.1434 20.8596 39.3906 22.5149C39.3906 22.5149 43.018 24.0146 45.9948 23.3547C45.9948 23.3547 45.6443 19.3187 46.2591 17.3429C45.35 17.3991 44.4352 17.3129 43.5841 16.9548Z" fill="#F46F5C"/>
<path d="M41.8088 21.8644C42.375 20.0835 44.1709 18.9775 45.9742 18.9569C46.0286 18.3607 46.1186 17.7965 46.2591 17.3429C45.35 17.3991 44.4352 17.3129 43.5841 16.9548C43.0049 16.7092 42.5006 16.3549 42.0188 15.9669C41.7901 17.6878 41.1434 20.8596 39.3906 22.5149C39.3906 22.5149 40.2811 22.8823 41.5389 23.1729C41.567 22.7436 41.6645 22.3162 41.8088 21.8644Z" fill="#E84A3F"/>
<path d="M42.5474 7.15256C42.5474 7.15256 46.8346 5.80661 48.19 6.65206C49.5453 7.4975 50.6007 10.1576 50.3645 11.7135C50.1302 13.2713 51.9167 15.0765 51.9635 15.6389C52.001 16.0907 50.6063 16.415 50.5632 16.5893C50.5182 16.7618 50.4357 19.598 48.5574 20.0779C45.9142 20.7509 42.3787 18.6251 41.1658 17.0261C39.9511 15.427 38.517 8.11236 42.5474 7.15256Z" fill="#F46F5C"/>
<path d="M50.5307 7.33435C50.3039 7.10752 49.7247 6.7401 49.5822 6.44954C49.4622 6.20584 49.4078 5.92841 49.256 5.70721C48.7798 5.01173 48.6674 4.50185 46.7084 3.88885C45.0044 3.35459 42.8317 3.96945 41.4801 5.0511C40.9815 5.44851 40.5466 5.93402 40.2354 6.49265C40.1417 6.65949 39.8474 7.12065 39.9167 7.29686C40.0067 7.51807 40.6403 7.66993 40.839 7.78428C41.1915 7.98861 41.4858 8.30728 41.8044 8.56597C43.7597 10.1538 46.8171 11.8559 48.9711 9.6495C49.2541 9.35894 49.5372 9.04776 49.779 8.72158C50.1727 9.59515 50.4651 10.6037 50.3714 11.5691C50.3714 11.5691 51.0725 11.0423 51.245 10.1912C51.5393 8.7553 51.0725 7.87611 50.5307 7.33435Z" fill="#14162E"/>
<path d="M41.4677 7.2033C40.9484 6.92211 39.9736 7.01394 39.4356 7.13017C38.3109 7.37386 37.7016 8.19682 37.5029 9.29159C37.3848 9.95145 37.2911 10.63 37.3005 11.3012C37.3192 12.4915 37.3773 13.2376 37.8028 14.3474C38.2059 15.3953 38.7533 16.4301 39.5931 17.1912C40.3523 17.8792 41.8426 18.6721 42.5849 18.3741C42.8736 18.2578 43.2898 16.1883 43.2129 15.6503C43.1379 15.1329 42.883 15.1273 42.4781 14.8967C41.7939 14.5068 41.0309 13.7438 41.5295 12.9171C42.2419 11.7361 43.5672 12.276 44.0434 13.9088C44.0434 13.9088 44.5626 14.8254 44.857 14.6811C45.1513 14.533 46.4691 9.90085 41.4677 7.2033Z" fill="#14162E"/>
<path d="M42.0088 13.0838C42.0088 13.0838 42.7324 12.7783 43.2798 13.4175C43.7915 14.0136 43.5497 14.9753 43.0454 14.6154C42.5412 14.2536 42.7417 13.9405 42.6536 13.6443C42.5655 13.3481 42.2056 13.1119 42.0088 13.0838Z" fill="#E84A3F"/>
<path d="M25.8184 46.9C25.8184 46.9 31.8733 51.5958 44.4294 49.5056C44.4294 49.5056 44.3957 45.9008 45.4511 42.3746C46.5046 38.8466 48.083 31.9762 48.1299 28.3489C48.1805 24.251 45.9347 22.4064 45.9347 22.4064C45.9347 22.4064 43.5765 24.6184 40.0616 21.7372C40.0616 21.7372 33.4049 23.3156 30.2855 30.8871C27.1681 38.4586 25.8184 46.9 25.8184 46.9Z" fill="#52C6DA"/>
<path d="M40.9386 27.644C37.6974 31.1457 40.8336 39.7633 44.9315 44.5717C45.0665 43.8556 45.2277 43.1207 45.4508 42.3746C46.0057 40.5168 46.703 37.7312 47.2485 34.9812C46.1519 34.3044 45.2146 33.2865 44.626 31.86C43.3662 28.8081 42.547 26.7423 40.9386 27.644Z" fill="#43AFCF"/>
<path d="M67.2057 51.7346C67.6819 52.0982 68.1449 52.4413 68.7317 52.5219C69.0054 52.5575 69.2716 52.58 69.5078 52.7187C69.7515 52.865 70.087 52.9418 70.3776 53.0318C70.6494 53.1143 70.9906 53.1818 71.2005 53.4236C71.4499 53.7141 70.97 53.806 70.6419 53.821C70.2839 53.8378 69.3484 53.2267 69.0691 53.4817C68.7898 53.7366 69.9745 54.4077 70.2126 54.539C70.775 54.8464 71.1893 54.6008 71.7685 54.6102C72.1078 54.6139 72.2616 54.7189 72.0272 55.0338C71.8548 55.2682 71.5117 55.2776 71.2455 55.2963C70.7038 55.3338 70.0795 55.2626 69.5771 55.0245C69.9464 55.257 70.6681 55.405 71.1049 55.4388C71.4067 55.4613 72.7096 55.3357 72.7133 55.8137C72.7246 56.7716 69.8358 56.1605 69.4103 55.8287C69.8696 56.1174 70.3963 56.2242 70.9231 56.3442C71.2305 56.4154 71.9673 56.5504 71.5623 56.9478C70.9643 57.5346 69.5434 56.5654 68.8292 56.2448C69.2209 56.6066 69.6315 56.7566 70.1357 57.0247C70.73 57.3396 70.2913 57.6677 69.624 57.4484C69.3447 57.3584 68.8179 57.0809 68.7054 57.0191C67.5113 56.3573 67.0652 55.7443 66.4259 54.599C66.1953 54.1866 65.3424 53.6748 65.4267 53.2755C65.5917 52.5031 66.6471 52.1039 67.2057 51.7346Z" fill="#F46F5C"/>
<path d="M68.0924 51.1478L65.661 54.4434C65.661 54.4434 50.0981 47.7042 48.6996 45.9252C47.2974 44.1424 42.7234 37.6244 42.0092 35.8904C40.3501 31.86 38.2918 27.0573 42.0092 26.2156C44.0375 25.7563 45.3441 26.2662 46.6057 29.2543C48.3191 33.3147 51.9633 39.7502 53.448 41.7054C54.0216 42.4628 68.0924 51.1478 68.0924 51.1478Z" fill="#52C6DA"/>
<path d="M79.0463 31.1589C79.2675 31.5095 78.662 33.0111 78.0827 33.6409C77.6291 34.1358 77.0911 33.9915 76.6412 33.744C76.1556 33.4516 75.5764 33.3447 75.5033 33.0617C75.4002 31.9425 76.4368 32.7824 76.8961 32.9473C76.8961 32.9473 75.6439 32.3249 75.6607 31.7869C75.7095 30.7784 77.2504 31.9425 77.6834 32.1375C77.2448 32.0175 76.5512 31.532 76.4931 31.3445C76.195 31.1215 76.3806 30.8159 76.4462 30.7559C76.7799 30.4447 78.0902 31.3858 78.0902 31.3858C77.8559 31.2171 76.8961 30.8721 77.2823 30.4297C77.5391 30.1373 77.9234 30.381 78.1558 30.4522C78.6057 30.5872 78.975 30.9134 79.0463 31.1589Z" fill="#F46F5C"/>
<path d="M76.095 31.1156L76.5224 30.9825L76.5092 30.9637C76.5655 30.5813 78.022 30.4838 78.3445 30.3151C79.323 29.8052 78.9275 29.1904 78.4851 29.3291C78.1814 29.4247 77.4953 29.6271 77.2329 29.7452C76.9535 29.869 76.4999 29.8089 76.2206 29.8596C75.9506 29.9102 75.2008 30.5757 74.9646 30.7313C74.4659 31.0612 75.5644 31.3312 76.095 31.1156Z" fill="#F46F5C"/>
<path d="M184.892 42.5772C185.215 43.4545 182.311 45.3272 178.408 46.7632C174.503 48.1972 171.078 48.649 170.756 47.7717C170.433 46.8944 173.337 45.0217 177.24 43.5876C181.145 42.1535 184.572 41.7017 184.892 42.5772Z" fill="#C7C8D7"/>
<path d="M177.791 25.0026C178.162 25.8612 175.369 27.8951 171.552 29.5485C167.736 31.2019 164.343 31.8468 163.97 30.9901C163.598 30.1334 166.392 28.0976 170.208 26.4442C174.025 24.7908 177.42 24.1459 177.791 25.0026Z" fill="#C7C8D7"/>
<path d="M183.046 89.4985C182.769 90.3927 179.325 90.1172 175.353 88.8855C171.379 87.6539 168.383 85.933 168.66 85.0389C168.936 84.1484 172.381 84.4221 176.354 85.6537C180.326 86.8854 183.322 88.6081 183.046 89.4985Z" fill="#C7C8D7"/>
<path d="M175.824 108.514C175.475 109.382 172.065 108.826 168.207 107.272C164.349 105.719 161.503 103.757 161.852 102.891C162.201 102.025 165.611 102.581 169.471 104.133C173.328 105.686 176.172 107.648 175.824 108.514Z" fill="#C7C8D7"/>
<path d="M187.055 66.2572C187.006 67.1907 183.6 67.7719 179.446 67.5563C175.292 67.3407 171.964 66.409 172.013 65.4755C172.062 64.5438 175.468 63.9627 179.622 64.1782C183.774 64.3938 187.104 65.3255 187.055 66.2572Z" fill="#C7C8D7"/>
</svg>
