<svg width="166" height="161" viewBox="0 0 166 161" fill="none" xmlns="http://www.w3.org/2000/svg">
<path d="M144.484 76.787C144.484 116.671 112.151 149.003 72.2671 149.003C32.3827 149.003 0.0498047 116.671 0.0498047 76.787C0.0498047 36.9027 32.3827 4.57051 72.2671 4.57051C112.151 4.57051 144.484 36.9027 144.484 76.787Z" fill="#EF3363"/>
<path d="M127.004 76.7868C127.004 107.018 102.497 131.523 72.2669 131.523C42.0359 131.523 17.5293 107.018 17.5293 76.7868C17.5293 46.5554 42.0359 22.0501 72.2669 22.0501C102.497 22.0501 127.004 46.5554 127.004 76.7868Z" fill="white"/>
<path d="M111.365 76.7866C111.365 98.3802 93.8613 115.885 72.2681 115.885C50.6741 115.885 33.1699 98.3802 33.1699 76.7866C33.1699 55.193 50.6741 37.6884 72.2681 37.6884C93.8613 37.6884 111.365 55.193 111.365 76.7866Z" fill="#EF3363"/>
<path d="M99.1756 76.7871C99.1756 91.649 87.128 103.697 72.2675 103.697C57.4053 103.697 45.3584 91.649 45.3584 76.7871C45.3584 61.9252 57.4053 49.8776 72.2675 49.8776C87.128 49.8776 99.1756 61.9252 99.1756 76.7871Z" fill="white"/>
<path d="M84.6868 76.787C84.6868 83.6465 79.1258 89.2065 72.2673 89.2065C65.4079 89.2065 59.8477 83.6465 59.8477 76.787C59.8477 69.9275 65.4079 64.3674 72.2673 64.3674C79.1258 64.3674 84.6868 69.9275 84.6868 76.787Z" fill="#EF3363"/>
<path d="M104.415 44.535L103.415 46.9983L101.713 46.237C101.615 46.2599 100.246 46.2045 99.6923 46.0939C99.1393 45.9813 98.7054 45.5997 98.5259 45.4909C98.3238 45.3688 97.9863 44.9815 98.2874 44.8899C98.552 44.8097 98.8523 45.1761 99.0252 45.2486C99.1988 45.3211 99.8041 45.323 99.8041 45.323C99.8041 45.323 99.5776 45.2181 99.1347 45.0406C98.5967 44.825 97.8052 44.5121 97.6449 44.3518C97.4928 44.2011 97.5293 43.8729 97.9445 43.9511C98.4453 44.0446 98.906 44.2774 98.9903 44.3022L99.8638 44.6132C99.8638 44.6132 99.1824 44.3518 98.9403 44.2431C98.669 44.1209 97.9214 43.8252 97.4474 43.6134C96.9904 43.4092 97.0933 42.8941 97.5129 42.9246C97.8229 42.9475 98.8687 43.5142 99.0334 43.5676L99.9218 43.9549L98.9105 43.4646C98.7659 43.3672 97.8037 43.0028 97.6919 42.7166C97.6382 42.5773 97.6993 42.2968 98.034 42.3522C98.4238 42.4171 98.9828 42.6326 99.2406 42.7643C99.4501 42.8712 100.821 43.5275 101.123 43.539C101.396 43.5504 101.696 43.5218 101.702 43.1783L102.171 42.3102C102.171 42.3102 102.487 42.4647 102.653 43.2509C102.742 43.6764 103.456 44.2202 104.415 44.535Z" fill="#F46F5C"/>
<path d="M133.095 54.682C133.091 52.5621 131.425 50.8105 129.329 50.4938C125.89 49.9748 119.5 48.9883 117.573 48.5438C114.892 47.9256 103.94 44.2697 103.94 44.2697L102.742 47.1623C102.742 47.1623 114.656 53.146 116.799 53.6154C118.942 54.0828 129.945 57.9868 132.079 56.7561C132.825 56.3268 133.096 55.5425 133.095 54.682Z" fill="#49C3D0"/>
<path d="M141.799 83.345L141.108 81.2747H110.166L110.826 83.345H141.799Z" fill="#14162E"/>
<path d="M145.475 94.3755L144.778 92.2823H113.671L114.337 94.3755H145.475Z" fill="#14162E"/>
<path d="M137.144 72.3145L136.454 70.2442H105.512L106.171 72.3145H137.144Z" fill="#14162E"/>
<path d="M149.194 105.524L148.489 103.408H117.215L117.889 105.524H149.194Z" fill="#14162E"/>
<path d="M152.952 116.793L152.239 114.654H120.798L121.478 116.793H152.952Z" fill="#14162E"/>
<path d="M156.749 128.184L156.028 126.022H124.416L125.105 128.184H156.749Z" fill="#14162E"/>
<path d="M160.589 139.699L159.86 137.513H128.076L128.772 139.699H160.589Z" fill="#14162E"/>
<path d="M164.139 156.273H164.285C165.262 156.273 165.952 155.315 165.642 154.388L136.584 67.3457C136.389 66.7618 135.842 66.3668 135.227 66.3668H133.225L162.781 155.292C162.975 155.878 163.523 156.273 164.139 156.273Z" fill="#14162E"/>
<path d="M132.666 156.273H132.825C133.794 156.273 134.483 155.33 134.188 154.407L106.406 67.3628C106.216 66.7694 105.665 66.3668 105.042 66.3668H105.012C104.043 66.3668 103.354 67.3094 103.647 68.2329L131.302 155.275C131.491 155.868 132.042 156.273 132.666 156.273Z" fill="#14162E"/>
<path d="M132.596 41.0489L132.409 41.2549C131.802 41.8655 131.165 42.4875 130.445 42.9646C130.007 43.2565 129.328 43.4454 128.953 43.7487L128.481 44.0827C128.7 45.3076 129.243 48.5285 129.157 49.7859C129.157 49.7859 133.075 49.5092 134.504 47.9255C134.504 47.9255 132.879 43.5618 132.596 41.0489Z" fill="#F46F5C"/>
<path d="M130.495 47.5993C130.767 46.483 131.394 45.3935 132.279 44.6455C132.584 44.3879 132.892 44.159 133.217 43.9491C132.934 42.9302 132.69 41.8865 132.596 41.0489L132.409 41.2549C131.802 41.8655 131.165 42.4875 130.445 42.9646C130.007 43.2565 129.328 43.4454 128.953 43.7487L128.481 44.0827C128.7 45.3076 129.243 48.5285 129.157 49.7859C129.157 49.7859 129.83 49.7363 130.716 49.5703C130.43 48.9711 130.328 48.2823 130.495 47.5993Z" fill="#E84A3F"/>
<path d="M130.427 110.964C130.427 110.964 130.319 114.87 129.708 115.404C129.097 115.938 121.326 116.171 120.658 115.458C119.988 114.746 120.381 113.546 122.049 113.082C123.837 112.586 124.714 113.072 125.835 112.605C126.955 112.139 126.658 110.373 126.658 110.373L130.427 110.964Z" fill="#14162E"/>
<path d="M149.696 110.831C149.696 110.831 150.295 114.635 149.705 115.193C149.116 115.75 141.2 116.372 140.504 115.685C139.809 115 140.155 113.784 141.804 113.258C143.572 112.693 144.427 113.052 145.568 112.636C146.464 112.31 145.861 110.497 145.861 110.497L149.696 110.831Z" fill="#14162E"/>
<path d="M143.953 88.9319C144.125 78.1246 142.891 70.6927 142.331 67.2124C141.039 67.2601 139.743 67.3746 138.451 67.9623C136.079 69.0422 133.693 70.0764 131.311 71.1163C133.246 75.1194 137.481 88.1877 137.992 90.922C138.626 94.3241 145.737 111.676 145.737 111.676L150.04 111.136C149.97 108.339 143.938 89.8688 143.953 88.9319Z" fill="#C7C8D7"/>
<path d="M135.126 69.5059C133.877 70.1146 132.583 70.5955 131.287 71.0687C133.186 74.9936 136.649 85.86 137.431 88.7488C138.035 86.9266 140.953 82.5227 142.074 77.7011C142.822 74.4783 142.951 71.1412 142.436 67.8727L142.429 67.8345C140.016 67.9985 137.68 68.26 135.126 69.5059Z" fill="#9FA2BE"/>
<path d="M138.342 68.9143C136.666 69.481 133.615 70.2919 131.311 71.1162C129.706 75.1708 124.966 84.7397 124.72 89.0672C124.448 93.8431 126.101 111.93 126.101 111.93H131.024C131.024 111.93 131.481 91.542 132.171 90.2312C134.444 85.9113 136.957 82.4882 138.385 79.7998C140.78 75.291 141.593 72.3946 142.015 70.2843C142.201 69.3531 143.016 66.2277 141.434 65.2508C140.126 65.6209 139.746 68.4411 138.342 68.9143Z" fill="#C7C8D7"/>
<path d="M129.516 72.0967C129.516 72.0967 133.652 73.7681 137.725 73.377C140.74 73.0869 142.3 73.0392 144.065 72.0871C144.065 72.0871 142.179 57.3912 140.003 52.7565C137.828 48.1218 134.256 47.2346 134.256 47.2346C134.256 47.2346 131.441 48.8698 129.141 48.8335C129.141 48.8335 129.197 57.8644 129.372 61.4707C129.548 65.0769 129.516 72.0967 129.516 72.0967Z" fill="#49C3D0"/>
<path d="M129.322 60.1523C129.309 59.7554 129.296 59.3357 129.284 58.8892L129.281 58.727C129.27 58.3034 129.261 57.8626 129.252 57.4142L129.247 57.1891C129.237 56.6872 129.228 56.1797 129.22 55.6702L129.219 55.6474C129.406 55.6474 129.593 55.6436 129.775 55.6092C131.213 55.3287 132.463 54.5254 133.708 53.7908C133.917 53.6668 134.14 53.5657 134.359 53.4569C134.608 55.3879 133.74 57.7463 133.365 59.2803C132.328 63.5258 131.766 68.8989 132.656 73.0012C130.818 72.6101 129.517 72.0968 129.517 72.0968C129.517 72.0968 129.548 65.077 129.373 61.4708C129.357 61.1521 129.343 60.7781 129.33 60.3851L129.322 60.1523Z" fill="#43AFCF"/>
<path d="M134.627 37.391C134.627 37.391 132.955 33.8992 130.729 34.0385C128.504 34.1797 127.073 34.5441 126.777 35.4027C126.481 36.2633 125.982 38.6312 125.411 39.507C124.842 40.3828 123.611 41.5314 123.638 41.9283C123.664 42.3233 124.939 42.4626 125.01 42.6229C125.08 42.785 125.768 45.6681 126.233 45.9696C126.699 46.2692 130.976 44.5977 131.637 43.325C132.298 42.0523 134.822 39.6482 134.627 37.391Z" fill="#F46F5C"/>
<path d="M130.083 37.7231C129.864 37.7364 129.592 37.8795 129.418 37.91C129.092 37.9692 128.757 37.9978 128.428 38.0532C127.767 38.1657 127.1 38.2649 126.447 38.0512C125.482 37.7326 125.792 36.7804 125.347 36.1088C125.132 35.7844 124.674 35.7845 124.439 35.4219C124.214 35.0766 124.143 34.5805 124.149 34.1759C124.165 33.159 125.156 33.0635 125.937 32.8708C126.848 32.6438 126.901 32.1381 127.339 31.4474C128.42 29.7397 129.945 32.1095 131.144 31.9645C131.757 31.8901 132.4 31.4913 132.995 31.829C133.51 32.121 133.816 32.6342 134.162 33.0941C134.52 33.5692 134.876 33.3765 135.398 33.5749C135.781 33.7199 136.205 34.0843 136.479 34.3973C137.091 35.0975 137.492 36.1603 137.303 37.0819C137.143 37.8642 136.511 38.2897 136.48 39.1159C136.454 39.7704 136.492 40.5813 136.171 41.1824C135.706 42.0505 134.673 42.165 133.981 42.7584C133.323 43.3213 132.389 43.7296 131.497 43.5255C131.405 42.9092 131.464 41.8712 132.005 41.564C132.222 41.4399 132.486 41.419 132.828 41.1404C133.448 40.6367 133.08 39.364 131.912 39.5262C131.21 39.6254 130.893 41.543 130.127 41.232C129.545 40.9935 130.246 40.0242 130.406 39.6941C130.618 39.259 130.73 38.1543 130.316 37.786L130.083 37.7231Z" fill="#14162E"/>
<path d="M111.43 72.1768C111.203 72.1578 110.933 72.1043 110.853 72.131C110.478 72.2551 109.851 72.0738 109.587 71.9765C108.989 71.7494 108.076 71.3525 107.462 71.4613C107.104 71.5243 104.962 72.0242 105.488 72.9038L105.896 73.1767C106.116 73.0946 106.732 72.8695 106.732 72.8695L106.162 73.1118L105.866 73.3274C105.748 73.5106 105.927 73.9017 106.114 73.9666C106.298 74.0296 106.441 73.8445 106.595 73.7586L106.584 73.7663C106.436 73.8846 106.114 73.9666 106.313 74.4169C106.537 74.9225 106.69 74.6039 106.905 74.5505L107.135 74.4589L106.693 74.7031C106.493 74.8806 106.935 75.4759 107.333 75.4263C107.577 75.3957 108.154 75.0447 108.291 75.0828L108.786 75.1382C109.274 75.1839 109.785 75.0523 110.233 74.85C110.433 74.7584 110.832 74.602 111.03 74.4952C111.528 74.228 112.076 73.8063 112.222 73.6842C111.891 73.0546 111.363 72.8943 111.43 72.1768Z" fill="#F46F5C"/>
<path d="M112.174 74.8674L110.444 71.4425C110.444 71.4425 119.021 65.9529 122.156 62.7894C125.291 59.6277 128.681 53.1918 131.071 52.7873C133.462 52.3828 135.869 53.6994 134.484 57.027C133.099 60.3547 126.087 64.7642 124.659 66.2296C123.23 67.695 113.576 74.0813 112.174 74.8674Z" fill="#49C3D0"/>
<path d="M127.63 0.885933L118.286 10.5083C115.469 13.4086 112.918 16.555 110.664 19.9132L72.4912 76.7869L115.742 29.961C120.621 24.6795 124.625 18.65 127.601 12.1035L131.252 4.07048C129.832 3.29199 128.605 2.19868 127.63 0.885933Z" fill="#14162E"/>
<path d="M102.413 44.5789L101.981 44.8594L102.004 44.4301C101.95 44.0523 100.515 43.9568 100.198 43.7908C99.2348 43.2871 99.6224 42.6823 100.06 42.8197C100.358 42.9132 101.034 43.1135 101.293 43.2299C101.568 43.352 102.014 43.2929 102.289 43.3425C102.555 43.3921 103.294 44.0485 103.525 44.2011C104.017 44.5255 102.936 44.7926 102.413 44.5789Z" fill="#F46F5C"/>
<path d="M35.0806 99.8381C35.0806 99.8381 27.3962 101.76 21.6325 106.03C15.8688 110.298 9.89199 123.534 8.71719 132.819C7.54412 142.106 5.19548 149.364 8.71719 154.113C12.2397 158.862 23.6606 159.824 33.4797 160.784C43.2995 161.743 56.8489 159.396 59.5732 155.981C62.2974 152.566 62.0843 126.713 56.9607 116.957C51.8381 107.203 42.552 99.6263 35.0806 99.8381Z" fill="#49C3D0"/>
<path d="M48.1682 155.462C46.1945 154.806 44.1643 154.088 42.5358 152.747C39.0392 149.866 36.9077 149.011 32.5572 149.055C28.5769 149.095 24.7303 149.083 21.3137 146.824C18.2682 144.811 16.5659 140.316 17.3008 136.784C17.8359 134.214 18.6073 132.167 20.1935 130.058C22.4316 127.087 22.8609 124.95 22.0643 121.235C21.1116 116.793 20.9693 112.998 22.2729 108.598C22.9468 106.324 24.5328 104.673 26.3185 103.187C24.7385 103.982 23.122 104.927 21.6327 106.03C15.869 110.298 9.8922 123.534 8.71741 132.819C7.54357 142.106 5.19569 149.364 8.71741 154.113C12.2399 158.862 23.6608 159.824 33.4799 160.784C43.2998 161.743 56.8491 159.396 59.5735 155.981C60.1018 155.317 60.5185 153.804 60.8114 151.732C57.4023 155.103 52.9817 157.061 48.1682 155.462Z" fill="#43AFCF"/>
<path d="M34.0127 101.76C34.0127 101.76 25.7677 99.7602 24.6468 93.5152C23.5265 87.272 26.8082 85.1101 29.3297 86.5507C31.851 87.9913 32.2513 87.2147 34.0127 86.1233C35.7738 85.03 38.3356 86.7911 39.6161 88.6324C40.8974 90.4737 41.1372 88.3119 44.179 88.0714C47.2207 87.8329 48.2612 90.634 46.6603 94.3165C45.0592 97.9991 43.5387 101.92 34.0127 101.76Z" fill="#49C3D0"/>
<path d="M42.9495 98.249C40.8132 98.8004 42.0788 96.0394 41.7308 95.0797C41.1718 95.1083 40.9638 96.0337 40.7783 96.4382C40.3765 97.3064 39.4694 97.8902 38.5079 97.8788C37.1768 97.8616 36.9919 96.4096 36.4232 95.5166C36.1841 95.1407 36.0728 95.1541 35.9246 95.6044C35.7607 96.1005 35.9179 96.6805 35.4558 97.0678C34.603 97.7834 33.1848 96.9725 32.5229 96.3962C31.8007 95.7704 31.5003 94.7381 30.7289 94.1294C30.5879 94.2745 30.5299 94.4691 30.4889 94.6656C30.2981 95.5643 30.3532 97.2739 28.8901 96.9591C27.6491 96.6939 26.8166 94.6656 26.4171 93.6333C25.958 92.4446 25.5241 91.0269 25.5279 89.7447C25.5294 89.1856 25.5628 88.6476 25.639 88.1018C25.6821 87.7889 25.7895 87.1059 25.9439 86.8426L25.9341 86.8387C24.746 87.8824 24.0305 90.0824 24.647 93.515C25.6002 98.8271 31.7076 101.067 33.512 101.619C33.8265 101.716 34.1568 101.764 34.4853 101.766C41.9894 101.785 44.3223 99.1705 45.7937 96.2226L45.7801 96.2379C45.7801 96.2379 43.7133 98.0524 42.9495 98.249Z" fill="#43AFCF"/>
<path d="M37.4845 120.308C41.5258 120.709 45.1778 122.525 45.1078 126.572L38.3588 126.452C38.3506 124.92 36.7875 124.565 35.8016 124.548C35.182 124.536 33.1765 124.5 33.1547 125.74C33.1057 128.513 45.5938 125.853 45.4543 133.693C45.3709 138.396 41.6569 140.083 37.129 140.329L37.3317 145.332L33.2106 145.26L33.5543 140.23C29.3693 139.719 25.5009 137.681 25.5763 133.449L32.3238 133.569L32.32 133.714C32.3238 135.574 34.3957 135.977 35.4534 135.996C36.4761 136.013 38.4832 135.977 38.5055 134.628C38.557 131.745 26.0741 134.153 26.2075 126.566C26.2865 122.189 29.7091 120.569 33.9092 120.281L33.7436 115.244L37.8646 115.316L37.4845 120.308Z" fill="white"/>
<path d="M28.0082 98.7925L27.2637 102.721C27.2637 102.721 29.3706 104.75 35.1075 104.75C40.8436 104.75 43.939 102.721 43.939 102.721L43.5656 99.1722C43.5656 99.1722 35.7179 101.16 28.0082 98.7925Z" fill="#14162E"/>
</svg>
