<svg width="145" height="160" viewBox="0 0 145 160" fill="none" xmlns="http://www.w3.org/2000/svg">
<path d="M36.5928 131.978V23.261C36.5928 21.6816 37.873 20.4012 39.4531 20.4012H102.649C104.229 20.4012 105.51 21.6816 105.51 23.261V131.978C105.51 133.557 104.229 134.837 102.649 134.837H39.4531C37.873 134.837 36.5928 133.557 36.5928 131.978Z" fill="#14162E"/>
<path d="M41.8721 125.397V25.1345H100.944V125.397H41.8721Z" fill="#C7C8D7"/>
<path d="M71.0507 131.64C70.0244 131.64 69.1924 130.81 69.1924 129.782C69.1924 128.757 70.0244 127.925 71.0507 127.925C72.077 127.925 72.909 128.757 72.909 129.782C72.909 130.81 72.077 131.64 71.0507 131.64Z" fill="white"/>
<path d="M46.3615 30.5874H44.8313C44.4542 30.5874 44.1484 30.2808 44.1484 29.9039V28.9266C44.1484 28.5496 44.4542 28.2437 44.8313 28.2437H46.3615C46.7392 28.2437 47.0451 28.5496 47.0451 28.9266V29.9039C47.0451 30.2808 46.7392 30.5874 46.3615 30.5874Z" fill="white"/>
<path d="M54.2667 30.5874H52.7363C52.3586 30.5874 52.0527 30.2808 52.0527 29.9039V28.9266C52.0527 28.5496 52.3586 28.2437 52.7363 28.2437H54.2667C54.6436 28.2437 54.9494 28.5496 54.9494 28.9266V29.9039C54.9494 30.2808 54.6436 30.5874 54.2667 30.5874Z" fill="white"/>
<path d="M92.4348 30.5874H90.9052C90.5274 30.5874 90.2217 30.2808 90.2217 29.9039V28.9266C90.2217 28.5496 90.5274 28.2437 90.9052 28.2437H92.4348C92.8126 28.2437 93.1183 28.5496 93.1183 28.9266V29.9039C93.1183 30.2808 92.8126 30.5874 92.4348 30.5874Z" fill="white"/>
<path d="M83.5792 30.5874H82.0488C81.6711 30.5874 81.3652 30.2808 81.3652 29.9039V28.9266C81.3652 28.5496 81.6711 28.2437 82.0488 28.2437H83.5792C83.9561 28.2437 84.2619 28.5496 84.2619 28.9266V29.9039C84.2619 30.2808 83.9561 30.5874 83.5792 30.5874Z" fill="white"/>
<path d="M97.9843 30.5874H96.4541C96.0762 30.5874 95.7705 30.2808 95.7705 29.9039V28.9266C95.7705 28.5496 96.0762 28.2437 96.4541 28.2437H97.9843C98.3614 28.2437 98.6678 28.5496 98.6678 28.9266V29.9039C98.6678 30.2808 98.3614 30.5874 97.9843 30.5874Z" fill="white"/>
<path d="M59.0883 72.6461C58.978 72.388 58.8746 72.1232 58.7886 71.8442C57.9161 69.0127 58.642 66.2768 60.4096 65.7317C62.1764 65.1881 64.3164 67.0409 65.1887 69.873C65.2747 70.1514 65.3379 70.4282 65.3924 70.7038L65.965 70.5283C65.9051 70.2527 65.8378 69.9779 65.7518 69.699C64.7262 66.3695 62.2095 64.19 60.1313 64.8299C58.0526 65.4704 57.1997 68.6889 58.2253 72.0183C58.3106 72.2953 58.4108 72.562 58.5164 72.8235L59.0883 72.6461Z" fill="#14162E"/>
<path d="M76.059 85.9401L58.8445 91.2427L54.8457 73.0914L69.1493 68.6853L76.059 85.9401Z" fill="white"/>
<path d="M77.2871 65.5665C77.3241 65.2876 77.3685 65.0073 77.4356 64.7231C78.1178 61.8399 80.1301 59.8492 81.9292 60.2739C83.729 60.7007 84.6342 63.383 83.952 66.2648C83.8849 66.5504 83.7996 66.8205 83.7068 67.0853L84.2894 67.2231C84.3768 66.9563 84.4596 66.6848 84.526 66.4006C85.3284 63.0114 84.2632 59.856 82.1469 59.3553C80.0305 58.8545 77.6643 61.1967 76.8616 64.5873C76.7952 64.8716 76.7462 65.1498 76.7051 65.4287L77.2871 65.5665Z" fill="#14162E"/>
<path d="M85.187 85.6257L67.6582 81.4778L73.4064 63.8008L87.9715 67.2473L85.187 85.6257Z" fill="#EF3363"/>
<path d="M80.9108 45.4157C80.9108 50.6632 76.6558 54.9182 71.4076 54.9182C66.1601 54.9182 61.9053 50.6632 61.9053 45.4157C61.9053 40.1668 66.1601 35.912 71.4076 35.912C76.6558 35.912 80.9108 40.1668 80.9108 45.4157Z" fill="white"/>
<path d="M70.9315 45.5018C70.7756 45.4972 69.4374 41.6529 68.9851 41.8028C68.3501 42.0164 66.612 42.8538 66.5697 43.5783C66.5274 44.3042 70.074 50.5364 70.6674 50.5364C71.9155 50.5364 77.1542 43.6213 76.7301 42.8371C76.3067 42.0541 74.3295 40.9735 74.0331 41.2697C73.814 41.4883 71.0659 45.5053 70.9315 45.5018Z" fill="#52C6DA"/>
<path d="M80.747 119.557H62.5774C61.0988 119.557 59.9014 118.36 59.9014 116.882V114.77C59.9014 113.292 61.0988 112.092 62.5774 112.092H80.747C82.2249 112.092 83.423 113.292 83.423 114.77V116.882C83.423 118.36 82.2249 119.557 80.747 119.557Z" fill="#EF3363"/>
<path d="M68.4466 116.491C68.4466 116.264 68.2382 116.118 67.9062 116.123H67.1796V116.886H67.9062C68.2382 116.886 68.4466 116.741 68.4466 116.491ZM68.3323 115.07C68.3323 114.852 68.1717 114.723 67.9062 114.728H67.1796V115.433H67.9062C68.1717 115.433 68.3323 115.299 68.3323 115.07ZM69.3074 114.903C69.3074 115.282 69.0636 115.59 68.679 115.693C69.1415 115.786 69.4271 116.144 69.4271 116.61C69.4271 117.233 68.8821 117.624 68.0258 117.624H66.2314V113.986H67.958C68.784 113.986 69.3074 114.344 69.3074 114.903Z" fill="white"/>
<path d="M71.5718 116.855C71.9924 116.855 72.2827 116.569 72.2827 116.097V113.986H73.2324V116.097C73.2324 117.058 72.5893 117.665 71.5663 117.665C70.5402 117.665 69.8809 117.058 69.8809 116.097V113.986H70.8304V116.097C70.8304 116.564 71.1416 116.855 71.5718 116.855Z" fill="white"/>
<path d="M75.7805 116.46V117.624H74.8309V116.486L73.4922 113.986H74.4417L75.3034 115.548L76.1442 113.986H77.093L75.7805 116.46Z" fill="white"/>
<path d="M21.3158 66.4523C21.0658 66.2324 20.6847 66.2546 20.4643 66.506C20.2439 66.7567 20.268 67.1371 20.5173 67.3575C21.9859 68.6533 23.5215 69.9657 25.1203 71.2871L25.5049 71.4263C25.6776 71.4263 25.8496 71.3509 25.9692 71.2064C26.1815 70.9497 26.1459 70.5714 25.8885 70.3584C24.3005 69.0437 22.7748 67.7392 21.3158 66.4523Z" fill="#14162E"/>
<path d="M34.0496 39.1138C34.2961 39.1138 34.528 38.9607 34.6161 38.7146C34.7297 38.4034 34.5676 38.0574 34.2552 37.9437C32.2719 37.2266 30.3417 36.5728 28.515 35.9995C28.1985 35.8966 27.8583 36.0767 27.7589 36.394C27.6601 36.7118 27.8361 37.0505 28.1548 37.1507C29.9634 37.7186 31.8781 38.3652 33.8438 39.0775L34.0496 39.1138Z" fill="#14162E"/>
<path d="M12.636 58.1476C12.4055 57.9036 12.023 57.8983 11.7825 58.1254C11.5418 58.3559 11.5325 58.7363 11.7617 58.9789C13.0951 60.3809 14.5379 61.8224 16.0514 63.2647L16.4681 63.4314C16.6267 63.4314 16.7861 63.3676 16.9043 63.2439C17.1341 63.0026 17.1255 62.6209 16.8841 62.3903C15.384 60.9621 13.9546 59.5327 12.636 58.1476Z" fill="#14162E"/>
<path d="M40.2454 81.3023C39.9738 81.1128 39.5968 81.1767 39.4046 81.4468C39.2124 81.7203 39.277 82.0952 39.5484 82.2883C41.1707 83.4321 42.8308 84.5793 44.5252 85.7219L44.8612 85.8267C45.0547 85.8267 45.2455 85.7325 45.3619 85.5605C45.548 85.285 45.4754 84.91 45.1991 84.7238C43.5123 83.5833 41.8596 82.4428 40.2454 81.3023Z" fill="#14162E"/>
<path d="M30.5787 74.1275C30.3146 73.9212 29.9374 73.9709 29.7318 74.2311C29.5274 74.4945 29.5739 74.8749 29.8366 75.0791C31.3932 76.2936 32.998 77.5153 34.6501 78.7405L35.0083 78.8589C35.1931 78.8589 35.3753 78.7749 35.4935 78.6149C35.6918 78.3481 35.6366 77.9718 35.3685 77.7722C33.726 76.5517 32.1278 75.3358 30.5787 74.1275Z" fill="#14162E"/>
<path d="M16.5325 34.2866C18.3513 34.5822 20.3204 34.9935 22.3843 35.5143L22.5328 35.5339C22.8024 35.5339 23.0482 35.351 23.1162 35.0761C23.1981 34.7542 23.0026 34.4256 22.6793 34.3449C20.5812 33.8167 18.5777 33.3967 16.7254 33.0956C16.3975 33.0404 16.0876 33.2656 16.0332 33.5942C15.9801 33.9229 16.2032 34.2327 16.5325 34.2866Z" fill="#14162E"/>
<path d="M130.858 107.216C130.964 107.426 131.176 107.548 131.397 107.548L131.668 107.483C131.965 107.331 132.084 106.969 131.935 106.671C131.122 105.065 130.033 103.317 128.699 101.478C128.504 101.206 128.126 101.148 127.857 101.343C127.587 101.538 127.526 101.915 127.723 102.183C129.019 103.973 130.074 105.666 130.858 107.216Z" fill="#14162E"/>
<path d="M1.20571 39.456C1.20571 39.0279 1.24669 38.6167 1.32534 38.235C1.39321 37.9096 1.1842 37.5898 0.857568 37.5225C0.52355 37.4554 0.211038 37.6636 0.144506 37.9903C0.0483985 38.4514 0 38.9453 0 39.456C0 40.8567 0.363594 42.4548 1.08137 44.2084C1.17748 44.4422 1.40262 44.5833 1.63986 44.5833L1.86836 44.5389C2.17618 44.4112 2.32471 44.0604 2.19768 43.7526C1.53973 42.1438 1.20571 40.6987 1.20571 39.456Z" fill="#14162E"/>
<path d="M10.6336 32.5143L10.2708 32.5109C7.97148 32.5109 6.0225 32.7999 4.47749 33.3658C4.16419 33.4807 4.00435 33.8288 4.11928 34.14C4.20857 34.384 4.43912 34.5359 4.68515 34.5359L4.89282 34.4996C6.30414 33.9814 8.11343 33.7187 10.2708 33.7187L10.6188 33.7219H10.6262C10.9562 33.7219 11.2256 33.4552 11.2298 33.1252C11.2337 32.7925 10.9664 32.5189 10.6336 32.5143Z" fill="#14162E"/>
<path d="M5.04583 48.9172C4.85847 48.6383 4.4834 48.5664 4.20846 48.7519C3.93163 48.9381 3.85834 49.313 4.04381 49.5879C5.07284 51.1243 6.30799 52.7607 7.71467 54.4517C7.83442 54.5949 8.00647 54.6687 8.17852 54.6687L8.56494 54.5297C8.82095 54.316 8.85519 53.9356 8.64288 53.6794C7.26235 52.0208 6.05198 50.4192 5.04583 48.9172Z" fill="#14162E"/>
<path d="M109.669 116.597C107.85 116.104 105.917 115.521 103.925 114.865C103.608 114.761 103.267 114.935 103.164 115.249C103.059 115.566 103.231 115.906 103.548 116.011C105.56 116.674 107.514 117.261 109.355 117.759L109.513 117.781C109.778 117.781 110.021 117.606 110.095 117.336C110.181 117.015 109.991 116.684 109.669 116.597Z" fill="#14162E"/>
<path d="M55.3154 91.2537C53.5902 90.1886 51.8926 89.1152 50.2237 88.0398C49.9448 87.8604 49.5718 87.9383 49.3905 88.2186C49.2097 88.4989 49.2903 88.8705 49.5699 89.0513C51.2447 90.1334 52.9497 91.2107 54.6822 92.2807L54.9981 92.3721C55.2004 92.3721 55.3981 92.2706 55.5124 92.0844C55.6877 91.8009 55.5991 91.4291 55.3154 91.2537Z" fill="#14162E"/>
<path d="M121.399 118.767C119.623 118.647 117.638 118.376 115.498 117.964C115.177 117.903 114.855 118.112 114.793 118.441C114.729 118.767 114.942 119.084 115.27 119.148C117.457 119.569 119.492 119.846 121.316 119.972L121.359 119.974C121.673 119.974 121.938 119.729 121.96 119.411C121.982 119.079 121.731 118.792 121.399 118.767Z" fill="#14162E"/>
<path d="M133.773 112.629C133.756 112.297 133.482 112.073 133.139 112.058C132.806 112.076 132.551 112.361 132.569 112.693L132.58 113.105C132.58 114.14 132.347 115.048 131.886 115.806C131.066 117.155 129.507 118.067 127.25 118.518C126.923 118.583 126.711 118.9 126.776 119.227C126.834 119.514 127.085 119.712 127.367 119.712L127.485 119.702C130.087 119.181 131.914 118.083 132.917 116.433C133.494 115.482 133.787 114.363 133.787 113.105C133.787 112.949 133.783 112.789 133.773 112.629Z" fill="#14162E"/>
<path d="M120.766 92.2825C120.533 92.0447 120.15 92.0433 119.913 92.2751C119.675 92.5077 119.672 92.8913 119.905 93.1286C121.373 94.6206 122.746 96.0999 123.986 97.5226C124.104 97.659 124.273 97.7297 124.441 97.7297L124.836 97.5811C125.088 97.3614 125.114 96.981 124.896 96.7296C123.639 95.288 122.25 93.7927 120.766 92.2825Z" fill="#14162E"/>
<path d="M116.007 89.1042C116.168 89.1042 116.33 89.0411 116.449 88.9121C116.676 88.6674 116.662 88.2856 116.418 88.0585C114.997 86.7386 113.48 85.3795 111.908 84.0186C111.657 83.8003 111.276 83.8278 111.057 84.0806C110.839 84.3317 110.867 84.7135 111.119 84.9307C112.68 86.2809 114.186 87.6296 115.596 88.9429L116.007 89.1042Z" fill="#14162E"/>
<path d="M65.6838 97.3768C63.9552 96.403 62.2167 95.3982 60.4705 94.3659C60.1835 94.2006 59.814 94.2933 59.6445 94.5789C59.4752 94.8666 59.57 95.2362 59.8563 95.407C61.6097 96.4405 63.3565 97.4487 65.0918 98.4279L65.3867 98.5051C65.5978 98.5051 65.802 98.395 65.9137 98.1987C66.0769 97.9085 65.9741 97.5401 65.6838 97.3768Z" fill="#14162E"/>
<path d="M98.2587 112.864C96.4381 112.182 94.5569 111.438 92.6664 110.657C92.3607 110.524 92.0064 110.674 91.8788 110.982C91.7518 111.29 91.8982 111.643 92.206 111.77C94.108 112.558 96.0019 113.305 97.8346 113.993L98.0469 114.032C98.2909 114.032 98.5207 113.883 98.6116 113.64C98.7284 113.329 98.5705 112.981 98.2587 112.864Z" fill="#14162E"/>
<path d="M76.2913 103.071C74.5299 102.175 72.7502 101.245 70.9571 100.281C70.662 100.124 70.2978 100.234 70.1399 100.527C69.9826 100.819 70.0936 101.186 70.3859 101.344C72.1878 102.311 73.9747 103.247 75.7437 104.147L76.0164 104.212C76.237 104.212 76.4479 104.091 76.5548 103.882C76.706 103.584 76.5878 103.223 76.2913 103.071Z" fill="#14162E"/>
<path d="M87.143 108.272C85.3519 107.469 83.532 106.624 81.6852 105.74C81.3827 105.594 81.0245 105.723 80.8807 106.024C80.7369 106.323 80.8631 106.684 81.1635 106.827C83.0193 107.716 84.8499 108.565 86.6504 109.374L86.8971 109.427C87.127 109.427 87.3467 109.295 87.4468 109.071C87.5839 108.766 87.4475 108.408 87.143 108.272Z" fill="#14162E"/>
<path d="M87.6665 33.4912C87.6054 33.154 87.8244 32.8185 88.1578 32.7447C88.4904 32.6673 88.8077 32.8784 88.8689 33.2158C89.2244 35.1997 89.559 37.2522 89.8696 39.3665L89.7889 39.7846C89.6982 39.9412 89.543 40.0615 89.3555 40.0978C89.0214 40.163 88.711 39.9412 88.6599 39.6004C88.3521 37.5001 88.0193 35.4631 87.6665 33.4912Z" fill="#14162E"/>
<path d="M85.005 21.4489C84.9137 21.1189 85.1077 20.7681 85.4317 20.6626C85.7578 20.5578 86.0931 20.7385 86.1831 21.0673C86.7013 22.9806 87.1966 25.0143 87.6563 27.111C87.6913 27.271 87.661 27.4364 87.583 27.5721C87.4998 27.7167 87.362 27.8302 87.1927 27.8773C86.8627 27.9646 86.5366 27.7671 86.4621 27.4317C86.0084 25.3549 85.5164 23.3414 85.005 21.4489Z" fill="#14162E"/>
<path d="M90.6429 58.1252C90.6214 57.7845 90.8734 57.4733 91.2094 57.4337C91.5461 57.3939 91.8379 57.64 91.8634 57.9841C92.0072 60.0298 92.1335 62.1133 92.2385 64.2242L92.1531 64.5837C92.0516 64.7592 91.8701 64.8869 91.6597 64.9057C91.323 64.938 91.036 64.6853 91.0193 64.3412C90.9132 62.237 90.7881 60.1636 90.6429 58.1252Z" fill="#14162E"/>
<path d="M89.4762 45.7497C89.4353 45.407 89.6765 45.0892 90.0097 45.0321C90.3445 44.9755 90.6496 45.2074 90.6893 45.5482C90.9285 47.5717 91.1491 49.6418 91.3479 51.7561L91.2638 52.1433C91.1671 52.3098 90.9978 52.4335 90.7976 52.461C90.4614 52.5096 90.1637 52.2702 90.1314 51.9282C89.9332 49.8239 89.7142 47.7627 89.4762 45.7497Z" fill="#14162E"/>
<path d="M62.2666 13.0964C61.5717 14.8989 60.8988 16.897 60.2698 19.0355L60.2087 19.1801C60.0675 19.424 59.7805 19.5563 59.5071 19.4825C59.1845 19.3965 59.0023 19.0543 59.1011 18.7203C59.7402 16.5475 60.4245 14.5139 61.1335 12.6778C61.2565 12.351 61.614 12.1824 61.9272 12.296C62.241 12.413 62.3929 12.7691 62.2666 13.0964Z" fill="#14162E"/>
<path d="M65.708 153.524C65.8344 153.725 65.8296 153.979 65.7142 154.181L65.5151 154.396C65.2288 154.59 64.8518 154.518 64.6724 154.233C63.7039 152.692 62.757 150.829 61.8597 148.698C61.7267 148.386 61.8731 148.011 62.183 147.863C62.4942 147.715 62.8524 147.849 62.9841 148.161C63.8572 150.234 64.7732 152.037 65.708 153.524Z" fill="#14162E"/>
<path d="M74.7697 1.7259C74.398 1.51204 74.0204 1.34343 73.6487 1.22506C73.3308 1.12493 73.1629 0.774125 73.2751 0.443445C73.3914 0.106743 73.7361 -0.073916 74.0539 0.0287981C74.5042 0.171944 74.9572 0.372901 75.4007 0.627708C76.6159 1.32658 77.8129 2.45505 78.9574 3.98269C79.1106 4.18553 79.1146 4.46116 78.9911 4.6776L78.8318 4.86169C78.561 5.08088 78.1778 5.03908 77.9775 4.77103C76.9265 3.3683 75.8484 2.34477 74.7697 1.7259Z" fill="#14162E"/>
<path d="M63.8151 6.84428L64.0025 6.51154C65.2056 4.4201 66.4757 2.78889 67.7749 1.66523C68.0383 1.43812 68.4235 1.46565 68.6344 1.72579C68.7991 1.92864 68.8106 2.21424 68.6816 2.43739L68.541 2.60944C67.3528 3.63503 66.1787 5.15063 65.0503 7.11372L64.8701 7.43235L64.8662 7.43906C64.6941 7.74015 64.3218 7.85232 64.0335 7.69232C63.7425 7.52835 63.645 7.15001 63.8151 6.84428Z" fill="#14162E"/>
<path d="M80.9679 9.93928C80.8247 9.62941 80.957 9.25107 81.2629 9.0945C81.5687 8.9345 81.9315 9.05476 82.0747 9.36118C82.8685 11.0643 83.6414 13.0052 84.3719 15.1283C84.433 15.3071 84.4082 15.5013 84.318 15.6579L83.9948 15.9402C83.6756 16.0679 83.3281 15.9092 83.2173 15.5873C82.5008 13.504 81.7447 11.6027 80.9679 9.93928Z" fill="#14162E"/>
<path d="M84.9329 138.916C85.4571 137.015 85.9625 134.964 86.4363 132.824C86.5115 132.484 86.8409 132.26 87.1682 132.323C87.4975 132.386 87.7024 132.712 87.6279 133.053C87.1494 135.214 86.6372 137.286 86.107 139.21L86.0431 139.366C85.9046 139.606 85.6237 139.741 85.3515 139.672C85.0275 139.591 84.8402 139.253 84.9329 138.916Z" fill="#14162E"/>
<path d="M91.3902 76.806C91.3694 74.7058 91.3264 72.6238 91.2658 70.5678C91.2572 70.2251 91.5199 69.924 91.8573 69.9006C92.1947 69.8743 92.4757 70.1344 92.4864 70.4785C92.5495 72.5431 92.5913 74.632 92.6128 76.7429L92.5261 77.0749C92.4198 77.259 92.2283 77.3881 92.0079 77.4001C91.6705 77.417 91.3937 77.1522 91.3902 76.806Z" fill="#14162E"/>
<path d="M80.6775 150.676C81.5021 148.998 82.3059 147.056 83.0681 144.903C83.1823 144.58 83.5339 144.393 83.8511 144.5C84.1675 144.604 84.331 144.957 84.214 145.286C83.4363 147.488 82.6123 149.477 81.7655 151.201L81.7447 151.24C81.5807 151.526 81.2299 151.646 80.9423 151.507C80.6419 151.361 80.5243 150.989 80.6775 150.676Z" fill="#14162E"/>
<path d="M68.8777 158.876C68.5995 158.695 68.5484 158.334 68.7158 158.014C68.9053 157.72 69.285 157.63 69.5646 157.813L69.9161 158.028C70.8126 158.544 71.7233 158.784 72.6219 158.743C74.2214 158.67 75.8298 157.706 77.4002 155.875C77.6282 155.61 78.0139 155.576 78.2632 155.798C78.4829 155.992 78.5234 156.321 78.3754 156.577L78.3035 156.68C76.4916 158.788 74.5824 159.905 72.6265 159.994C71.4996 160.046 70.3758 159.754 69.285 159.125L68.8777 158.876Z" fill="#14162E"/>
<path d="M58.0352 136.891C57.9505 136.559 58.1487 136.211 58.4746 136.11C58.8013 136.011 59.1346 136.198 59.2187 136.53C59.7462 138.608 60.31 140.596 60.8955 142.435C60.9519 142.611 60.9251 142.8 60.8377 142.953L60.501 143.238C60.1798 143.357 59.835 143.192 59.7314 142.867C59.1387 141.005 58.5675 138.994 58.0352 136.891Z" fill="#14162E"/>
<path d="M91.2767 89.295C91.3364 87.2378 91.3747 85.1538 91.393 83.0501C91.399 82.706 91.6726 82.4151 92.0105 82.405C92.3472 82.3929 92.6194 82.6644 92.6161 83.0085C92.5973 85.1214 92.5569 87.2136 92.4984 89.2816L92.4117 89.588C92.3009 89.7802 92.0979 89.9113 91.8687 89.9148C91.532 89.918 91.2658 89.6412 91.2767 89.295Z" fill="#14162E"/>
<path d="M87.6667 126.67C88.0269 124.672 88.3664 122.589 88.677 120.478C88.7225 120.134 89.0377 119.886 89.3719 119.924C89.7051 119.962 89.935 120.272 89.8839 120.614C89.5721 122.739 89.2299 124.836 88.8678 126.847L88.7912 127.059C88.6634 127.281 88.4127 127.416 88.156 127.379C87.8239 127.329 87.6049 127.013 87.6667 126.67Z" fill="#14162E"/>
<path d="M90.6656 101.792C90.8094 99.7404 90.9345 97.657 91.0358 95.5439C91.0548 95.1986 91.3418 94.9216 91.6771 94.923C92.0131 94.9264 92.2739 95.2107 92.2571 95.5548C92.1537 97.6779 92.0299 99.77 91.8847 101.829L91.7994 102.11C91.6845 102.311 91.4687 102.443 91.2315 102.437C90.8941 102.425 90.642 102.137 90.6656 101.792Z" fill="#14162E"/>
<path d="M89.4976 114.263C89.7389 112.232 89.958 110.153 90.1576 108.032C90.1884 107.684 90.4883 107.423 90.8243 107.442C91.1596 107.46 91.4064 107.755 91.3733 108.1C91.1744 110.232 90.952 112.321 90.7115 114.363L90.628 114.614C90.5084 114.822 90.2779 114.957 90.0312 114.936C89.6951 114.91 89.4572 114.607 89.4976 114.263Z" fill="#14162E"/>
<path d="M38.1131 116.605C36.0713 117.243 34.0785 117.817 32.1887 118.308C31.8573 118.394 31.6612 118.727 31.7498 119.052C31.821 119.315 32.0583 119.492 32.3219 119.502L32.5092 119.483C34.4193 118.986 36.4328 118.408 38.4935 117.763C38.8193 117.66 38.9988 117.319 38.894 116.999C38.7891 116.677 38.4396 116.507 38.1131 116.605Z" fill="#14162E"/>
<path d="M26.1845 119.671C24.007 120.085 21.9625 120.374 20.1089 120.53C19.7668 120.558 19.5148 120.853 19.5444 121.188C19.5712 121.495 19.8279 121.729 20.1345 121.742L20.2164 121.741C22.1144 121.581 24.2024 121.286 26.4236 120.863C26.7603 120.801 26.9795 120.481 26.9129 120.153C26.847 119.82 26.5184 119.603 26.1845 119.671Z" fill="#14162E"/>
<path d="M61.0907 107.662C59.1835 108.529 57.3003 109.359 55.4475 110.148C55.1335 110.282 54.9898 110.638 55.1275 110.946C55.2257 111.166 55.4401 111.302 55.6699 111.313L55.9447 111.263C57.8071 110.468 59.6997 109.636 61.6163 108.763C61.9269 108.622 62.0613 108.26 61.9154 107.956C61.7717 107.652 61.402 107.517 61.0907 107.662Z" fill="#14162E"/>
<path d="M49.739 112.483C47.7705 113.255 45.8431 113.977 43.9632 114.645C43.6413 114.76 43.476 115.108 43.5935 115.423C43.6823 115.662 43.9061 115.814 44.1487 115.824L44.3892 115.787C46.2825 115.115 48.2222 114.389 50.2026 113.611C50.5206 113.486 50.6753 113.131 50.5467 112.82C50.4191 112.51 50.0595 112.358 49.739 112.483Z" fill="#14162E"/>
<path d="M115.802 39.6973L116 39.6744C118.083 39.0965 120.096 38.5991 121.981 38.1985C122.316 38.1259 122.528 37.8026 122.454 37.4761C122.38 37.1454 122.05 36.9445 121.714 37.0097C119.804 37.4176 117.767 37.9196 115.659 38.5029C115.33 38.5956 115.139 38.9318 115.233 39.253C115.308 39.513 115.543 39.6851 115.802 39.6973Z" fill="#14162E"/>
<path d="M106.929 42.159C108.176 41.8426 109.388 41.5589 110.552 41.311C110.886 41.2384 111.098 40.9151 111.025 40.5884C110.951 40.2579 110.621 40.0548 110.285 40.1221C109.172 40.3592 108.016 40.6295 106.828 40.9292C105.977 41.1422 106.155 42.3553 106.929 42.159Z" fill="#14162E"/>
<path d="M72.1907 102.293C70.3358 103.24 68.4943 104.158 66.6723 105.037C66.3652 105.186 66.2394 105.551 66.3921 105.852C66.4956 106.057 66.7026 106.18 66.9216 106.191L67.2241 106.127C69.0542 105.242 70.903 104.322 72.7674 103.369C73.071 103.215 73.188 102.848 73.0287 102.551C72.8701 102.253 72.4966 102.136 72.1907 102.293Z" fill="#14162E"/>
<path d="M25.1021 89.1461C24.8722 88.8947 24.481 88.8772 24.225 89.0996C22.6307 90.5037 21.1026 91.9077 19.6832 93.2732C19.4392 93.5091 19.4358 93.8943 19.6765 94.1335L20.0918 94.3164C20.2571 94.3231 20.4264 94.2646 20.5541 94.1423C21.9608 92.7881 23.4757 91.3948 25.057 90.0029C25.3111 89.7792 25.3319 89.3954 25.1021 89.1461Z" fill="#14162E"/>
<path d="M34.4277 80.858C34.1971 80.6066 33.8061 80.5898 33.5499 80.8117C31.9565 82.2157 30.4275 83.6196 29.0081 84.9858C28.7641 85.221 28.7614 85.6069 29.0014 85.8461L29.4167 86.0283C29.5828 86.035 29.7521 85.9765 29.8797 85.8528C31.2864 84.5007 32.8006 83.1067 34.3819 81.715C34.6367 81.4912 34.6569 81.1073 34.4277 80.858Z" fill="#14162E"/>
<path d="M8.74877 107.29C8.44699 107.13 8.07003 107.239 7.90727 107.532C6.70567 109.702 5.9791 111.682 5.74666 113.418C5.70159 113.75 5.94091 114.057 6.28088 114.1L6.33542 114.105C6.6532 114.121 6.93484 113.894 6.97717 113.577C7.19017 111.99 7.87028 110.151 8.99944 108.112C9.16272 107.818 9.05054 107.448 8.74877 107.29Z" fill="#14162E"/>
<path d="M14.0401 120.511C11.6515 120.226 9.83429 119.569 8.63785 118.554C8.37926 118.333 7.98733 118.363 7.76229 118.614C7.53845 118.868 7.56667 119.253 7.82612 119.471C9.2125 120.65 11.2544 121.405 13.8928 121.717L13.9399 121.722C14.2611 121.735 14.5442 121.505 14.583 121.187C14.6235 120.854 14.38 120.55 14.0401 120.511Z" fill="#14162E"/>
<path d="M15.3596 97.6759C13.8675 99.2949 12.5207 100.878 11.3566 102.383C11.1503 102.65 11.2047 103.032 11.4776 103.233L11.8244 103.357C12.022 103.368 12.2196 103.283 12.348 103.118C13.4899 101.64 14.8138 100.085 16.2816 98.4932C16.5114 98.2439 16.4913 97.86 16.2365 97.635C15.9839 97.4091 15.5894 97.4287 15.3596 97.6759Z" fill="#14162E"/>
<path d="M103.975 83.516C102.306 84.6498 100.597 85.7836 98.8493 86.914C98.563 87.0983 98.4851 87.4752 98.6754 87.7555C98.7889 87.9241 98.9744 88.0203 99.1659 88.0291L99.5349 87.9275C101.29 86.7924 103.007 85.6532 104.684 84.5161C104.966 84.3233 105.035 83.9448 104.839 83.6679C104.644 83.3957 104.256 83.3252 103.975 83.516Z" fill="#14162E"/>
<path d="M134.18 35.6507C132.322 35.5748 130.205 35.6817 127.885 35.9599C127.545 36.0015 127.304 36.3061 127.347 36.64C127.386 36.9371 127.638 37.1596 127.935 37.1716L128.04 37.1684C130.292 36.8948 132.342 36.7926 134.132 36.8652C134.475 36.8773 134.763 36.6171 134.777 36.2818C134.791 35.9485 134.499 35.6588 134.18 35.6507Z" fill="#14162E"/>
<path d="M132.428 60.319C131.086 61.7197 129.623 63.1613 128.08 64.6029C127.832 64.8333 127.824 65.2171 128.061 65.4618L128.482 65.6493C128.646 65.6579 128.811 65.6008 128.939 65.4819C130.498 64.0248 131.978 62.5677 133.334 61.1538C133.569 60.9071 133.556 60.5241 133.306 60.2936C133.058 60.0663 132.664 60.0764 132.428 60.319Z" fill="#14162E"/>
<path d="M140.896 50.713C140.605 50.5409 140.222 50.6256 140.041 50.9112C139.079 52.4388 137.881 54.08 136.479 55.7852C136.265 56.0452 136.307 56.429 136.575 56.6388L136.936 56.7745C137.127 56.7831 137.319 56.7058 137.448 56.5472C138.881 54.8033 140.11 53.1203 141.099 51.5497C141.279 51.2641 141.188 50.8904 140.896 50.713Z" fill="#14162E"/>
<path d="M143.404 39.5527C142.762 38.482 141.771 37.6151 140.459 36.9787C140.153 36.8288 139.778 36.9532 139.627 37.2522C139.475 37.5533 139.601 37.9182 139.909 38.0674C141 38.5956 141.817 39.3048 142.334 40.1683C142.845 41.0198 143.078 42.0454 143.025 43.2134C142.993 43.94 142.849 44.7385 142.599 45.5812C142.503 45.9045 142.693 46.2418 143.023 46.3346L143.168 46.3607C143.448 46.3729 143.71 46.1968 143.791 45.9232C144.07 44.9878 144.229 44.0933 144.266 43.2686C144.329 41.8633 144.039 40.6125 143.404 39.5527Z" fill="#14162E"/>
<path d="M93.6479 90.2036C91.9214 91.2704 90.1646 92.3321 88.3775 93.3854C88.0845 93.5607 87.9904 93.9323 88.1678 94.2193C88.2801 94.4015 88.4723 94.5049 88.6732 94.5137L89.0213 94.4276C90.8144 93.3678 92.5786 92.3027 94.3118 91.2327C94.6016 91.0539 94.6883 90.6788 94.5042 90.3946C94.3206 90.1109 93.9388 90.023 93.6479 90.2036Z" fill="#14162E"/>
<path d="M123.523 68.6876C122.032 69.9713 120.446 71.2871 118.808 72.6018C118.543 72.8134 118.505 73.1972 118.722 73.4567C118.839 73.5957 119.005 73.6718 119.175 73.6785L119.596 73.5427C121.245 72.2193 122.843 70.8933 124.344 69.6009C124.601 69.3791 124.626 68.9954 124.399 68.7441C124.171 68.4881 123.78 68.4638 123.523 68.6876Z" fill="#14162E"/>
<path d="M83.045 96.4613C81.2385 97.4795 79.438 98.4709 77.649 99.4306C77.3479 99.5926 77.239 99.9622 77.4043 100.257C77.5132 100.449 77.7114 100.563 77.9219 100.572L78.247 100.498C80.0449 99.5321 81.8522 98.5381 83.6666 97.5146C83.963 97.3472 84.0646 96.9756 83.8939 96.6852C83.7218 96.3942 83.3421 96.2927 83.045 96.4613Z" fill="#14162E"/>
<path d="M113.966 76.3692C112.367 77.5756 110.717 78.7887 109.015 80.0065C108.739 80.2026 108.679 80.583 108.882 80.8526C108.997 81.0092 109.174 81.0952 109.356 81.104L109.75 80.9856C111.458 79.7639 113.119 78.5441 114.725 77.333C114.996 77.1279 115.047 76.7463 114.837 76.4815C114.625 76.2147 114.235 76.1629 113.966 76.3692Z" fill="#14162E"/>
<path d="M16.0836 120.702C16.0836 123.717 13.6393 126.161 10.6238 126.161C7.60809 126.161 5.16309 123.717 5.16309 120.702C5.16309 117.686 7.60809 115.241 10.6238 115.241C13.6393 115.241 16.0836 117.686 16.0836 120.702Z" fill="#14162E"/>
<path d="M127.848 95.2501C127.848 98.2658 125.404 100.709 122.389 100.709C119.373 100.709 116.929 98.2658 116.929 95.2501C116.929 92.2339 119.373 89.7889 122.389 89.7889C125.404 89.7889 127.848 92.2339 127.848 95.2501Z" fill="#14162E"/>
<path d="M95.6821 48.4595C95.6821 51.4758 93.2378 53.9202 90.2223 53.9202C87.2067 53.9202 84.7617 51.4758 84.7617 48.4595C84.7617 45.4453 87.2067 43.0003 90.2223 43.0003C93.2378 43.0003 95.6821 45.4453 95.6821 48.4595Z" fill="#14162E"/>
</svg>
