<svg width="182" height="161" viewBox="0 0 182 161" fill="none" xmlns="http://www.w3.org/2000/svg">
<path d="M107.518 151.499H74.2295L76.9658 111.369H104.782L107.518 151.499Z" fill="#14162E"/>
<path d="M111.879 145.073C111.477 144.47 110.798 144.108 110.073 144.108H91.6377H90.1093H71.6741C70.9468 144.108 70.2701 144.47 69.8654 145.073L64.8376 152.578C63.8679 154.022 64.903 155.963 66.6443 155.963H90.1093H91.6377H115.103C116.842 155.963 117.879 154.022 116.909 152.578L111.879 145.073Z" fill="#14162E"/>
<path d="M172.38 122.035H9.36829C4.19296 122.035 0 117.842 0 112.669V9.5715C0 4.39828 4.19296 0.203163 9.36829 0.203163H172.38C177.553 0.203163 181.748 4.39828 181.748 9.5715V112.669C181.748 117.842 177.553 122.035 172.38 122.035Z" fill="#14162E"/>
<path d="M173.379 112.703H8.36719V8.2752H173.379V112.703Z" fill="#52C6DA"/>
<path d="M113.677 112.606V78.9212H104.623V112.606H113.677Z" fill="#C7C8D7"/>
<path d="M113.677 89.4763V78.9212H104.623V89.4763H113.677Z" fill="#8A8DB1"/>
<path d="M138.138 26.6722H84.6689V81.01H159.402V47.9364C159.402 36.1923 149.882 26.6722 138.138 26.6722Z" fill="#EF3363"/>
<path d="M106.148 81.01H63.1914V47.9364C63.1914 36.1923 72.7116 26.6722 84.4536 26.6722H84.8836C96.6277 26.6722 106.148 36.1923 106.148 47.9364V81.01Z" fill="#EF3363"/>
<path d="M102.475 76.366H66.8613V48.9462C66.8613 39.209 74.754 31.3163 84.4912 31.3163H84.8475C94.5826 31.3163 102.475 39.209 102.475 48.9462V76.366Z" fill="#14162E"/>
<path d="M89.7914 76.8297H49.0527V81.01H89.7914V76.8297Z" fill="#EF3363"/>
<path d="M125.428 55.7681C125.428 57.8193 126.579 59.6238 128.413 59.6238C130.342 59.6238 131.49 57.8826 131.49 55.7998C131.49 53.7781 130.308 52.1612 128.352 52.1612C126.61 52.1612 125.428 53.8097 125.428 55.7681ZM136.712 60.8971C137.988 60.8971 139.261 58.8459 139.261 55.8925C139.261 49.9857 135.468 45.3837 129.035 45.3837C123.189 45.3837 118.465 50.1417 118.465 55.9853C118.465 61.7677 122.879 66.0598 128.661 66.0598C130.434 66.0598 132.766 65.4674 134.505 64.1625L135.934 66.6479C134.132 68.0498 131.054 68.95 128.661 68.95C121.106 68.95 115.385 63.4162 115.385 55.9853C115.385 48.432 121.418 42.5547 129.035 42.5547C136.622 42.5547 142.309 48.1517 142.309 55.7998C142.309 60.4312 139.79 63.4162 136.341 63.4162C134.475 63.4162 133.107 62.7016 132.703 61.0214L132.641 60.6484C131.429 62.3601 129.749 63.1043 128.01 63.1043C124.525 63.1043 121.23 60.2436 121.23 55.9241C121.23 51.9441 123.718 48.6175 127.574 48.6175C130.03 48.6175 131.615 50.266 131.737 50.5464V48.9611H135.563V59.3751C135.563 60.4945 136.029 60.8971 136.712 60.8971Z" fill="white"/>
<path d="M93.3722 88.1107C93.6778 79.6636 99.4497 72.4899 102.477 69.2856V67.4874H74.5259C68.8257 67.4874 65.4338 70.3966 62.356 75.1945C60.094 78.7193 58.0681 83.2031 57.8911 88.1107C57.4758 99.5871 59.9654 105.169 52.4944 112.767C45.0233 120.364 41.701 124.707 43.9166 137.113H79.3977C77.1842 124.707 80.5044 120.364 87.9754 112.767C95.4486 105.169 92.9569 99.5871 93.3722 88.1107Z" fill="#DFE1E9"/>
<path d="M97.4842 70.1244H71.3419C71.0299 70.4743 70.6989 70.858 70.3574 71.269H96.4997C96.8412 70.858 97.1722 70.4743 97.4842 70.1244Z" fill="#8E88A5"/>
<path d="M93.3695 75.5904H67.2271C66.9952 75.9615 66.7654 76.343 66.542 76.7351H92.6843C92.9099 76.343 93.1376 75.9615 93.3695 75.5904Z" fill="#8E88A5"/>
<path d="M90.6326 81.0564H64.4903C64.349 81.4317 64.2183 81.8154 64.0918 82.2012H90.2341C90.3606 81.8154 90.4914 81.4317 90.6326 81.0564Z" fill="#8E88A5"/>
<path d="M89.2785 86.5228H63.1362C63.092 86.9002 63.0582 87.2817 63.0371 87.6675H89.1794C89.2026 87.2817 89.2342 86.9002 89.2785 86.5228Z" fill="#8E88A5"/>
<path d="M89.1071 91.9894H62.9648C62.967 92.3751 62.9732 92.7588 62.9796 93.134H89.1218C89.1155 92.7588 89.1092 92.3751 89.1071 91.9894Z" fill="#8E88A5"/>
<path d="M89.2224 97.4533H63.0801C63.0843 97.8433 63.0885 98.2228 63.0885 98.6001H89.2308C89.2308 98.2228 89.2287 97.8433 89.2224 97.4533Z" fill="#8E88A5"/>
<path d="M88.9746 102.919H62.8323C62.7753 103.305 62.71 103.689 62.6299 104.066H88.7722C88.8523 103.689 88.9177 103.305 88.9746 102.919Z" fill="#8E88A5"/>
<path d="M87.1426 108.386H60.9982C60.7853 108.765 60.5513 109.147 60.292 109.531H86.4342C86.6935 109.147 86.9276 108.765 87.1426 108.386Z" fill="#8E88A5"/>
<path d="M82.6988 113.852H56.5564C56.1812 114.242 55.8208 114.621 55.4688 114.997H81.611C81.963 114.621 82.3236 114.242 82.6988 113.852Z" fill="#8E88A5"/>
<path d="M77.9834 119.318H51.8411C51.5712 119.698 51.3183 120.079 51.0801 120.463H77.2223C77.4605 120.079 77.7136 119.698 77.9834 119.318Z" fill="#8E88A5"/>
<path d="M75.2593 124.784H49.117C49.0053 125.16 48.8999 125.537 48.8135 125.929H74.9557C75.0421 125.537 75.1496 125.16 75.2593 124.784Z" fill="#8E88A5"/>
<path d="M74.517 130.251H48.3747C48.3726 130.624 48.3747 131.004 48.3894 131.396H74.5317C74.5169 131.004 74.5148 130.624 74.517 130.251Z" fill="#8E88A5"/>
<path d="M61.1148 79.7958C60.8723 79.4248 59.4093 80.6221 59.2027 80.9426C58.9012 81.4021 58.4375 81.7289 58.1276 82.3697C57.8852 82.8757 57.6574 83.3542 57.4024 83.8581C57.2653 84.1342 57.2928 84.4652 57.1979 84.7603C57.1199 84.9985 56.6625 85.6626 56.4116 85.9577C56.3231 86.0631 56.4791 86.1116 56.2725 86.2697C56.848 86.7588 56.886 87.2036 57.219 87.8782C57.2401 87.8444 57.6701 87.4312 57.9358 87.2731C58.1698 87.1361 59.6391 86.5691 59.8857 86.4552C60.7606 86.0505 61.1316 85.7827 61.3087 85.6394C61.4647 85.5129 62.1013 85.3021 62.0296 85.066C61.8715 84.539 61.06 84.8425 60.8597 84.8763C60.5013 84.9332 59.9384 85.2831 59.2723 85.2156C59.0235 85.1903 58.6462 84.7898 58.8043 84.1996C58.9413 83.6831 59.306 83.2551 59.715 82.9073C59.9722 82.6902 60.9187 81.8111 61.1864 81.5771C61.9622 80.8962 61.6101 80.4156 60.906 80.8625L59.5315 81.9186L59.8267 81.5898C60.263 81.0754 61.4078 80.2385 61.1148 79.7958Z" fill="#F46F5C"/>
<path d="M30.0654 66.9747L30.2362 67.2783C30.8096 68.1911 31.4167 69.127 32.1651 69.907C32.6204 70.3835 33.3983 70.8009 33.7735 71.2773C33.9232 71.4691 34.0855 71.6462 34.2583 71.8127C33.6533 73.2504 32.1039 77.0387 31.8615 78.5986C31.8615 78.5986 27.1499 77.1799 25.8408 74.8526C25.8408 74.8526 29.0282 69.966 30.0654 66.9747Z" fill="#F46F5C"/>
<path d="M30.8299 75.5567C30.8025 74.119 30.3387 72.6138 29.4618 71.4564C29.1603 71.058 28.8462 70.6933 28.5068 70.3476C29.1329 69.1797 29.719 67.9718 30.0647 66.9747L30.2355 67.2783C30.8089 68.1911 31.416 69.127 32.1644 69.907C32.6197 70.3835 33.3976 70.8009 33.7728 71.2773C33.9225 71.4691 34.0848 71.6462 34.2576 71.8127C33.6526 73.2504 32.1033 77.0387 31.8608 78.5986C31.8608 78.5986 31.0534 78.352 30.0163 77.9051C30.5306 77.2516 30.8447 76.4379 30.8299 75.5567Z" fill="#E84A3F"/>
<path d="M12.5897 153.813C12.5897 153.813 11.8772 158.586 12.6214 159.277C13.3655 159.969 23.2882 160.666 24.1525 159.8C25.0168 158.934 24.5699 157.418 22.4998 156.773C20.28 156.083 19.1648 156.659 17.7798 156.033C16.3948 155.405 16.8333 153.206 16.8333 153.206L12.5897 153.813Z" fill="#14162E"/>
<path d="M29.3056 153.813C29.3056 153.813 28.593 158.586 29.3372 159.277C30.0834 159.969 40.0041 160.666 40.8684 159.8C41.7327 158.934 41.2878 157.418 39.2156 156.773C36.9958 156.083 35.8807 156.659 34.4957 156.033C33.1107 155.405 33.5491 153.206 33.5491 153.206L29.3056 153.813Z" fill="#14162E"/>
<path d="M11.0147 126.952C8.60725 113.629 8.62413 104.191 8.60938 99.7746C10.2157 99.5722 11.8411 99.4499 13.557 99.9137C16.7086 100.767 19.8687 101.562 23.0244 102.363C21.4455 107.703 18.863 124.717 18.7892 128.202C18.6944 132.536 17.6361 155.356 17.6361 155.356L11.9001 155.489C11.4173 152.017 11.2255 128.109 11.0147 126.952Z" fill="#EF3363"/>
<path d="M17.9804 101.146C19.6479 101.646 21.3449 101.977 23.044 102.297C21.4946 107.538 18.948 124.415 18.7962 128.085C17.679 125.956 13.4228 118.42 11.0575 112.688C9.47854 108.856 8.63955 104.757 8.61426 100.613V100.562C11.6309 100.278 14.5717 100.126 17.9804 101.146Z" fill="#E71D48"/>
<path d="M14.1188 99.7302C16.2458 100.352 20.1057 101.21 23.0338 102.123C25.2515 107.113 31.4134 120.387 32.5918 125.687C34.2235 133.019 34.2256 154.949 34.2256 154.949L28.675 155C28.675 155 24.8699 130.16 24.1996 128.43C21.497 121.473 16.5536 116.645 14.6268 113.355C9.97216 105.401 9.59908 101.467 8.92871 98.6424C10.5857 99.0387 12.3374 99.2095 14.1188 99.7302Z" fill="#EF3363"/>
<path d="M27.7016 80.9552C28.8926 78.5815 27.9587 76.8972 30.4842 77.7151C34.6287 79.058 38.6045 88.0088 41.0119 88.5886C44.3638 89.396 56.6877 85.1292 56.6877 85.1292L57.9588 88.2724C57.9588 88.2724 41.7056 95.3787 39.0409 94.7041C36.3784 94.0316 29.3817 86.4215 27.6805 83.8496C27.0839 82.9495 27.2188 81.9207 27.7016 80.9552Z" fill="#C7C8D7"/>
<path d="M27.7016 80.9552C28.8926 78.5815 27.9587 76.8972 30.4842 77.7151C34.6287 79.058 38.6045 88.0088 41.0119 88.5886C44.3638 89.396 56.6877 85.1292 56.6877 85.1292L57.9588 88.2724C57.9588 88.2724 41.7056 95.3787 39.0409 94.7041C36.3784 94.0316 29.3817 86.4215 27.6805 83.8496C27.0839 82.9495 27.2188 81.9207 27.7016 80.9552Z" fill="#ACADC6"/>
<path d="M25.2792 105.765C25.2792 105.765 20.2346 105.506 15.3649 103.906C11.7601 102.721 8.66332 100.7 8.15527 99.1524C8.15527 99.1524 13.8534 84.3052 17.7871 79.2416C21.7229 74.178 26.3312 74.0768 26.3312 74.0768C26.3312 74.0768 29.3225 76.851 32.1431 77.4392C32.1431 77.4392 29.5882 88.4602 28.3823 92.8176C27.1744 97.1771 25.2792 105.765 25.2792 105.765Z" fill="#C7C8D7"/>
<path d="M24.1065 89.042C24.0728 87.0625 23.6596 83.9447 24.4965 81.6532C24.7347 81.845 24.9771 82.0306 25.1984 82.2393C26.5181 83.4788 27.8251 84.8048 29.5053 85.5426C29.7182 85.6375 29.9459 85.6923 30.1735 85.7429C29.5263 88.4159 28.8518 91.1206 28.3838 92.8176C27.1759 97.1771 25.2807 105.765 25.2807 105.765C25.2807 105.765 23.8682 105.692 21.8213 105.386C24.0411 100.617 24.2056 94.5188 24.1065 89.042Z" fill="#ACADC6"/>
<path d="M30.4378 60.2626C30.4378 60.2626 34.4115 57.4778 36.7536 59.002C39.0956 60.524 40.4322 61.8015 40.2277 62.9209C40.0232 64.0402 39.1125 66.9326 39.1947 68.2375C39.2791 69.5445 39.9156 71.5535 39.6416 71.9709C39.3696 72.3862 37.894 71.7537 37.7169 71.8865C37.542 72.0193 35.0186 74.743 34.3251 74.7851C33.6315 74.8252 29.9908 70.3729 30.052 68.5769C30.1131 66.7808 28.8377 62.6068 30.4378 60.2626Z" fill="#F46F5C"/>
<path d="M35.2412 63.3551C35.5679 64.1941 36.7927 65.6529 40.0286 65.9248C43.2666 66.1968 45.4611 59.6849 39.8263 57.0836C34.1892 54.4843 33.3523 56.5418 32.1191 56.4153C30.8859 56.2909 29.7897 56.4238 28.7335 57.2712C26.9037 58.7342 25.5904 60.9519 26.87 64.6136C28.1644 68.3133 30.0828 68.8804 30.0828 68.8804C30.5634 68.2648 31.1367 67.097 30.7362 66.4266C30.576 66.161 30.2999 65.9754 30.0975 65.4611C29.7307 64.5272 30.9155 63.3657 32.0897 64.2616C32.642 64.6832 32.3447 65.9017 32.486 66.4835C32.6377 67.1012 32.9265 67.1434 33.1753 67.1792C33.6581 67.2445 34.6045 66.1884 34.4464 64.4513C34.3431 63.3256 34.9144 62.5161 35.2412 63.3551Z" fill="#14162E"/>
<path d="M50.6307 106.164C50.8668 106.233 51.1577 106.286 51.2294 106.343C51.5582 106.613 52.2581 106.676 52.5616 106.68C53.2531 106.684 54.3261 106.642 54.9016 106.99C55.2368 107.192 57.1974 108.529 56.3267 109.21L55.8082 109.326L55.0871 108.691L55.5656 109.157L55.7807 109.488C55.827 109.718 55.4941 110.043 55.2811 110.034C55.0724 110.028 55.0007 109.785 54.8785 109.638L54.8869 109.65C54.9902 109.825 55.2811 110.034 54.9058 110.411C54.4842 110.833 54.4526 110.452 54.2587 110.315L54.0626 110.133L54.4126 110.551C54.5433 110.808 53.8666 111.234 53.4871 111.029C53.2531 110.903 52.8083 110.325 52.6565 110.31L52.138 110.173C51.6278 110.03 51.1662 109.697 50.793 109.32L50.1289 108.651C49.7326 108.19 49.6188 108.006 49.5176 107.825C50.0952 107.321 50.4178 106.91 50.6307 106.164Z" fill="#F46F5C"/>
<path d="M49.6789 109.193L52.2528 105.751C52.2528 105.751 42.9351 96.9199 39.4505 92.5625C35.9658 88.2051 32.5992 79.7391 29.6774 78.9169C26.7535 78.0948 23.5787 79.4165 24.8625 83.7444C26.1443 88.0723 34.292 94.4998 35.8752 96.5152C37.4605 98.5284 48.0367 108.027 49.6789 109.193Z" fill="#C7C8D7"/>
</svg>
