<svg width="187" height="161" viewBox="0 0 187 161" fill="none" xmlns="http://www.w3.org/2000/svg">
<path d="M114.407 156.54H85.5342L87.9077 121.732H112.034L114.407 156.54Z" fill="#14162E"/>
<path d="M118.194 150.967C117.842 150.445 117.254 150.131 116.624 150.131H100.636H99.3088H83.318C82.6884 150.131 82.1005 150.445 81.7489 150.967L77.3872 157.476C76.547 158.731 77.4448 160.413 78.9543 160.413H99.3088H100.636H120.988C122.498 160.413 123.395 158.731 122.555 157.476L118.194 150.967Z" fill="#14162E"/>
<path d="M170.668 130.986H29.273C24.7842 130.986 21.1455 127.347 21.1455 122.86V33.4341C21.1455 28.9473 24.7842 25.3085 29.273 25.3085H170.668C175.157 25.3085 178.795 28.9473 178.795 33.4341V122.86C178.795 127.347 175.157 130.986 170.668 130.986Z" fill="#14162E"/>
<path d="M171.536 122.89H28.4053V32.3101H171.536V122.89Z" fill="white"/>
<path d="M167.961 122.89H31.9805V42.1736H167.961V122.89Z" fill="#DFE1E9"/>
<path d="M167.961 48.8508H31.9805V42.1733H167.961V48.8508Z" fill="#ADE4E7"/>
<path d="M161.361 76.2046H119.131V70.6313H161.361V76.2046Z" fill="white"/>
<path d="M161.361 86.0603H119.131V80.4871H161.361V86.0603Z" fill="white"/>
<path d="M161.361 95.9158H119.131V90.3405H161.361V95.9158Z" fill="white"/>
<path d="M86.7509 61.1272H44.5205V55.552H86.7509V61.1272Z" fill="white"/>
<path d="M86.7509 70.9827H44.5205V65.4074H86.7509V70.9827Z" fill="white"/>
<path d="M84.7825 67.1302H5.05485C2.26425 67.1302 0 69.3945 0 72.1851V97.8943C0 100.687 2.26425 102.951 5.05485 102.951H55.0036L74.0293 119.127L64.9961 102.951H84.7825C87.5751 102.951 89.8374 100.687 89.8374 97.8943V72.1851C89.8374 69.3945 87.5751 67.1302 84.7825 67.1302Z" fill="#EF3363"/>
<path d="M83.7714 77.156H30.043V74.0635H83.7714V77.156Z" fill="white"/>
<path d="M83.7714 83.4683H30.043V80.3738H83.7714V83.4683Z" fill="white"/>
<path d="M83.7714 89.7803H30.043V86.6858H83.7714V89.7803Z" fill="white"/>
<path d="M65.7031 96.0903H30.043V92.9978H65.7031V96.0903Z" fill="white"/>
<path d="M25.7895 84.4871C25.7895 90.2133 21.1477 94.853 15.4235 94.853C9.69934 94.853 5.05762 90.2133 5.05762 84.4871C5.05762 78.7629 9.69934 74.1212 15.4235 74.1212C21.1477 74.1212 25.7895 78.7629 25.7895 84.4871Z" fill="#14162E"/>
<path d="M18.3494 81.4044C18.3494 83.0708 17.0385 84.4214 15.4237 84.4214C13.8089 84.4214 12.498 83.0708 12.498 81.4044C12.498 79.7399 13.8089 78.3893 15.4237 78.3893C17.0385 78.3893 18.3494 79.7399 18.3494 81.4044Z" fill="white"/>
<path d="M15.4749 84.8764H15.3716C12.5035 84.8764 10.1777 87.2022 10.1777 90.0703V93.3813C11.721 94.2949 13.5006 94.853 15.4232 94.853C17.3459 94.853 19.1255 94.2949 20.6688 93.3813V90.0703C20.6688 87.2022 18.3449 84.8764 15.4749 84.8764Z" fill="white"/>
<path d="M181.512 0.413433H101.784C98.9937 0.413433 96.7295 2.67768 96.7295 5.46828V31.1795C96.7295 33.9701 98.9937 36.2344 101.784 36.2344H124.87L118.685 52.4099L134.86 36.2344H181.512C184.305 36.2344 186.569 33.9701 186.569 31.1795V5.46828C186.569 2.67768 184.305 0.413433 181.512 0.413433Z" fill="#C7C8D7"/>
<path d="M180.501 10.4397H126.772V7.34718H180.501V10.4397Z" fill="white"/>
<path d="M180.501 16.752H126.772V13.6594H180.501V16.752Z" fill="white"/>
<path d="M180.501 23.064H126.772V19.9695H180.501V23.064Z" fill="white"/>
<path d="M162.433 29.3738H126.772V26.2813H162.433V29.3738Z" fill="white"/>
<path d="M122.519 17.7706C122.519 23.4967 117.879 28.1365 112.153 28.1365C106.429 28.1365 101.787 23.4967 101.787 17.7706C101.787 12.0464 106.429 7.4066 112.153 7.4066C117.879 7.4066 122.519 12.0464 122.519 17.7706Z" fill="#14162E"/>
<path d="M115.078 14.6903C115.078 16.3567 113.769 17.7073 112.152 17.7073C110.537 17.7073 109.229 16.3567 109.229 14.6903C109.229 13.0238 110.537 11.6732 112.152 11.6732C113.769 11.6732 115.078 13.0238 115.078 14.6903Z" fill="white"/>
<path d="M112.205 18.1598H112.1C109.232 18.1598 106.906 20.4857 106.906 23.3537V26.6647C108.45 27.5783 110.229 28.1365 112.152 28.1365C114.076 28.1365 115.854 27.5783 117.397 26.6647V23.3537C117.397 20.4857 115.073 18.1598 112.205 18.1598Z" fill="white"/>
<path d="M159.156 117.967H127.534C124.961 117.967 122.878 115.881 122.878 113.309V109.633C122.878 107.06 124.961 104.975 127.534 104.975H159.156C161.728 104.975 163.813 107.06 163.813 109.633V113.309C163.813 115.881 161.728 117.967 159.156 117.967Z" fill="#EF3363"/>
<path d="M137.749 112.63C137.749 112.235 137.387 111.98 136.809 111.99H135.544V113.317H136.809C137.387 113.317 137.749 113.065 137.749 112.63ZM137.55 110.157C137.55 109.778 137.27 109.551 136.809 109.561H135.544V110.789H136.809C137.27 110.789 137.55 110.554 137.55 110.157ZM139.246 109.867C139.246 110.526 138.821 111.059 138.154 111.239C138.958 111.402 139.455 112.026 139.455 112.838C139.455 113.921 138.508 114.598 137.016 114.598H133.894V108.27H136.899C138.335 108.27 139.246 108.892 139.246 109.867Z" fill="white"/>
<path d="M143.19 113.263C143.921 113.263 144.425 112.765 144.425 111.945V108.27H146.078V111.945C146.078 113.615 144.959 114.672 143.18 114.672C141.392 114.672 140.246 113.615 140.246 111.945V108.27H141.899V111.945C141.899 112.757 142.439 113.263 143.19 113.263Z" fill="white"/>
<path d="M150.515 112.576V114.598H148.862V112.622L146.532 108.27H148.185L149.684 110.987L151.148 108.27H152.799L150.515 112.576Z" fill="white"/>
<path d="M104.796 63.7451C102.673 64.1542 100.441 64.2078 98.3989 64.0291C97.6541 63.9635 96.8874 63.7927 96.1525 63.5405C96.2578 66.204 96.2776 72.4466 94.3828 75.0306C94.3828 75.0306 95.0641 78.1013 100.608 78.1926C106.149 78.284 106.773 74.1011 106.773 74.1011C106.773 74.1011 104.91 67.6757 104.796 63.7451Z" fill="#F46F5C"/>
<path d="M94.4106 75.128L94.496 75.3465L94.51 75.3742L94.6807 75.698L94.6907 75.7119L94.9727 76.1052L95.0184 76.1628C95.2587 76.4448 95.5845 76.7487 96.0234 77.0347L96.0969 77.0824C96.3174 77.2214 96.5677 77.3525 96.8477 77.4756L96.9589 77.5213C97.2529 77.6445 97.5707 77.7577 97.9322 77.853C98.105 76.4488 98.6392 75.0763 99.5648 73.9184C101.199 71.8706 103.364 70.6868 105.805 70.2956C105.333 68.216 104.852 65.6797 104.796 63.7451C102.673 64.1543 100.441 64.2079 98.3989 64.0291C97.6541 63.9636 96.8874 63.7928 96.1525 63.5405C96.2578 66.204 96.2776 72.4466 94.3828 75.0306L94.4007 75.0962L94.4106 75.128Z" fill="#E84A3F"/>
<path d="M97.1177 48.7951C97.1177 48.7951 106.201 46.1138 107.647 48.3145C109.092 50.5132 108.83 54.0665 109.434 55.6316C110.036 57.1967 112.288 58.8472 112.531 59.4729C112.771 60.0985 111.021 61.2942 110.777 61.7828C110.534 62.2714 109.619 67.4137 108.042 68.5478C106.465 69.6819 98.0095 66.6708 95.9141 62.6766C93.8187 58.6824 94.6827 50.112 97.1177 48.7951Z" fill="#F46F5C"/>
<path d="M101.255 50.3899C101.255 50.3899 101.531 52.6184 100.298 55.0812C99.7534 56.1677 102.467 59.0576 101.712 60.3705C101.209 61.2444 100.474 61.0219 99.807 59.2959C99.5766 58.7041 98.9271 58.2949 98.3392 58.0407C96.1146 57.0794 95.5983 60.4658 97.5904 61.4728C98.9867 62.1779 98.1565 65.7094 98.1565 65.7094C96.6589 66.8633 91.7073 65.473 92.2495 61.8581C92.5951 59.5561 92.7481 58.6782 91.9417 58.1181C90.4818 57.1032 88.583 54.2868 90.9843 51.8974C94.2933 48.6063 91.2743 47.5615 95.1037 46.6121C98.9311 45.6607 102.093 47.9985 101.255 50.3899Z" fill="#14162E"/>
<path d="M94.4805 48.4552C94.695 47.619 96.2045 46.5445 96.9513 45.9863C98.1053 45.1263 99.44 44.5841 100.87 44.2186C102.286 43.8571 103.804 43.7975 105.236 44.0716C106.477 44.31 107.518 44.8602 108.789 45.0052C109.963 45.1382 111.131 45.0866 111.955 44.3914C112.213 45.17 112.207 46.7292 112.11 47.2655C111.903 48.3976 111.157 49.4105 110.477 50.4235C108.636 53.1724 103.623 54.6938 100.089 53.2419C98.3833 52.5388 96.85 51.933 96.0118 50.4473C95.5312 49.5933 95.1637 49.1801 94.4805 48.4552Z" fill="#14162E"/>
<path d="M142.952 54.3763L151.731 73.8628C151.731 73.8628 149.163 76.7547 148.304 76.1112C147.448 75.4696 134.278 59.6595 132.993 58.8373C131.708 58.017 142.952 54.3763 142.952 54.3763Z" fill="#14162E"/>
<path d="M121.182 56.8035C121.182 56.8035 121.217 62.4066 124.644 63.6917C124.644 63.6917 142.204 56.4162 145.735 55.7171C149.268 55.0179 162.117 54.9127 162.117 54.9127L149.163 31.7835C149.163 31.7835 142.952 44.2051 137.278 48.2728C131.603 52.3426 121.182 56.8035 121.182 56.8035Z" fill="#EF3363"/>
<path d="M132.571 60.48C133.959 59.9278 135.409 59.3578 136.835 58.8076C134.684 56.3845 133.568 53.006 133.141 50.8827C131.808 51.6454 130.427 52.3803 129.093 53.0635C129.689 56.0984 130.97 58.6189 132.571 60.48Z" fill="#14162E"/>
<path d="M166.9 37.7321C170.559 46.5547 169.266 55.4707 164.013 57.6476C158.761 59.8264 151.539 54.4399 147.881 45.6172C144.224 36.7966 145.517 27.8786 150.769 25.7017C156.02 23.5248 163.244 28.9114 166.9 37.7321Z" fill="#52C6DA"/>
<path d="M166.191 38.026C169.304 45.5298 168.203 53.1151 163.737 54.9682C159.268 56.8193 153.124 52.2392 150.012 44.7334C146.902 37.2295 148 29.6442 152.469 27.7931C156.936 25.94 163.081 30.5222 166.191 38.026Z" fill="#14162E"/>
<path d="M141.798 68.4089C141.381 68.1567 141.498 66.5876 141.584 66.1784C141.715 65.5409 142.158 64.7087 141.715 64.0969C140.93 63.0184 139.83 65.9222 139.687 66.3433C139.411 67.1517 139.313 67.7018 139.484 68.2798C139.629 68.7644 140.495 70.2759 141.164 70.8182C141.083 71.1062 140.994 71.4061 140.884 71.7278C141.723 72.0993 142.187 72.3297 143 72.7984C143.848 73.287 143.804 73.8908 144.597 74.437L145.389 72.6157C145.057 72.2006 142.495 68.83 141.798 68.4089Z" fill="#F46F5C"/>
<path d="M147.424 62.031C146.665 61.2147 145.484 61.5285 144.566 62.1978C143.895 62.6864 141.964 64.2496 142.484 65.3817C142.915 66.3232 145.4 64.2396 145.4 64.2396C144.487 65.0262 142.78 65.6558 143.209 66.4443C143.688 67.3242 145.857 66.0709 146.332 65.7213C145.843 65.8465 143.422 67.3182 144.391 68.0849C145.057 68.6112 146.838 67.5069 147.37 67.1315C146.655 67.35 145.684 67.9836 145.873 68.9747C146.183 69.5169 147.263 69.1575 147.865 68.9132C148.773 68.5437 149.629 68.4027 149.7 67.2746C149.714 67.064 149.742 66.8813 149.732 66.6608C149.694 65.8445 149.321 64.9229 148.934 64.2059C148.503 63.4134 148.004 62.6547 147.424 62.031Z" fill="#F46F5C"/>
<path d="M54.9877 68.5001C54.5547 67.8367 54.2309 67.084 53.9727 66.3391C53.7463 65.6936 53.5854 65.0322 53.363 64.3847C53.1465 63.7631 52.8903 63.1434 52.926 62.47C52.9479 62.0529 53.0551 61.7073 53.1604 61.3022C53.2895 60.8056 53.4722 60.321 53.5755 59.8185C53.6669 59.3716 53.6271 58.9346 53.7106 58.4897C53.8675 57.6595 54.0621 56.7736 54.4852 56.0348C54.8169 55.4568 55.1744 54.9762 55.6133 54.4816C55.8437 54.2214 56.0066 53.995 56.2807 53.7686C56.5349 53.56 56.7832 53.3356 56.8924 53.0158C57.0474 52.5689 56.811 52.1597 56.3681 52.0465C55.5875 51.8479 54.3541 52.2054 53.8794 52.8609C53.218 53.7705 52.9061 54.8848 52.1693 55.7627C49.9169 58.446 47.8036 55.288 45.1759 54.1519C44.4211 53.8261 43.291 53.0078 42.6355 52.5153C42.1668 52.1617 40.1489 50.2451 39.1955 50.7436C38.4924 51.111 39.8668 52.7218 40.5302 53.1171C40.7924 53.272 43.0447 55.0993 43.3367 55.1887C42.6733 55.0754 40.9493 53.9354 39.5629 52.8489C38.5658 52.0704 37.6006 51.3017 37.0564 51.7466C35.384 53.1171 41.9464 56.2513 42.4568 56.5393C41.9106 56.5869 36.7743 52.9483 36.2877 54.285C36.0215 55.0198 37.0861 55.7508 37.9581 56.2235C39.0524 56.8174 40.8857 57.2424 41.2988 57.5642C40.5262 57.8263 37.1239 55.5124 37.1239 56.9246C37.1219 57.8482 39.2352 58.5414 40.0297 58.7837C40.848 59.032 43.2552 60.6686 44.0159 61.032C46.5563 62.2416 47.603 62.1006 48.6061 63.622C49.2436 64.5913 50.3797 69.7117 51.3013 71.6602L54.9877 68.5001Z" fill="#F46F5C"/>
<path d="M140.385 71.0308C138.121 77.621 133.278 89.2819 131.68 88.4636C128.682 86.9283 122.229 81.651 117.409 78.4234C113.673 75.9228 111.802 75.1939 111.802 75.1939L115.158 91.1072C115.158 91.1072 131.066 103.189 134.399 101.338C137.02 99.8802 143.472 81.51 145.748 73.8969L140.385 71.0308Z" fill="#52C6DA"/>
<path d="M124.631 93.7288C122.839 91.401 115.997 84.7015 114.146 83.2735L114.68 90.819C114.68 90.819 130.714 102.875 134.264 101.37C131.209 99.4053 126.809 96.5571 124.631 93.7288Z" fill="#43AFCF"/>
<path d="M84.8086 76.0356C84.8086 76.0356 65.2466 83.9327 63.1174 83.3785C60.9882 82.8224 53.8955 62.6526 53.8955 62.6526L47.9707 65.0579C47.9707 65.0579 54.2987 94.1516 58.3704 95.5122C62.4441 96.8727 86.7252 89.8575 86.7252 89.8575C86.7252 89.8575 87.1245 82.7946 84.8086 76.0356Z" fill="#52C6DA"/>
<path d="M68.1185 93.699C66.3944 94.3167 64.6407 94.9264 62.8789 95.4448C71.1772 94.3484 86.7251 89.8577 86.7251 89.8577C86.7251 89.8577 86.8919 86.6301 86.3001 82.4631C81.4835 87.6808 74.6332 91.3612 68.1185 93.699Z" fill="#43AFCF"/>
<path d="M156.921 43.3984C156.027 40.6376 153.334 39.0387 150.907 39.8252C150.078 40.0934 149.401 40.6197 148.885 41.2891C149.169 42.4252 149.534 43.5792 150.013 44.7331C150.837 46.7173 151.874 48.489 153.034 49.9985C153.407 49.9846 153.781 49.9389 154.148 49.8178C156.575 49.0313 157.817 46.1572 156.921 43.3984Z" fill="#C7C8D7"/>
<path d="M84.8436 99.8347C84.1524 106.625 83.6142 120.896 83.209 122.89H115.308C115.876 112.229 115.687 96.7878 115.159 91.1073C114.239 81.2062 111.802 75.194 111.802 75.194C111.802 75.194 109.407 74.4372 106.563 73.3428C106.563 73.3428 100.656 76.9537 95.154 73.3905C95.154 73.3905 85.223 75.7422 84.0214 76.3162C83.0263 76.7909 85.5805 92.5851 84.8436 99.8347Z" fill="#52C6DA"/>
<path d="M93.3346 109.13C93.2889 105.952 92.701 102.81 91.4974 99.8684C91.2213 99.1971 91.0008 98.5099 90.9075 97.7909C90.6294 95.6577 90.1706 94.2594 89.5489 93.0498C88.8299 91.9654 88.103 90.8869 87.3939 89.7965C87.0006 89.2622 86.5875 88.6981 86.1307 88.0288C85.5348 87.1588 84.6391 85.5639 84.1683 84.5608C84.5457 89.5462 85.213 96.2039 84.8436 99.8347C84.1524 106.625 83.6142 120.896 83.209 122.89H98.1471C96.2285 120.42 95.0745 117.412 93.9483 113.744C93.4895 112.254 93.3564 110.699 93.3346 109.13Z" fill="#43AFCF"/>
</svg>
